<svg width="21" height="20" viewBox="0 0 21 20" fill="none" xmlns="http://www.w3.org/2000/svg">
<rect x="2.16699" y="1.66666" width="16.6667" height="16.6667" rx="5" fill="#FFD2B9"/>
<path d="M13.0003 18.9583H8.00033C3.47533 18.9583 1.54199 17.025 1.54199 12.5V7.49999C1.54199 2.97499 3.47533 1.04166 8.00033 1.04166H13.0003C17.5253 1.04166 19.4587 2.97499 19.4587 7.49999V12.5C19.4587 17.025 17.5253 18.9583 13.0003 18.9583ZM8.00033 2.29166C4.15866 2.29166 2.79199 3.65832 2.79199 7.49999V12.5C2.79199 16.3417 4.15866 17.7083 8.00033 17.7083H13.0003C16.842 17.7083 18.2087 16.3417 18.2087 12.5V7.49999C18.2087 3.65832 16.842 2.29166 13.0003 2.29166H8.00033Z" fill="#FF6228"/>
<path d="M9.31621 12.983C9.14954 12.983 8.99121 12.9164 8.87454 12.7997L6.51621 10.4414C6.27454 10.1997 6.27454 9.79968 6.51621 9.55802C6.75788 9.31635 7.15788 9.31635 7.39954 9.55802L9.31621 11.4747L13.5995 7.19135C13.8412 6.94968 14.2412 6.94968 14.4829 7.19135C14.7245 7.43302 14.7245 7.83302 14.4829 8.07468L9.75788 12.7997C9.64121 12.9164 9.48288 12.983 9.31621 12.983Z" fill="#FF6228"/>
</svg>
