<svg width="60" height="32" viewBox="0 0 60 32" fill="none" xmlns="http://www.w3.org/2000/svg">
<rect width="60" height="32" rx="16" fill="#EEEEEE"/>
<path d="M15.4062 25.2344C11.4805 25.2344 9.17188 22.0703 9.17188 16.5156C9.17188 10.9961 11.5039 7.79688 15.4062 7.79688C19.2969 7.79688 21.6289 10.9961 21.6406 16.5156C21.6289 22.0703 19.332 25.2344 15.4062 25.2344ZM11.75 16.5156C11.7383 20.7461 13.1094 23.0078 15.4062 23.0078C17.6914 23.0078 19.0625 20.7461 19.0625 16.5156C19.0625 12.2969 17.6797 9.98828 15.4062 9.97656C13.1211 9.98828 11.75 12.2969 11.75 16.5156ZM29.7388 25.2344C25.813 25.2344 23.5044 22.0703 23.5044 16.5156C23.5044 10.9961 25.8364 7.79688 29.7388 7.79688C33.6294 7.79688 35.9614 10.9961 35.9731 16.5156C35.9614 22.0703 33.6645 25.2344 29.7388 25.2344ZM26.0825 16.5156C26.0708 20.7461 27.4419 23.0078 29.7388 23.0078C32.0239 23.0078 33.395 20.7461 33.395 16.5156C33.395 12.2969 32.0122 9.98828 29.7388 9.97656C27.4536 9.98828 26.0825 12.2969 26.0825 16.5156ZM44.0713 25.2344C40.1455 25.2344 37.8369 22.0703 37.8369 16.5156C37.8369 10.9961 40.1689 7.79688 44.0713 7.79688C47.9619 7.79688 50.2939 10.9961 50.3056 16.5156C50.2939 22.0703 47.997 25.2344 44.0713 25.2344ZM40.415 16.5156C40.4033 20.7461 41.7744 23.0078 44.0713 23.0078C46.3564 23.0078 47.7275 20.7461 47.7275 16.5156C47.7275 12.2969 46.3447 9.98828 44.0713 9.97656C41.7861 9.98828 40.415 12.2969 40.415 16.5156Z" fill="#C9C9C9"/>
</svg>
