<svg width="389" height="844" viewBox="0 0 389 844" fill="none" xmlns="http://www.w3.org/2000/svg">
<mask id="mask0_90_22080" style="mask-type:alpha" maskUnits="userSpaceOnUse" x="0" y="-2" width="390" height="677">
<rect y="-2" width="390" height="677" fill="#F3F3F3"/>
</mask>
<g mask="url(#mask0_90_22080)">
<rect x="-2" y="-2" width="392" height="677" fill="#F3F3F3"/>
<rect x="-12.0918" y="538.667" width="86.7111" height="108.045" rx="5" transform="rotate(-2.6147 -12.0918 538.667)" fill="#E6E6E6"/>
<rect x="258.814" y="508.239" width="86.7111" height="144.238" rx="5" transform="rotate(1.98411 258.814 508.239)" fill="#E6E6E6"/>
<rect x="270.655" y="544.957" width="6.85059" height="7.80733" rx="2" transform="rotate(3.10789 270.655 544.957)" fill="#F3F3F3"/>
<rect x="269.339" y="574.66" width="6.85059" height="7.80733" rx="2" transform="rotate(3.10789 269.339 574.66)" fill="#F3F3F3"/>
<rect x="268.023" y="604.362" width="6.85059" height="7.80733" rx="2" transform="rotate(3.10789 268.023 604.362)" fill="#F3F3F3"/>
<rect x="269.997" y="559.809" width="6.85059" height="7.80733" rx="2" transform="rotate(3.10789 269.997 559.809)" fill="#F3F3F3"/>
<rect x="268.681" y="589.511" width="6.85059" height="7.80733" rx="2" transform="rotate(3.10789 268.681 589.511)" fill="#F3F3F3"/>
<rect x="267.364" y="619.213" width="6.85059" height="7.80733" rx="2" transform="rotate(3.10789 267.364 619.213)" fill="#F3F3F3"/>
<rect x="37.4199" y="558.848" width="6.85059" height="7.80733" rx="2" transform="rotate(-3.35321 37.4199 558.848)" fill="#F3F3F3"/>
<rect x="39.4542" y="588.51" width="6.85059" height="7.80733" rx="2" transform="rotate(-3.35321 39.4542 588.51)" fill="#F3F3F3"/>
<rect x="41.4883" y="618.172" width="6.85059" height="7.80733" rx="2" transform="rotate(-3.35321 41.4883 618.172)" fill="#F3F3F3"/>
<rect x="38.4374" y="573.679" width="6.85059" height="7.80733" rx="2" transform="rotate(-3.35321 38.4374 573.679)" fill="#F3F3F3"/>
<rect x="40.4717" y="603.341" width="6.85059" height="7.80733" rx="2" transform="rotate(-3.35321 40.4717 603.341)" fill="#F3F3F3"/>
<rect x="42.5059" y="633.003" width="6.85059" height="7.80733" rx="2" transform="rotate(-3.35321 42.5059 633.003)" fill="#F3F3F3"/>
<rect x="285.975" y="545.372" width="6.85059" height="7.80733" rx="2" transform="rotate(3.10789 285.975 545.372)" fill="#F3F3F3"/>
<rect x="284.658" y="575.074" width="6.85059" height="7.80733" rx="2" transform="rotate(3.10789 284.658 575.074)" fill="#F3F3F3"/>
<rect x="283.342" y="604.776" width="6.85059" height="7.80733" rx="2" transform="rotate(3.10789 283.342 604.776)" fill="#F3F3F3"/>
<rect x="285.317" y="560.223" width="6.85059" height="7.80733" rx="2" transform="rotate(3.10789 285.317 560.223)" fill="#F3F3F3"/>
<rect x="284" y="589.925" width="6.85059" height="7.80733" rx="2" transform="rotate(3.10789 284 589.925)" fill="#F3F3F3"/>
<rect x="282.684" y="619.627" width="6.85059" height="7.80733" rx="2" transform="rotate(3.10789 282.684 619.627)" fill="#F3F3F3"/>
<rect x="52.6885" y="557.536" width="6.85059" height="7.80733" rx="2" transform="rotate(-3.35321 52.6885 557.536)" fill="#F3F3F3"/>
<rect x="54.7227" y="587.197" width="6.85059" height="7.80733" rx="2" transform="rotate(-3.35321 54.7227 587.197)" fill="#F3F3F3"/>
<rect x="56.757" y="616.859" width="6.85059" height="7.80733" rx="2" transform="rotate(-3.35321 56.757 616.859)" fill="#F3F3F3"/>
<rect x="53.7061" y="572.367" width="6.85059" height="7.80733" rx="2" transform="rotate(-3.35321 53.7061 572.367)" fill="#F3F3F3"/>
<rect x="55.7393" y="602.029" width="6.85059" height="7.80733" rx="2" transform="rotate(-3.35321 55.7393 602.029)" fill="#F3F3F3"/>
<rect x="57.7734" y="631.69" width="6.85059" height="7.80733" rx="2" transform="rotate(-3.35321 57.7734 631.69)" fill="#F3F3F3"/>
<rect x="301.293" y="545.788" width="6.85059" height="7.80733" rx="2" transform="rotate(3.10789 301.293 545.788)" fill="#F3F3F3"/>
<rect x="299.976" y="575.491" width="6.85059" height="7.80733" rx="2" transform="rotate(3.10789 299.976 575.491)" fill="#F3F3F3"/>
<rect x="298.66" y="605.193" width="6.85059" height="7.80733" rx="2" transform="rotate(3.10789 298.66 605.193)" fill="#F3F3F3"/>
<rect x="300.635" y="560.639" width="6.85059" height="7.80733" rx="2" transform="rotate(3.10789 300.635 560.639)" fill="#F3F3F3"/>
<rect x="299.318" y="590.342" width="6.85059" height="7.80733" rx="2" transform="rotate(3.10789 299.318 590.342)" fill="#F3F3F3"/>
<rect x="298.002" y="620.044" width="6.85059" height="7.80733" rx="2" transform="rotate(3.10789 298.002 620.044)" fill="#F3F3F3"/>
<rect x="332.156" y="561.135" width="86.7111" height="144.238" rx="5" transform="rotate(1.98411 332.156 561.135)" fill="#E6E6E6"/>
<rect x="312.662" y="623.402" width="11.7034" height="30.0947" transform="rotate(4.06754 312.662 623.402)" fill="white"/>
<path d="M307.943 595.893C314.443 586.853 328.18 587.796 333.383 597.64L337.523 605.473C343.017 615.866 334.962 628.252 323.234 627.447L313.922 626.808C302.194 626.002 295.908 612.631 302.771 603.086L307.943 595.893Z" fill="white"/>
<path d="M309.986 566.152C316.486 557.112 330.223 558.055 335.426 567.899L339.566 575.731C345.06 586.125 337.005 598.511 325.277 597.706L315.965 597.066C304.237 596.261 297.951 582.89 304.814 573.345L309.986 566.152Z" fill="white"/>
<rect x="29.0146" y="628.804" width="8.60714" height="22.1329" transform="rotate(-4.10012 29.0146 628.804)" fill="white"/>
<path d="M22.9879 608.732C26.6457 601.72 36.3991 600.997 41.0508 607.393L45.6396 613.703C50.551 620.456 46.138 629.977 37.8107 630.595L29.6134 631.202C21.2861 631.819 15.5175 623.053 19.3795 615.649L22.9879 608.732Z" fill="white"/>
<path d="M21.3668 586.868C25.0246 579.855 34.778 579.132 39.4297 585.529L44.0185 591.838C48.9299 598.591 44.5169 608.113 36.1896 608.73L27.9923 609.338C19.665 609.955 13.8964 601.188 17.7584 593.785L21.3668 586.868Z" fill="white"/>
<rect x="355.441" y="628.527" width="9.58033" height="24.6354" transform="rotate(5.26894 355.441 628.527)" fill="white"/>
<path d="M352.323 605.573C357.673 598.451 368.645 599.436 372.641 607.397L376.322 614.728C380.541 623.133 373.892 632.905 364.524 632.064L355.916 631.291C346.549 630.45 341.746 619.65 347.395 612.131L352.323 605.573Z" fill="white"/>
<path d="M354.505 581.267C359.855 574.146 370.826 575.13 374.823 583.091L378.504 590.422C382.723 598.828 376.073 608.599 366.706 607.758L358.098 606.986C348.731 606.145 343.928 595.345 349.577 587.826L354.505 581.267Z" fill="white"/>
<ellipse cx="195" cy="1615.5" rx="1591" ry="980.5" fill="white"/>
<path d="M74.82 169.43L87.2901 164.686L84.0478 146.112L94.2983 160.543L104.623 152.744L99.9588 164.391L111.751 168.192L100.399 170.194L103.277 183.048L93.5528 175.471L84.722 184.11L86.13 171.997L74.82 169.43Z" fill="white"/>
<path d="M305.312 237.241L313.103 240.512L319.729 230.577L318.127 241.673L326.268 242.606L319.042 245.91L322.79 252.805L316.709 248.764L312.414 255.917L311.264 248.194L303.441 248.298L309.377 243.358L305.312 237.241Z" fill="#FFDECC"/>
<path d="M123.312 284.241L131.103 287.512L137.729 277.577L136.127 288.673L144.268 289.606L137.042 292.91L140.79 299.805L134.709 295.764L130.414 302.917L129.264 295.194L121.441 295.298L127.377 290.358L123.312 284.241Z" fill="white"/>
<path d="M337.312 454.241L345.103 457.512L351.729 447.577L350.127 458.673L358.268 459.606L351.042 462.91L354.79 469.805L348.709 465.764L344.414 472.917L343.264 465.194L335.441 465.298L341.377 460.358L337.312 454.241Z" fill="white"/>
<path d="M41.6188 376.57L51.0242 380.519L59.0238 368.526L57.0896 381.921L66.9181 383.047L58.1945 387.036L62.719 395.359L55.378 390.482L50.1936 399.116L48.8049 389.793L39.3603 389.919L46.5271 383.955L41.6188 376.57Z" fill="#FFDECC"/>
<path d="M371 289.354L357.469 292.24L364.984 303.218L353.415 296.567L352.109 309L348.309 295.887L331 297.679L346.258 290.09L335.269 280.48L350.274 285.464L351.247 274L356.401 285.729L371 289.354Z" fill="white"/>
<path d="M41 259.207L54.1926 256.239L46.8655 244.947L58.1452 251.789L59.4184 239L63.1237 252.488L80 250.644L65.1231 258.451L75.8373 268.335L61.2077 263.208L60.259 275L55.2341 262.936L41 259.207Z" fill="#FFD2B9"/>
</g>
</svg>
