<svg width="203" height="280" viewBox="0 0 203 280" fill="none" xmlns="http://www.w3.org/2000/svg">
<path d="M8.36011 24.3819C8.36011 20.5345 11.4791 17.4155 15.3265 17.4155H195.756C199.603 17.4155 202.722 20.5345 202.722 24.3819V272.385C202.722 276.232 199.603 279.351 195.756 279.351H20.2029C13.6623 279.351 8.36011 274.049 8.36011 267.508V24.3819Z" fill="#FF6228"/>
<path d="M-0.00012207 15.9339C-0.00012207 14.0102 1.55935 12.4507 3.48307 12.4507H187.395C193.936 12.4507 199.238 17.7529 199.238 24.2935V272.385C199.238 274.309 197.679 275.868 195.755 275.868H22.2923C9.98054 275.868 -0.00012207 265.888 -0.00012207 253.576V15.9339Z" fill="#EEEEEE"/>
<path d="M187.257 3.98926L197.495 18.0576L187.257 13.7927V3.98926Z" fill="#EEEEEE"/>
<path d="M0 6.96637C0 3.11894 3.11895 0 6.96637 0H182.519C186.366 0 189.485 3.11895 189.485 6.96637V254.969C189.485 258.817 186.366 261.936 182.519 261.936H5.5731C2.49517 261.936 0 259.44 0 256.363V6.96637Z" fill="#FF6228"/>
<rect opacity="0.85" x="4.17896" y="6.26953" width="180.429" height="250.789" rx="4.87646" fill="url(#paint0_linear_72_19851)"/>
<path d="M8.70361 276.329C1.37424 270.788 0.0129395 261.092 0.0129395 255.408L5.22404 261.588C6.61732 273.57 16.9508 276.101 21.9433 275.869V279.352H21.3107C16.8823 279.352 12.236 279 8.70361 276.329Z" fill="#FF6228"/>
<rect x="42.1466" y="34.832" width="103.799" height="35.5285" rx="3.48319" fill="white"/>
<rect x="48.0683" y="40.0568" width="93.3494" height="25.0789" rx="1.74159" stroke="#FF6228" stroke-width="0.696637"/>
<g opacity="0.3">
<path d="M109.554 139.097C112.373 140.203 114.626 141.159 116.665 142.534C118.101 143.5 119.478 144.338 120.49 145.321C121.501 146.304 123.125 145.697 123.002 144.225C122.921 143.243 123.098 142.749 123.098 140.778C123.098 136.578 122.889 136.975 122.926 131.895C122.942 130.133 121.119 128.211 119.355 128.211C113.879 128.211 114.18 128.211 109.344 128.211C105.412 128.211 104.874 128.023 101.862 127.91C96.736 127.722 95.9399 128.173 95.5849 133.517C95.5311 134.333 95.3805 134.752 95.5957 135.375C95.8108 135.998 96.4187 136.39 97.0749 136.406C99.1619 136.454 100.878 136.97 102.691 137.265C105.1 137.663 107.521 138.286 109.559 139.086L109.554 139.097Z" fill="#FFD2B9"/>
<g opacity="0.51">
<path d="M96.123 147.651C93.7777 149.069 96.1283 149.992 96.1283 152.731C96.1283 155.202 97.8873 156.791 100.362 156.791C104.853 156.791 104.853 157.64 109.344 157.64C113.836 157.64 113.836 157.092 118.327 157.092C120.753 157.092 122.458 155.744 122.539 153.338C119.559 151.63 119.527 151.77 116.16 151.067C112.792 150.363 112.712 150.766 109.35 150.062C105.988 149.359 105.644 150.336 102.465 149.037C99.2858 147.737 99.0706 145.873 96.1283 147.651H96.123Z" fill="#FFD2B9"/>
</g>
<path d="M129.478 167.04C128.94 164.409 128.177 161.782 127.085 159.403C125.993 157.024 124.788 154.489 123.174 152.406C121.56 150.322 119.398 148.577 117.343 146.896C115.289 145.215 112.755 144.307 110.361 143.131C107.968 141.955 105.746 141.004 103.127 140.397C100.507 139.791 97.8931 139.597 95.1767 139.597C92.4603 139.597 89.561 139.366 86.9254 140.005C84.2897 140.645 81.4603 141.434 79.029 142.685C76.5977 143.937 74.3977 145.811 72.3161 147.61C70.2344 149.409 68.2066 151.38 66.5983 153.63C64.9899 155.88 63.6237 158.335 62.5802 160.912C62.5694 160.939 62.4242 160.875 62.408 160.902C61.4291 162.846 60.9288 165.3 60.3318 167.813C59.8046 170.037 60.0144 172.507 59.7293 174.951C59.4442 177.394 58.8902 179.526 58.7826 181.9C58.675 184.274 58.3469 186.841 58.3577 189.118C58.3738 191.749 58.6374 194.263 58.7396 196.357C58.944 200.659 58.078 202.694 60.3318 203.188C63.5161 203.887 63.5376 203.382 67.8838 203.382C72.23 203.382 72.2246 203.258 76.5709 203.258C79.7982 203.258 79.7982 203.092 83.0256 203.092C86.253 203.092 86.7963 203.231 89.8461 203.237C90.3356 203.237 90.739 202.829 90.739 202.34C90.739 197.254 90.8359 198.065 90.8359 193.232C90.8359 188.398 90.8036 188.898 91.0833 184.172C91.1747 182.652 92.0246 181.691 92.7884 181.084C95.6554 178.801 99.4691 180.59 99.6896 183.635C100.018 188.119 99.8134 189.204 99.8134 193.699C99.8134 198.194 99.6735 197.737 99.6735 202.141C99.6735 202.646 100.088 203.06 100.593 203.06C104.235 203.06 103.772 203.092 107.177 203.092C110.582 203.092 110.48 203.516 113.788 203.516C118.053 203.516 118.053 203.366 122.319 203.366C126.246 203.366 126.558 203.452 129.914 203.468C130.468 203.468 130.947 203.086 131.054 202.544C131.291 201.368 131.657 199.128 131.77 196.218C131.856 194.075 131.786 191.556 131.781 188.876C131.781 186.54 131.802 184.043 131.678 181.53C131.555 179.016 131.194 176.616 130.904 174.22C130.597 171.702 130.032 169.306 129.484 167.051L129.478 167.04Z" fill="#FFD2B9"/>
</g>
<defs>
<linearGradient id="paint0_linear_72_19851" x1="104.862" y1="127.646" x2="152.096" y2="296.596" gradientUnits="userSpaceOnUse">
<stop stop-color="#FFD2B9" stop-opacity="0"/>
<stop offset="1" stop-color="#FFD2B9" stop-opacity="0.33"/>
</linearGradient>
</defs>
</svg>
