<svg width="203" height="280" viewBox="0 0 203 280" fill="none" xmlns="http://www.w3.org/2000/svg">
<path d="M8.36014 24.3819C8.36014 20.5345 11.4791 17.4155 15.3265 17.4155H195.756C199.603 17.4155 202.722 20.5345 202.722 24.3819V272.385C202.722 276.232 199.603 279.351 195.756 279.351H20.203C13.6624 279.351 8.36014 274.049 8.36014 267.508V24.3819Z" fill="#FF6228"/>
<path d="M-6.10352e-05 15.9339C-6.10352e-05 14.0102 1.55942 12.4507 3.48313 12.4507H187.395C193.936 12.4507 199.238 17.7529 199.238 24.2935V272.385C199.238 274.309 197.679 275.868 195.755 275.868H22.2923C9.9806 275.868 -6.10352e-05 265.888 -6.10352e-05 253.576V15.9339Z" fill="#EEEEEE"/>
<path d="M187.257 3.98926L197.495 18.0576L187.257 13.7927V3.98926Z" fill="#EEEEEE"/>
<path d="M0 6.96637C0 3.11894 3.11895 0 6.96637 0H182.519C186.366 0 189.485 3.11895 189.485 6.96637V254.969C189.485 258.817 186.366 261.936 182.519 261.936H5.5731C2.49517 261.936 0 259.44 0 256.363V6.96637Z" fill="#FF6228"/>
<rect opacity="0.85" x="4.17892" y="6.26953" width="180.429" height="250.789" rx="4.87646" fill="url(#paint0_linear_1_2662)"/>
<path d="M8.70364 276.329C1.37427 270.788 0.01297 261.092 0.01297 255.408L5.22407 261.588C6.61735 273.57 16.9508 276.101 21.9434 275.869V279.352H21.3107C16.8824 279.352 12.236 279 8.70364 276.329Z" fill="#FF6228"/>
<rect x="42.1465" y="34.832" width="103.799" height="35.5285" rx="3.48319" fill="white"/>
<rect x="48.0684" y="40.0568" width="93.3494" height="25.0789" rx="1.74159" stroke="#FF6228" stroke-width="0.696637"/>
<defs>
<linearGradient id="paint0_linear_1_2662" x1="104.862" y1="127.646" x2="152.096" y2="296.596" gradientUnits="userSpaceOnUse">
<stop stop-color="#FFD2B9" stop-opacity="0"/>
<stop offset="1" stop-color="#FFD2B9" stop-opacity="0.33"/>
</linearGradient>
</defs>
</svg>
