<svg width="31" height="31" viewBox="0 0 31 31" fill="none" xmlns="http://www.w3.org/2000/svg">
<circle cx="15.5" cy="15.5" r="15.5" fill="#FFD0B6"/>
<path d="M15.1406 21.368C13.8766 21.368 12.7246 21.16 11.8926 20.6C11.5886 20.376 11.2526 19.256 11.6526 18.744C12.0526 18.232 12.5006 18.2 12.9006 18.472C13.3006 18.744 13.9566 19.16 15.0446 19.16C16.1326 19.16 17.2366 18.728 17.2366 17.416C17.2366 16.76 16.8366 15.992 15.3806 15.992C13.9246 15.992 13.7326 16.088 13.0606 16.168C12.3886 16.248 12.0526 15.96 11.8926 15.416C11.7326 14.872 11.7006 14.296 11.7006 13.352C11.7006 12.408 11.7646 11.224 11.7646 10.616C11.7646 10.104 11.9566 9.8 12.6766 9.816C13.1726 9.832 13.4766 9.912 13.6526 10.168C15.3966 10.152 17.8126 10.024 18.5646 10.072C19.1406 10.12 19.3326 10.44 19.3326 10.808C19.3326 11.176 19.2366 11.672 18.9806 11.864C18.7246 12.056 18.3886 12.216 17.5246 12.2C16.7566 12.184 15.0126 12.184 13.7966 12.184C13.7966 12.952 13.7806 13.704 13.7806 13.848C13.7806 14.056 13.7646 14.136 14.1326 14.056C14.5806 13.96 15.1886 13.928 16.1646 13.928C17.5726 13.928 19.3806 14.936 19.3806 17.336C19.3806 19.64 18.2926 21.368 15.1406 21.368Z" fill="white"/>
</svg>
