<svg width="36" height="36" viewBox="0 0 36 36" fill="none" xmlns="http://www.w3.org/2000/svg">
<g id="vuesax/linear/trash">
<g id="trash">
<path id="Vector" d="M31.5 8.97C26.505 8.475 21.48 8.22 16.47 8.22C13.5 8.22 10.53 8.37 7.56 8.67L4.5 8.97" stroke="white" stroke-width="2" stroke-linecap="round" stroke-linejoin="round"/>
<path id="Vector_2" d="M12.75 7.455L13.08 5.49C13.32 4.065 13.5 3 16.035 3H19.965C22.5 3 22.695 4.125 22.92 5.505L23.25 7.455" stroke="white" stroke-width="2" stroke-linecap="round" stroke-linejoin="round"/>
<path id="Vector_3" d="M28.2746 13.71L27.2996 28.815C27.1346 31.17 26.9996 33 22.8146 33H13.1846C8.99961 33 8.86461 31.17 8.69961 28.815L7.72461 13.71" stroke="white" stroke-width="2" stroke-linecap="round" stroke-linejoin="round"/>
<path id="Vector_4" d="M15.4951 24.75H20.4901" stroke="white" stroke-width="2" stroke-linecap="round" stroke-linejoin="round"/>
<path id="Vector_5" d="M14.25 18.75H21.75" stroke="white" stroke-width="2" stroke-linecap="round" stroke-linejoin="round"/>
</g>
</g>
</svg>
