<svg width="52" height="38" viewBox="0 0 52 38" fill="none" xmlns="http://www.w3.org/2000/svg">
<rect x="0.75" y="0.75" width="50.5" height="36.5" rx="18.25" fill="white"/>
<rect x="0.75" y="0.75" width="50.5" height="36.5" rx="18.25" stroke="#EEEEEE" stroke-width="1.5"/>
<path d="M24.1562 12.3438V20.5469H22.6719V19.875H19.9375V18.9375H22.6719V12.3438H24.1562ZM12.4844 17.5C15.1875 17.5156 18.625 17.4844 21.6406 17.1562L21.7188 18.1094C20.3984 18.2891 19.0312 18.3984 17.6875 18.4688V20.5781H16.2188V18.5312C14.9531 18.5625 13.75 18.5703 12.6562 18.5625L12.4844 17.5ZM24.1562 21.0156V24.0312H16.0938V25.1094H24.5781V26.1875H14.6406V23.0469H22.6875V22.0469H14.5781V21.0156H24.1562ZM17.0312 12.5781C19.1094 12.5781 20.5156 13.4062 20.5312 14.6875C20.5156 16 19.1094 16.7812 17.0312 16.7812C14.9062 16.7812 13.5156 16 13.5312 14.6875C13.5156 13.4062 14.9062 12.5781 17.0312 12.5781ZM17.0312 13.5781C15.7344 13.5781 14.9219 14.0156 14.9219 14.6875C14.9219 15.3594 15.7344 15.7812 17.0312 15.7812C18.2969 15.7812 19.125 15.3594 19.125 14.6875C19.125 14.0156 18.2969 13.5781 17.0312 13.5781ZM30.2894 16.1562C30.2894 18.3906 31.2269 20.7812 33.1019 21.9219L32.2738 23.0625C30.9613 22.2734 30.0706 20.875 29.6019 19.25C29.0784 21.0312 28.1175 22.5469 26.7581 23.375L25.8363 22.2656C27.8206 21.0781 28.8519 18.6094 28.8519 16.2188V13.6094H30.2894V16.1562ZM38.0706 12.3281V26.3281H36.6488V12.3281H38.0706ZM35.1644 12.5938V25.6406H33.7581V18.4844H31.5863V17.25H33.7581V12.5938H35.1644Z" fill="#363636"/>
</svg>
