<svg width="82" height="38" viewBox="0 0 82 38" fill="none" xmlns="http://www.w3.org/2000/svg">
<rect x="0.75" y="0.75" width="80.5" height="36.5" rx="18.25" fill="white"/>
<rect x="0.75" y="0.75" width="80.5" height="36.5" rx="18.25" stroke="#EEEEEE" stroke-width="1.5"/>
<path d="M23.5156 12.3125V16.375H25.5625V17.6094H23.5156V22.4531H22.0312V12.3125H23.5156ZM13.1406 20.0312V13.5156H19.3906V14.7188H14.6094V18.7969C17.3359 18.8047 18.8672 18.7188 20.625 18.3594L20.7969 19.5625C18.9062 19.9375 17.25 20.0312 14.25 20.0312H13.1406ZM14.6406 26.0312V21.4062H16.125V24.8281H24.1094V26.0312H14.6406ZM38.7894 19.2344V20.4375H26.0238V19.2344H31.6644V17.7031H27.6175V12.8906H37.2269V14.0781H29.1019V16.4844H37.3675V17.7031H33.1488V19.2344H38.7894ZM27.4456 22.875V21.6719H37.2425V26.4062H35.7738V22.875H27.4456ZM55.8838 20.2188V21.4219H50.1963V26.3125H48.7431V21.4219H43.1181V20.2188H55.8838ZM43.8369 17.9844C46.4463 17.625 48.6181 16.0703 48.665 14.3438H44.3056V13.1562H54.6806V14.3438H50.3525C50.3759 16.0703 52.5322 17.625 55.1806 17.9844L54.6338 19.1562C52.3369 18.7969 50.3525 17.6641 49.5009 16.0703C48.6416 17.6641 46.665 18.7969 44.3994 19.1562L43.8369 17.9844ZM62.6731 13.3281V14.5312H58.6263V16.0938H62.5169V17.2344H58.6263V18.9375C60.5013 18.9219 61.7278 18.8516 63.1731 18.5781L63.3138 19.7969C61.6731 20.1016 60.3372 20.1641 58.1106 20.1562H57.2044V13.3281H62.6731ZM59.0481 22.7188V21.5156H68.5638V26.3281H67.095V22.7188H59.0481ZM64.0481 20.7344V12.5938H65.4388V15.9062H67.1575V12.3438H68.5638V20.8438H67.1575V17.1094H65.4388V20.7344H64.0481Z" fill="#363636"/>
</svg>
