<svg width="21" height="20" viewBox="0 0 21 20" fill="none" xmlns="http://www.w3.org/2000/svg">
<path d="M13.0003 18.9583H8.00033C3.47533 18.9583 1.54199 17.025 1.54199 12.5V7.49999C1.54199 2.97499 3.47533 1.04166 8.00033 1.04166H13.0003C17.5253 1.04166 19.4587 2.97499 19.4587 7.49999V12.5C19.4587 17.025 17.5253 18.9583 13.0003 18.9583ZM8.00033 2.29166C4.15866 2.29166 2.79199 3.65832 2.79199 7.49999V12.5C2.79199 16.3417 4.15866 17.7083 8.00033 17.7083H13.0003C16.842 17.7083 18.2087 16.3417 18.2087 12.5V7.49999C18.2087 3.65832 16.842 2.29166 13.0003 2.29166H8.00033Z" fill="#C5C5CA"/>
</svg>
