<svg width="31" height="31" viewBox="0 0 31 31" fill="none" xmlns="http://www.w3.org/2000/svg">
<circle cx="15.5" cy="15.5" r="15.5" fill="#FFD5B6" fill-opacity="0.2"/>
<path d="M15.856 21.464C15.168 21.464 14.704 21.112 14.784 19.848C14.864 18.504 14.896 15.624 14.752 13.464C14.736 13.224 14.64 13.128 14.448 13.288C14.256 13.448 13.936 13.64 13.632 13.816C13.328 13.992 12.976 13.88 12.832 13.544C12.688 13.208 12.608 12.84 12.992 12.312C13.616 11.448 14.736 10.552 15.936 10.056C16.544 9.8 17.168 10.168 17.12 11.192C16.992 14.28 16.88 17.72 16.992 19.848C17.056 20.968 16.464 21.464 15.856 21.464Z" fill="white"/>
</svg>
