<svg width="48" height="48" viewBox="0 0 48 48" fill="none" xmlns="http://www.w3.org/2000/svg">
<rect width="48" height="48" rx="24" fill="#1A1A1A"/>
<path d="M18.4539 35.483C17.9198 35.129 17.4465 34.6916 17.0521 34.1876C16.6183 33.6674 16.2163 33.1216 15.8484 32.5532C14.9851 31.2931 14.308 29.9159 13.838 28.4638C13.2734 26.7771 13 25.1604 13 23.5791C13 21.8131 13.3835 20.2714 14.1334 18.976C14.6894 17.9635 15.5068 17.1174 16.501 16.5253C17.4646 15.929 18.5717 15.6027 19.7058 15.5807C20.1028 15.5807 20.5303 15.638 20.984 15.7477C21.3099 15.8396 21.7069 15.9847 22.1919 16.1651C22.809 16.4021 23.1484 16.5472 23.2636 16.5826C23.625 16.7142 23.9289 16.7715 24.1676 16.7715C24.3487 16.7715 24.6044 16.7142 24.8947 16.6265C25.0581 16.5691 25.3662 16.4679 25.8072 16.2798C26.244 16.1213 26.5877 15.9855 26.8611 15.8843C27.2801 15.7612 27.6856 15.6473 28.047 15.59C28.4755 15.5227 28.9104 15.5048 29.343 15.5368C30.0926 15.5857 30.831 15.7439 31.5345 16.0066C32.6849 16.4679 33.6152 17.1881 34.3076 18.212C34.0149 18.3917 33.7402 18.599 33.4873 18.831C32.9368 19.3172 32.4679 19.8881 32.0983 20.5219C31.6152 21.3881 31.3647 22.3638 31.3711 23.3547C31.3889 24.5717 31.7021 25.6436 32.3192 26.5705C32.7729 27.2574 33.3625 27.8448 34.0519 28.2968C34.4049 28.5338 34.7088 28.6965 35 28.8062C34.8637 29.2279 34.7181 29.636 34.5463 30.0409C34.1566 30.9486 33.6842 31.819 33.1352 32.6409C32.6459 33.3485 32.2625 33.8756 31.9713 34.2264C31.5176 34.762 31.0808 35.171 30.6398 35.456C30.1548 35.7765 29.5817 35.9477 28.9993 35.9477C28.6049 35.9628 28.2106 35.9153 27.8312 35.8069C27.5053 35.6972 27.1828 35.5783 26.8653 35.4425C26.5353 35.2915 26.195 35.1639 25.847 35.0605C24.9867 34.8404 24.0848 34.8389 23.2238 35.0563C22.8708 35.1575 22.5314 35.2756 22.1962 35.4206C21.7247 35.618 21.4115 35.7504 21.2303 35.8069C20.8689 35.9123 20.4939 35.9781 20.1147 36C19.528 36 18.9812 35.833 18.4395 35.4948L18.4539 35.483ZM26.1907 14.7238C25.4238 15.1059 24.6916 15.2687 23.9644 15.2155C23.8502 14.486 23.9644 13.7397 24.2683 12.9224C24.527 12.2301 24.9093 11.5901 25.3967 11.0333C25.9114 10.4472 26.5359 9.9668 27.2352 9.61902C27.9801 9.23698 28.6903 9.03036 29.3692 9C29.4573 9.76408 29.3692 10.5155 29.0873 11.3277C28.8265 12.0456 28.4449 12.7141 27.959 13.3045C27.463 13.8914 26.8543 14.3737 26.1687 14.723L26.1907 14.7238Z" fill="white"/>
</svg>
