<svg width="69" height="69" viewBox="0 0 69 69" fill="none" xmlns="http://www.w3.org/2000/svg">
<g filter="url(#filter0_d_67_19820)">
<rect x="17" y="16" width="36" height="33" fill="white"/>
<path d="M34.4997 2.58398C19.1176 2.58398 6.58301 15.1186 6.58301 30.5006C6.58301 45.8827 19.1176 58.4173 34.4997 58.4173C49.8818 58.4173 62.4163 45.8827 62.4163 30.5006C62.4163 15.1186 49.8818 2.58398 34.4997 2.58398ZM47.8438 24.0798L32.0151 39.9086C31.6243 40.2994 31.0938 40.5227 30.5355 40.5227C29.9772 40.5227 29.4468 40.2994 29.0559 39.9086L21.1555 32.0081C20.3459 31.1986 20.3459 29.8586 21.1555 29.049C21.9651 28.2394 23.3051 28.2394 24.1147 29.049L30.5355 35.4698L44.8847 21.1207C45.6943 20.3111 47.0343 20.3111 47.8438 21.1207C48.6534 21.9302 48.6534 23.2423 47.8438 24.0798Z" fill="#4A4A4A"/>
<rect x="14" y="12" width="39" height="32" fill="#4A4A4A"/>
<path d="M26.3866 40.0254C25.5733 40.0254 24.8133 39.7454 24.2666 39.2254C23.5733 38.5721 23.24 37.5854 23.36 36.5188L23.8533 32.1988C23.9466 31.3854 24.44 30.3054 25.0133 29.7188L35.96 18.1321C38.6933 15.2388 41.5466 15.1588 44.44 17.8921C47.3333 20.6254 47.4133 23.4788 44.68 26.3721L33.7333 37.9588C33.1733 38.5588 32.1333 39.1188 31.32 39.2521L27.0266 39.9854C26.8 39.9988 26.6 40.0254 26.3866 40.0254ZM40.24 17.8788C39.2133 17.8788 38.32 18.5188 37.4133 19.4788L26.4666 31.0788C26.2 31.3588 25.8933 32.0254 25.84 32.4121L25.3466 36.7321C25.2933 37.1721 25.4 37.5321 25.64 37.7588C25.88 37.9854 26.24 38.0654 26.68 37.9988L30.9733 37.2654C31.36 37.1988 32 36.8521 32.2666 36.5721L43.2133 24.9854C44.8666 23.2254 45.4666 21.5988 43.0533 19.3321C41.9866 18.3054 41.0666 17.8788 40.24 17.8788Z" fill="#EEEEEE"/>
<path d="M42.1199 28.6005C42.0933 28.6005 42.0533 28.6005 42.0266 28.6005C37.8666 28.1871 34.5199 25.0271 33.8799 20.8938C33.7999 20.3471 34.1733 19.8405 34.7199 19.7471C35.2666 19.6671 35.7733 20.0405 35.8666 20.5871C36.3733 23.8138 38.9866 26.2938 42.2399 26.6138C42.7866 26.6671 43.1866 27.1605 43.1333 27.7071C43.0666 28.2138 42.6266 28.6005 42.1199 28.6005Z" fill="#EEEEEE"/>
<path d="M47 44.334H23C22.4533 44.334 22 43.8807 22 43.334C22 42.7873 22.4533 42.334 23 42.334H47C47.5467 42.334 48 42.7873 48 43.334C48 43.8807 47.5467 44.334 47 44.334Z" fill="#EEEEEE"/>
</g>
<defs>
<filter id="filter0_d_67_19820" x="0" y="0" width="69" height="69" filterUnits="userSpaceOnUse" color-interpolation-filters="sRGB">
<feFlood flood-opacity="0" result="BackgroundImageFix"/>
<feColorMatrix in="SourceAlpha" type="matrix" values="0 0 0 0 0 0 0 0 0 0 0 0 0 0 0 0 0 0 127 0" result="hardAlpha"/>
<feOffset dy="4"/>
<feGaussianBlur stdDeviation="3"/>
<feComposite in2="hardAlpha" operator="out"/>
<feColorMatrix type="matrix" values="0 0 0 0 0 0 0 0 0 0 0 0 0 0 0 0 0 0 0.13 0"/>
<feBlend mode="normal" in2="BackgroundImageFix" result="effect1_dropShadow_67_19820"/>
<feBlend mode="normal" in="SourceGraphic" in2="effect1_dropShadow_67_19820" result="shape"/>
</filter>
</defs>
</svg>
