<svg width="342" height="46" viewBox="0 0 342 46" fill="none" xmlns="http://www.w3.org/2000/svg">
<path fill-rule="evenodd" clip-rule="evenodd" d="M1 24C1.55228 24 2 23.5523 2 23C2 22.4477 1.55228 22 1 22C0.447715 22 0 22.4477 0 23C0 23.5523 0.447715 24 1 24ZM9 24C9.55229 24 10 23.5523 10 23C10 22.4477 9.55229 22 9 22C8.44771 22 8 22.4477 8 23C8 23.5523 8.44771 24 9 24ZM6 23C6 23.5523 5.55228 24 5 24C4.44772 24 4 23.5523 4 23C4 22.4477 4.44772 22 5 22C5.55228 22 6 22.4477 6 23ZM13 24C13.5523 24 14 23.5523 14 23C14 22.4477 13.5523 22 13 22C12.4477 22 12 22.4477 12 23C12 23.5523 12.4477 24 13 24ZM18 23C18 23.5523 17.5523 24 17 24C16.4477 24 16 23.5523 16 23C16 22.4477 16.4477 22 17 22C17.5523 22 18 22.4477 18 23ZM25 24C25.5523 24 26 23.5523 26 23C26 22.4477 25.5523 22 25 22C24.4477 22 24 22.4477 24 23C24 23.5523 24.4477 24 25 24ZM22 23C22 23.5523 21.5523 24 21 24C20.4477 24 20 23.5523 20 23C20 22.4477 20.4477 22 21 22C21.5523 22 22 22.4477 22 23ZM29 24C29.5523 24 30 23.5523 30 23C30 22.4477 29.5523 22 29 22C28.4477 22 28 22.4477 28 23C28 23.5523 28.4477 24 29 24ZM34 23C34 23.5523 33.5523 24 33 24C32.4477 24 32 23.5523 32 23C32 22.4477 32.4477 22 33 22C33.5523 22 34 22.4477 34 23ZM41 24C41.5523 24 42 23.5523 42 23C42 22.4477 41.5523 22 41 22C40.4477 22 40 22.4477 40 23C40 23.5523 40.4477 24 41 24ZM38 23C38 23.5523 37.5523 24 37 24C36.4477 24 36 23.5523 36 23C36 22.4477 36.4477 22 37 22C37.5523 22 38 22.4477 38 23ZM45 24C45.5523 24 46 23.5523 46 23C46 22.4477 45.5523 22 45 22C44.4477 22 44 22.4477 44 23C44 23.5523 44.4477 24 45 24ZM50 23C50 23.5523 49.5523 24 49 24C48.4477 24 48 23.5523 48 23C48 22.4477 48.4477 22 49 22C49.5523 22 50 22.4477 50 23ZM57 24C57.5523 24 58 23.5523 58 23C58 22.4477 57.5523 22 57 22C56.4477 22 56 22.4477 56 23C56 23.5523 56.4477 24 57 24ZM54 23C54 23.5523 53.5523 24 53 24C52.4477 24 52 23.5523 52 23C52 22.4477 52.4477 22 53 22C53.5523 22 54 22.4477 54 23ZM61 24C61.5523 24 62 23.5523 62 23C62 22.4477 61.5523 22 61 22C60.4477 22 60 22.4477 60 23C60 23.5523 60.4477 24 61 24ZM66 23C66 23.5523 65.5523 24 65 24C64.4477 24 64 23.5523 64 23C64 22.4477 64.4477 22 65 22C65.5523 22 66 22.4477 66 23ZM73 24C73.5523 24 74 23.5523 74 23C74 22.4477 73.5523 22 73 22C72.4477 22 72 22.4477 72 23C72 23.5523 72.4477 24 73 24ZM70 23C70 23.5523 69.5523 24 69 24C68.4477 24 68 23.5523 68 23C68 22.4477 68.4477 22 69 22C69.5523 22 70 22.4477 70 23ZM77 24C77.5523 24 78 23.5523 78 23C78 22.4477 77.5523 22 77 22C76.4477 22 76 22.4477 76 23C76 23.5523 76.4477 24 77 24ZM82 23C82 23.5523 81.5523 24 81 24C80.4477 24 80 23.5523 80 23C80 22.4477 80.4477 22 81 22C81.5523 22 82 22.4477 82 23ZM89 24C89.5523 24 90 23.5523 90 23C90 22.4477 89.5523 22 89 22C88.4477 22 88 22.4477 88 23C88 23.5523 88.4477 24 89 24ZM86 23C86 23.5523 85.5523 24 85 24C84.4477 24 84 23.5523 84 23C84 22.4477 84.4477 22 85 22C85.5523 22 86 22.4477 86 23ZM93 24C93.5523 24 94 23.5523 94 23C94 22.4477 93.5523 22 93 22C92.4477 22 92 22.4477 92 23C92 23.5523 92.4477 24 93 24ZM98 23C98 23.5523 97.5523 24 97 24C96.4477 24 96 23.5523 96 23C96 22.4477 96.4477 22 97 22C97.5523 22 98 22.4477 98 23ZM105 24C105.552 24 106 23.5523 106 23C106 22.4477 105.552 22 105 22C104.448 22 104 22.4477 104 23C104 23.5523 104.448 24 105 24ZM102 23C102 23.5523 101.552 24 101 24C100.448 24 100 23.5523 100 23C100 22.4477 100.448 22 101 22C101.552 22 102 22.4477 102 23ZM109 24C109.552 24 110 23.5523 110 23C110 22.4477 109.552 22 109 22C108.448 22 108 22.4477 108 23C108 23.5523 108.448 24 109 24ZM114 23C114 23.5523 113.552 24 113 24C112.448 24 112 23.5523 112 23C112 22.4477 112.448 22 113 22C113.552 22 114 22.4477 114 23ZM121 24C121.552 24 122 23.5523 122 23C122 22.4477 121.552 22 121 22C120.448 22 120 22.4477 120 23C120 23.5523 120.448 24 121 24ZM118 23C118 23.5523 117.552 24 117 24C116.448 24 116 23.5523 116 23C116 22.4477 116.448 22 117 22C117.552 22 118 22.4477 118 23ZM125 24C125.552 24 126 23.5523 126 23C126 22.4477 125.552 22 125 22C124.448 22 124 22.4477 124 23C124 23.5523 124.448 24 125 24ZM130 23C130 23.5523 129.552 24 129 24C128.448 24 128 23.5523 128 23C128 22.4477 128.448 22 129 22C129.552 22 130 22.4477 130 23ZM137 24C137.552 24 138 23.5523 138 23C138 22.4477 137.552 22 137 22C136.448 22 136 22.4477 136 23C136 23.5523 136.448 24 137 24ZM134 23C134 23.5523 133.552 24 133 24C132.448 24 132 23.5523 132 23C132 22.4477 132.448 22 133 22C133.552 22 134 22.4477 134 23ZM141 24C141.552 24 142 23.5523 142 23C142 22.4477 141.552 22 141 22C140.448 22 140 22.4477 140 23C140 23.5523 140.448 24 141 24ZM146 23C146 23.5523 145.552 24 145 24C144.448 24 144 23.5523 144 23C144 22.4477 144.448 22 145 22C145.552 22 146 22.4477 146 23ZM153 24C153.552 24 154 23.5523 154 23C154 22.4477 153.552 22 153 22C152.448 22 152 22.4477 152 23C152 23.5523 152.448 24 153 24ZM150 23C150 23.5523 149.552 24 149 24C148.448 24 148 23.5523 148 23C148 22.4477 148.448 22 149 22C149.552 22 150 22.4477 150 23ZM157 24C157.552 24 158 23.5523 158 23C158 22.4477 157.552 22 157 22C156.448 22 156 22.4477 156 23C156 23.5523 156.448 24 157 24ZM162 23C162 23.5523 161.552 24 161 24C160.448 24 160 23.5523 160 23C160 22.4477 160.448 22 161 22C161.552 22 162 22.4477 162 23ZM169 24C169.552 24 170 23.5523 170 23C170 22.4477 169.552 22 169 22C168.448 22 168 22.4477 168 23C168 23.5523 168.448 24 169 24ZM166 23C166 23.5523 165.552 24 165 24C164.448 24 164 23.5523 164 23C164 22.4477 164.448 22 165 22C165.552 22 166 22.4477 166 23ZM173 24C173.552 24 174 23.5523 174 23C174 22.4477 173.552 22 173 22C172.448 22 172 22.4477 172 23C172 23.5523 172.448 24 173 24ZM178 23C178 23.5523 177.552 24 177 24C176.448 24 176 23.5523 176 23C176 22.4477 176.448 22 177 22C177.552 22 178 22.4477 178 23ZM185 24C185.552 24 186 23.5523 186 23C186 22.4477 185.552 22 185 22C184.448 22 184 22.4477 184 23C184 23.5523 184.448 24 185 24ZM182 23C182 23.5523 181.552 24 181 24C180.448 24 180 23.5523 180 23C180 22.4477 180.448 22 181 22C181.552 22 182 22.4477 182 23ZM189 24C189.552 24 190 23.5523 190 23C190 22.4477 189.552 22 189 22C188.448 22 188 22.4477 188 23C188 23.5523 188.448 24 189 24ZM194 23C194 23.5523 193.552 24 193 24C192.448 24 192 23.5523 192 23C192 22.4477 192.448 22 193 22C193.552 22 194 22.4477 194 23ZM201 24C201.552 24 202 23.5523 202 23C202 22.4477 201.552 22 201 22C200.448 22 200 22.4477 200 23C200 23.5523 200.448 24 201 24ZM198 23C198 23.5523 197.552 24 197 24C196.448 24 196 23.5523 196 23C196 22.4477 196.448 22 197 22C197.552 22 198 22.4477 198 23ZM205 24C205.552 24 206 23.5523 206 23C206 22.4477 205.552 22 205 22C204.448 22 204 22.4477 204 23C204 23.5523 204.448 24 205 24ZM210 23C210 23.5523 209.552 24 209 24C208.448 24 208 23.5523 208 23C208 22.4477 208.448 22 209 22C209.552 22 210 22.4477 210 23ZM217 24C217.552 24 218 23.5523 218 23C218 22.4477 217.552 22 217 22C216.448 22 216 22.4477 216 23C216 23.5523 216.448 24 217 24ZM214 23C214 23.5523 213.552 24 213 24C212.448 24 212 23.5523 212 23C212 22.4477 212.448 22 213 22C213.552 22 214 22.4477 214 23ZM221 24C221.552 24 222 23.5523 222 23C222 22.4477 221.552 22 221 22C220.448 22 220 22.4477 220 23C220 23.5523 220.448 24 221 24ZM226 23C226 23.5523 225.552 24 225 24C224.448 24 224 23.5523 224 23C224 22.4477 224.448 22 225 22C225.552 22 226 22.4477 226 23ZM233 24C233.552 24 234 23.5523 234 23C234 22.4477 233.552 22 233 22C232.448 22 232 22.4477 232 23C232 23.5523 232.448 24 233 24ZM230 23C230 23.5523 229.552 24 229 24C228.448 24 228 23.5523 228 23C228 22.4477 228.448 22 229 22C229.552 22 230 22.4477 230 23ZM237 24C237.552 24 238 23.5523 238 23C238 22.4477 237.552 22 237 22C236.448 22 236 22.4477 236 23C236 23.5523 236.448 24 237 24ZM242 23C242 23.5523 241.552 24 241 24C240.448 24 240 23.5523 240 23C240 22.4477 240.448 22 241 22C241.552 22 242 22.4477 242 23ZM249 24C249.552 24 250 23.5523 250 23C250 22.4477 249.552 22 249 22C248.448 22 248 22.4477 248 23C248 23.5523 248.448 24 249 24ZM246 23C246 23.5523 245.552 24 245 24C244.448 24 244 23.5523 244 23C244 22.4477 244.448 22 245 22C245.552 22 246 22.4477 246 23ZM253 24C253.552 24 254 23.5523 254 23C254 22.4477 253.552 22 253 22C252.448 22 252 22.4477 252 23C252 23.5523 252.448 24 253 24ZM258 23C258 23.5523 257.552 24 257 24C256.448 24 256 23.5523 256 23C256 22.4477 256.448 22 257 22C257.552 22 258 22.4477 258 23ZM265 24C265.552 24 266 23.5523 266 23C266 22.4477 265.552 22 265 22C264.448 22 264 22.4477 264 23C264 23.5523 264.448 24 265 24ZM262 23C262 23.5523 261.552 24 261 24C260.448 24 260 23.5523 260 23C260 22.4477 260.448 22 261 22C261.552 22 262 22.4477 262 23ZM269 24C269.552 24 270 23.5523 270 23C270 22.4477 269.552 22 269 22C268.448 22 268 22.4477 268 23C268 23.5523 268.448 24 269 24ZM274 23C274 23.5523 273.552 24 273 24C272.448 24 272 23.5523 272 23C272 22.4477 272.448 22 273 22C273.552 22 274 22.4477 274 23ZM281 24C281.552 24 282 23.5523 282 23C282 22.4477 281.552 22 281 22C280.448 22 280 22.4477 280 23C280 23.5523 280.448 24 281 24ZM278 23C278 23.5523 277.552 24 277 24C276.448 24 276 23.5523 276 23C276 22.4477 276.448 22 277 22C277.552 22 278 22.4477 278 23ZM285 24C285.552 24 286 23.5523 286 23C286 22.4477 285.552 22 285 22C284.448 22 284 22.4477 284 23C284 23.5523 284.448 24 285 24ZM290 23C290 23.5523 289.552 24 289 24C288.448 24 288 23.5523 288 23C288 22.4477 288.448 22 289 22C289.552 22 290 22.4477 290 23ZM297 24C297.552 24 298 23.5523 298 23C298 22.4477 297.552 22 297 22C296.448 22 296 22.4477 296 23C296 23.5523 296.448 24 297 24ZM294 23C294 23.5523 293.552 24 293 24C292.448 24 292 23.5523 292 23C292 22.4477 292.448 22 293 22C293.552 22 294 22.4477 294 23ZM301 24C301.552 24 302 23.5523 302 23C302 22.4477 301.552 22 301 22C300.448 22 300 22.4477 300 23C300 23.5523 300.448 24 301 24ZM306 23C306 23.5523 305.552 24 305 24C304.448 24 304 23.5523 304 23C304 22.4477 304.448 22 305 22C305.552 22 306 22.4477 306 23ZM313 24C313.552 24 314 23.5523 314 23C314 22.4477 313.552 22 313 22C312.448 22 312 22.4477 312 23C312 23.5523 312.448 24 313 24ZM310 23C310 23.5523 309.552 24 309 24C308.448 24 308 23.5523 308 23C308 22.4477 308.448 22 309 22C309.552 22 310 22.4477 310 23ZM317 24C317.552 24 318 23.5523 318 23C318 22.4477 317.552 22 317 22C316.448 22 316 22.4477 316 23C316 23.5523 316.448 24 317 24ZM322 23C322 23.5523 321.552 24 321 24C320.448 24 320 23.5523 320 23C320 22.4477 320.448 22 321 22C321.552 22 322 22.4477 322 23ZM329 24C329.552 24 330 23.5523 330 23C330 22.4477 329.552 22 329 22C328.448 22 328 22.4477 328 23C328 23.5523 328.448 24 329 24ZM326 23C326 23.5523 325.552 24 325 24C324.448 24 324 23.5523 324 23C324 22.4477 324.448 22 325 22C325.552 22 326 22.4477 326 23ZM333 24C333.552 24 334 23.5523 334 23C334 22.4477 333.552 22 333 22C332.448 22 332 22.4477 332 23C332 23.5523 332.448 24 333 24ZM338 23C338 23.5523 337.552 24 337 24C336.448 24 336 23.5523 336 23C336 22.4477 336.448 22 337 22C337.552 22 338 22.4477 338 23ZM341 24C341.552 24 342 23.5523 342 23C342 22.4477 341.552 22 341 22C340.448 22 340 22.4477 340 23C340 23.5523 340.448 24 341 24Z" fill="#4A4A4A"/>
<path fill-rule="evenodd" clip-rule="evenodd" d="M105 0C104.448 0 104 0.447715 104 1V45C104 45.5523 104.448 46 105 46C105.552 46 106 45.5523 106 45V1C106 0.447715 105.552 0 105 0ZM100 9C100 8.44772 100.448 8 101 8C101.552 8 102 8.44772 102 9V37C102 37.5523 101.552 38 101 38C100.448 38 100 37.5523 100 37V9ZM93 11C92.4477 11 92 11.4477 92 12V34C92 34.5523 92.4477 35 93 35C93.5523 35 94 34.5523 94 34V12C94 11.4477 93.5523 11 93 11ZM265 11C264.448 11 264 11.4477 264 12V34C264 34.5523 264.448 35 265 35C265.552 35 266 34.5523 266 34V12C266 11.4477 265.552 11 265 11ZM96 14C96 13.4477 96.4477 13 97 13C97.5523 13 98 13.4477 98 14V32C98 32.5523 97.5523 33 97 33C96.4477 33 96 32.5523 96 32V14ZM269 13C268.448 13 268 13.4477 268 14V32C268 32.5523 268.448 33 269 33C269.552 33 270 32.5523 270 32V14C270 13.4477 269.552 13 269 13ZM148 9C148 8.44772 148.448 8 149 8C149.552 8 150 8.44772 150 9V37C150 37.5523 149.552 38 149 38C148.448 38 148 37.5523 148 37V9ZM109 12C108.448 12 108 12.4477 108 13V33C108 33.5523 108.448 34 109 34C109.552 34 110 33.5523 110 33V13C110 12.4477 109.552 12 109 12ZM152 13C152 12.4477 152.448 12 153 12C153.552 12 154 12.4477 154 13V33C154 33.5523 153.552 34 153 34C152.448 34 152 33.5523 152 33V13ZM113 16C112.448 16 112 16.4477 112 17V29C112 29.5523 112.448 30 113 30C113.552 30 114 29.5523 114 29V17C114 16.4477 113.552 16 113 16ZM156 17C156 16.4477 156.448 16 157 16C157.552 16 158 16.4477 158 17V29C158 29.5523 157.552 30 157 30C156.448 30 156 29.5523 156 29V17ZM117 19C116.448 19 116 19.4477 116 20V26C116 26.5523 116.448 27 117 27C117.552 27 118 26.5523 118 26V20C118 19.4477 117.552 19 117 19ZM144 20C144 19.4477 144.448 19 145 19C145.552 19 146 19.4477 146 20V26C146 26.5523 145.552 27 145 27C144.448 27 144 26.5523 144 26V20ZM161 19C160.448 19 160 19.4477 160 20V26C160 26.5523 160.448 27 161 27C161.552 27 162 26.5523 162 26V20C162 19.4477 161.552 19 161 19ZM88 16C88 15.4477 88.4477 15 89 15C89.5523 15 90 15.4477 90 16V30C90 30.5523 89.5523 31 89 31C88.4477 31 88 30.5523 88 30V16ZM261 15C260.448 15 260 15.4477 260 16V30C260 30.5523 260.448 31 261 31C261.552 31 262 30.5523 262 30V16C262 15.4477 261.552 15 261 15ZM84 19C84 18.4477 84.4477 18 85 18C85.5523 18 86 18.4477 86 19V27C86 27.5523 85.5523 28 85 28C84.4477 28 84 27.5523 84 27V19ZM257 18C256.448 18 256 18.4477 256 19V27C256 27.5523 256.448 28 257 28C257.552 28 258 27.5523 258 27V19C258 18.4477 257.552 18 257 18Z" fill="#FF6228"/>
</svg>
