<svg width="31" height="31" viewBox="0 0 31 31" fill="none" xmlns="http://www.w3.org/2000/svg">
<circle cx="15.5" cy="15.5" r="15.5" fill="#EEEEEE"/>
<path d="M15.7646 21.496C15.0926 21.496 14.4472 21.3733 13.8286 21.128C13.2099 20.8933 12.6606 20.5413 12.1806 20.072C12.0739 19.9653 11.9939 19.832 11.9406 19.672C11.8872 19.512 11.8659 19.3467 11.8766 19.176C11.8979 18.9947 11.9512 18.8187 12.0366 18.648C12.1326 18.4773 12.2766 18.3333 12.4686 18.216C12.7352 18.0453 12.9752 17.9707 13.1886 17.992C13.4019 18.0133 13.6366 18.1733 13.8926 18.472C13.9566 18.536 14.0526 18.616 14.1806 18.712C14.3192 18.7973 14.4739 18.888 14.6446 18.984C14.8259 19.0693 15.0179 19.144 15.2206 19.208C15.4339 19.2613 15.6526 19.288 15.8766 19.288C17.1566 19.288 17.7966 18.7973 17.7966 17.816C17.7966 17.5067 17.7272 17.2507 17.5886 17.048C17.4606 16.8453 17.2419 16.6907 16.9326 16.584C16.6232 16.4773 16.2926 16.408 15.9406 16.376C15.5992 16.3333 15.2632 16.296 14.9326 16.264C14.7619 16.2427 14.5912 16.152 14.4206 15.992C14.2499 15.8213 14.1646 15.6187 14.1646 15.384C14.1646 15.224 14.2552 15.048 14.4366 14.856C14.6179 14.664 14.8526 14.52 15.1406 14.424C15.4499 14.3173 15.7326 14.216 15.9886 14.12C16.2552 14.024 16.4792 13.9173 16.6606 13.8C16.8526 13.672 17.0019 13.5387 17.1086 13.4C17.2152 13.2507 17.2686 13.0747 17.2686 12.872C17.2686 12.5307 17.1192 12.2693 16.8206 12.088C16.5326 11.896 16.1699 11.8 15.7326 11.8C15.2846 11.8 14.8952 11.8693 14.5646 12.008C14.2446 12.136 13.9566 12.4027 13.7006 12.808C13.5832 12.968 13.4072 13.0853 13.1726 13.16C12.9379 13.224 12.6979 13.192 12.4526 13.064C12.2072 12.936 12.0526 12.7333 11.9886 12.456C11.9246 12.1787 11.9672 11.9173 12.1166 11.672C12.2659 11.4267 12.4579 11.192 12.6926 10.968C12.9379 10.744 13.2259 10.552 13.5566 10.392C13.8979 10.2213 14.2819 10.088 14.7086 9.992C15.1459 9.896 15.6312 9.848 16.1646 9.848C16.6232 9.848 17.0499 9.90667 17.4446 10.024C17.8392 10.1307 18.1806 10.296 18.4686 10.52C18.7566 10.744 18.9806 11.0267 19.1406 11.368C19.3112 11.6987 19.3966 12.088 19.3966 12.536C19.3966 12.8133 19.3699 13.064 19.3166 13.288C19.2739 13.5013 19.1992 13.704 19.0926 13.896C18.9966 14.0773 18.8632 14.248 18.6926 14.408C18.5219 14.568 18.3139 14.728 18.0686 14.888C17.9619 14.9627 17.9672 15.0267 18.0846 15.08C18.7459 15.4 19.2259 15.7787 19.5246 16.216C19.8339 16.6427 19.9886 17.224 19.9886 17.96C19.9886 18.3547 19.9032 18.76 19.7326 19.176C19.5726 19.592 19.3219 19.976 18.9806 20.328C18.6392 20.6693 18.2019 20.9467 17.6686 21.16C17.1352 21.384 16.5006 21.496 15.7646 21.496Z" fill="white"/>
</svg>
