<svg width="36" height="36" viewBox="0 0 36 36" fill="none" xmlns="http://www.w3.org/2000/svg">
<path d="M13.6641 7.62001C14.9691 7.23001 16.4091 6.97501 17.9991 6.97501C25.1841 6.97501 31.0041 12.795 31.0041 19.98C31.0041 27.165 25.1841 32.985 17.9991 32.985C10.8141 32.985 4.99414 27.165 4.99414 19.98C4.99414 17.31 5.80414 14.82 7.18414 12.75" stroke="white" stroke-width="1.5" stroke-linecap="round" stroke-linejoin="round"/>
<path d="M11.8047 7.98L16.1397 3" stroke="white" stroke-width="1.5" stroke-linecap="round" stroke-linejoin="round"/>
<path d="M11.8047 7.98001L16.8597 11.67" stroke="white" stroke-width="1.5" stroke-linecap="round" stroke-linejoin="round"/>
<path d="M15.7969 16.5156V25H14.7305V17.6172H14.6836L12.6211 18.9883V17.9219L14.7305 16.5156H15.7969ZM20.8359 25.1172C18.9551 25.1172 17.8652 23.5352 17.8711 20.7578C17.8652 18.0039 18.9668 16.3984 20.8359 16.3984C22.6992 16.3984 23.8008 18.0039 23.8008 20.7578C23.8008 23.5352 22.7168 25.1172 20.8359 25.1172ZM18.8906 20.7578C18.8965 22.9551 19.6055 24.1797 20.8359 24.1797C22.0605 24.1797 22.7754 22.9551 22.7695 20.7578C22.7754 18.5605 22.0547 17.3184 20.8359 17.3125C19.6172 17.3184 18.8965 18.5605 18.8906 20.7578Z" fill="white"/>
</svg>
