<svg width="101" height="38" viewBox="0 0 101 38" fill="none" xmlns="http://www.w3.org/2000/svg">
<rect width="101" height="38" rx="19" fill="#FF6228"/>
<path d="M26.6668 25.1667H26.0002V17.6534C26.0002 17.24 25.8135 16.8534 25.4868 16.6L24.6668 15.96L24.6535 14.3267C24.6535 13.96 24.3535 13.6667 23.9868 13.6667H21.7135L20.8202 12.9734C20.3402 12.5934 19.6602 12.5934 19.1802 12.9734L14.5135 16.6C14.1868 16.8534 14.0002 17.24 14.0002 17.6467L13.9668 25.1667H13.3335C13.0602 25.1667 12.8335 25.3934 12.8335 25.6667C12.8335 25.94 13.0602 26.1667 13.3335 26.1667H26.6668C26.9402 26.1667 27.1668 25.94 27.1668 25.6667C27.1668 25.3934 26.9402 25.1667 26.6668 25.1667ZM16.3335 19.5V18.5C16.3335 18.1334 16.6335 17.8334 17.0002 17.8334H18.3335C18.7002 17.8334 19.0002 18.1334 19.0002 18.5V19.5C19.0002 19.8667 18.7002 20.1667 18.3335 20.1667H17.0002C16.6335 20.1667 16.3335 19.8667 16.3335 19.5ZM21.6668 25.1667H18.3335V23.3334C18.3335 22.78 18.7802 22.3334 19.3335 22.3334H20.6668C21.2202 22.3334 21.6668 22.78 21.6668 23.3334V25.1667ZM23.6668 19.5C23.6668 19.8667 23.3668 20.1667 23.0002 20.1667H21.6668C21.3002 20.1667 21.0002 19.8667 21.0002 19.5V18.5C21.0002 18.1334 21.3002 17.8334 21.6668 17.8334H23.0002C23.3668 17.8334 23.6668 18.1334 23.6668 18.5V19.5Z" fill="white"/>
<path d="M36.7031 14.8438C36.7031 16.6406 38.0469 18.3594 40.2031 19.0469L39.4375 20.2031C37.8281 19.6719 36.6094 18.5625 35.9844 17.1562C35.3516 18.6797 34.1094 19.8828 32.4375 20.4688L31.6719 19.3281C33.8438 18.5781 35.1875 16.75 35.2031 14.8438V14.4531H32.0625V13.25H39.7812V14.4531H36.7031V14.8438ZM43.125 12.3281V20.7812H41.6406V12.3281H43.125ZM43.125 21.4844V26.3281H41.6406V22.6875H33.6406V21.4844H43.125ZM56.68 12.3281V19.9531H55.2113V16.8594H52.5863V15.6406H55.2113V12.3281H56.68ZM49.0394 20.5781V22.1875H55.2113V20.5781H56.68V26.1562H47.5706V20.5781H49.0394ZM49.0394 24.9531H55.2113V23.3438H49.0394V24.9531ZM50.0394 14.5156C50.0394 16.25 51.305 18 53.4144 18.7188L52.6488 19.875C51.0706 19.3203 49.9144 18.2031 49.305 16.8125C48.6878 18.3672 47.4691 19.6016 45.805 20.1875L45.0394 19.0156C47.1956 18.2656 48.5238 16.4219 48.5238 14.5V14.3125H45.4925V13.1094H53.0394V14.3125H50.0394V14.5156ZM73.7275 12.3281V19.8438H72.2431V12.3281H73.7275ZM66.0244 20.5156V22.0938H72.2588V20.5156H73.7275V26.1562H64.5713V20.5156H66.0244ZM66.0244 24.9375H72.2588V23.2656H66.0244V24.9375ZM66.1338 12.9688C68.2744 12.9688 69.8525 14.2969 69.8525 16.2188C69.8525 18.1406 68.2744 19.4688 66.1338 19.4531C63.9931 19.4688 62.3994 18.1406 62.3994 16.2188C62.3994 14.2969 63.9931 12.9688 66.1338 12.9688ZM66.1338 14.2188C64.8056 14.2031 63.8525 15.0312 63.8525 16.2188C63.8525 17.4219 64.8056 18.2344 66.1338 18.2344C67.4463 18.2344 68.3994 17.4219 68.3994 16.2188C68.3994 15.0312 67.4463 14.2031 66.1338 14.2188ZM88.3919 20.2188V21.4219H82.7044V26.3125H81.2513V21.4219H75.6263V20.2188H88.3919ZM87.1888 13.1562V14.3438H82.8606C82.8841 16.0781 85.0403 17.625 87.6888 17.9844L87.1419 19.1562C84.845 18.7969 82.8606 17.6641 82.0169 16.0625C81.1497 17.6641 79.1731 18.7969 76.9075 19.1562L76.345 17.9844C78.9622 17.625 81.1184 16.0781 81.1731 14.3438H76.8138V13.1562H87.1888Z" fill="white"/>
</svg>
