<svg width="48" height="48" viewBox="0 0 48 48" fill="none" xmlns="http://www.w3.org/2000/svg">
<rect width="48" height="48" rx="24" fill="#FFEF5B"/>
<path d="M24.4904 12C17.0225 12 11 17.2123 11 23.5401C11 27.6475 13.5054 31.244 17.2634 33.2977L15.9914 38.4372C15.9675 38.5142 15.9638 38.5968 15.9808 38.676C15.9978 38.7552 16.0349 38.8277 16.0878 38.8853C16.165 38.959 16.2643 38.9997 16.3672 39C16.4526 38.9926 16.5335 38.9561 16.5985 38.8958L22.0717 34.9031C22.8797 35.0238 23.6941 35.0864 24.5096 35.0907C31.9679 35.0907 38 29.8784 38 23.5401C38 17.2019 31.9486 12 24.4904 12Z" fill="#473232"/>
</svg>
