<svg width="152" height="184" viewBox="0 0 152 184" fill="none" xmlns="http://www.w3.org/2000/svg">
<ellipse cx="76" cy="174.5" rx="76" ry="9.5" fill="#FFDED0"/>
<path d="M13 16.2896C13 13.8217 14.8006 11.723 17.2397 11.3477L85.2397 0.886197C88.2685 0.420229 91 2.76363 91 5.82806L91 170C91 172.761 88.7614 175 86 175L18 175C15.2386 175 13 172.761 13 170L13 16.2896Z" fill="#FF6228"/>
<rect x="82" y="66" width="58" height="109" rx="5" fill="#FF6228"/>
<rect width="8.49355" height="9.50157" rx="2" transform="matrix(0.999988 0.00492109 -0.0050209 0.999987 34.0477 38)" fill="#363636"/>
<rect width="8.49355" height="9.50157" rx="2" transform="matrix(0.999988 0.00487925 -0.00506396 0.999987 34.2311 74.1829)" fill="#363636"/>
<rect width="8.49355" height="9.50157" rx="2" transform="matrix(0.999988 0.00487925 -0.00506396 0.999987 34.4149 110.366)" fill="#363636"/>
<rect width="8.49355" height="9.50157" rx="2" transform="matrix(0.999988 0.00487925 -0.00506396 0.999987 34.14 56.0914)" fill="#363636"/>
<rect width="8.49355" height="9.50157" rx="2" transform="matrix(0.999988 0.00487925 -0.00506396 0.999987 34.3229 92.2743)" fill="#363636"/>
<rect width="8.49355" height="9.50157" rx="2" transform="matrix(0.999988 0.00487925 -0.00506396 0.999987 34.5062 128.457)" fill="#363636"/>
<rect width="8.49355" height="9.50157" rx="2" transform="matrix(0.999988 0.00492109 -0.0050209 0.999987 61.0474 38)" fill="#363636"/>
<rect width="8.49355" height="9.50157" rx="2" transform="matrix(0.999988 0.00487925 -0.00506396 0.999987 61.2307 74.1829)" fill="#363636"/>
<rect width="8.49355" height="9.50157" rx="2" transform="matrix(0.999988 0.00487925 -0.00506396 0.999987 61.4146 110.366)" fill="#363636"/>
<rect width="8.49355" height="9.50157" rx="2" transform="matrix(0.999988 0.00487925 -0.00506396 0.999987 61.1396 56.0914)" fill="#363636"/>
<rect width="8.49355" height="9.50157" rx="2" transform="matrix(0.999988 0.00487925 -0.00506396 0.999987 61.3225 92.2743)" fill="#363636"/>
<rect width="8.49355" height="9.50157" rx="2" transform="matrix(0.999988 0.00487925 -0.00506396 0.999987 61.5059 128.457)" fill="#363636"/>
<rect width="8.49355" height="9.50157" rx="2" transform="matrix(0.999988 0.00487925 -0.00506396 0.999987 118.14 110.091)" fill="#363636"/>
<rect width="8.49355" height="9.50157" rx="2" transform="matrix(0.999988 0.00487925 -0.00506396 0.999987 118.048 92)" fill="#363636"/>
<rect width="8.49355" height="9.50157" rx="2" transform="matrix(0.999988 0.00487925 -0.00506396 0.999987 118.231 128.183)" fill="#363636"/>
<rect width="8.49355" height="9.50157" rx="2" transform="matrix(0.999988 0.00487925 -0.00506396 0.999987 118.231 146)" fill="#363636"/>
<path d="M45.6523 156.602C45.6606 154.945 47.0104 153.609 48.6672 153.617L57.5155 153.661C59.1724 153.669 60.5088 155.019 60.5006 156.676L60.4385 169.155C60.4358 169.708 59.9859 170.153 59.4336 170.15L46.5853 170.087C46.033 170.084 45.5875 169.634 45.5903 169.082L45.6523 156.602Z" fill="#363636"/>
</svg>
