<svg width="52" height="38" viewBox="0 0 52 38" fill="none" xmlns="http://www.w3.org/2000/svg">
<rect x="0.75" y="0.75" width="50.5" height="36.5" rx="18.25" fill="#FF6228"/>
<rect x="0.75" y="0.75" width="50.5" height="36.5" rx="18.25" stroke="#FF6228" stroke-width="1.5"/>
<path d="M24.1094 12.3281V19.6094H22.6406V12.3281H24.1094ZM24.125 20.2812V23.7188H16.4062V25.0312H24.5938V26.1875H14.9688V22.6406H22.6562V21.4375H14.9219V20.2812H24.125ZM14.7031 12.9062V14.8125H18.4375V12.9062H19.9062V19.0469H13.25V12.9062H14.7031ZM14.7031 17.8594H18.4375V15.9531H14.7031V17.8594ZM36.93 12.3281V17.7969H39.18V19.0469H36.93V26.3594H35.4613V12.3281H36.93ZM32.9769 13.5938V18.7344H28.0706V21.7656C30.4769 21.7578 32.2581 21.6719 34.305 21.2969L34.4456 22.5C32.2581 22.9062 30.3675 23 27.7425 23.0156H26.6019V17.5312H31.5081V14.7969H26.5706V13.5938H32.9769Z" fill="white"/>
</svg>
