<svg width="31" height="31" viewBox="0 0 31 31" fill="none" xmlns="http://www.w3.org/2000/svg">
<g id="Group 26086331">
<rect id="Rectangle 34624444" x="6.66309" y="8.32861" width="19.4328" height="14.4358" fill="white"/>
<path id="Vector" d="M15.5 0C6.9595 0 0 6.9595 0 15.5C0 24.0405 6.9595 31 15.5 31C24.0405 31 31 24.0405 31 15.5C31 6.9595 24.0405 0 15.5 0ZM22.909 11.935L14.1205 20.7235C13.9035 20.9405 13.609 21.0645 13.299 21.0645C12.989 21.0645 12.6945 20.9405 12.4775 20.7235L8.091 16.337C7.6415 15.8875 7.6415 15.1435 8.091 14.694C8.5405 14.2445 9.2845 14.2445 9.734 14.694L13.299 18.259L21.266 10.292C21.7155 9.8425 22.4595 9.8425 22.909 10.292C23.3585 10.7415 23.3585 11.47 22.909 11.935Z" fill="#FF6228"/>
</g>
</svg>
