<svg width="18" height="18" viewBox="0 0 18 18" fill="none" xmlns="http://www.w3.org/2000/svg">
<g id="vuesax/bold/house-2">
<g id="house-2">
<path id="Vector" d="M7.5 11.625C7.1925 11.625 6.9375 11.88 6.9375 12.1875V13.3125C6.9375 13.62 7.1925 13.875 7.5 13.875C7.8075 13.875 8.0625 13.62 8.0625 13.3125V12.1875C8.0625 11.88 7.8075 11.625 7.5 11.625Z" fill="#FF6228"/>
<path id="Vector_2" d="M16.5 15.9375H15.75V7.48504C15.75 7.02004 15.54 6.58504 15.1725 6.30004L9.9225 2.22004C9.3825 1.79254 8.6175 1.79254 8.0775 2.22004L2.8275 6.30004C2.46 6.58504 2.25 7.02004 2.25 7.47754L2.2125 15.9375H1.5C1.1925 15.9375 0.9375 16.185 0.9375 16.5C0.9375 16.8075 1.1925 17.0625 1.5 17.0625H16.5C16.8075 17.0625 17.0625 16.8075 17.0625 16.5C17.0625 16.185 16.8075 15.9375 16.5 15.9375ZM7.875 5.06254H10.125C10.4325 5.06254 10.6875 5.31754 10.6875 5.62504C10.6875 5.93254 10.4325 6.18754 10.125 6.18754H7.875C7.5675 6.18754 7.3125 5.93254 7.3125 5.62504C7.3125 5.31754 7.5675 5.06254 7.875 5.06254ZM12.75 15.9375H5.25V9.37504C5.25 8.75254 5.7525 8.25004 6.375 8.25004H11.625C12.2475 8.25004 12.75 8.75254 12.75 9.37504V15.9375Z" fill="#FF6228"/>
</g>
</g>
</svg>
