<svg width="63" height="104" viewBox="0 0 63 104" fill="none" xmlns="http://www.w3.org/2000/svg">
<ellipse cx="25.5" cy="97" rx="25.5" ry="7" fill="#FFDED0"/>
<path d="M23.1194 66.5061L22.1828 80.021L18.6497 93.7084" stroke="#363636" stroke-width="6" stroke-linecap="round" stroke-linejoin="round"/>
<path d="M29.9905 66.3473L29.9903 79.642L28.9919 94.3002" stroke="#363636" stroke-width="6" stroke-linecap="round" stroke-linejoin="round"/>
<circle cx="24.9124" cy="15.3682" r="9.17609" transform="rotate(-9.62853 24.9124 15.3682)" fill="#FFDED0"/>
<path d="M19.1943 32.4122C19.3377 29.7595 21.5305 27.6821 24.187 27.6821H28.4175C31.074 27.6821 33.2668 29.7595 33.4102 32.4122L35.0288 62.3625C35.1836 65.2257 32.9035 67.6323 30.0361 67.6323H22.5684C19.701 67.6323 17.421 65.2257 17.5757 62.3624L19.1943 32.4122Z" fill="#FF6228"/>
<path d="M22.0582 32.0049L11.0864 44.2791L18.6136 55.0646" stroke="#FF6228" stroke-width="6" stroke-linecap="round" stroke-linejoin="round"/>
<path d="M19.9982 51.8114L18.2773 49.3541L13.3626 52.796L15.0836 55.2533L19.9982 51.8114ZM16.1567 56.7855C17.1071 58.1426 18.9778 58.4723 20.3349 57.5218C21.692 56.5714 22.0217 54.7007 21.0713 53.3436L16.1567 56.7855ZM15.0836 55.2533L16.1567 56.7855L21.0713 53.3436L19.9982 51.8114L15.0836 55.2533Z" fill="#FFDED0"/>
<path d="M28.0553 31.921L36.8186 45.858L49.2645 41.6051" stroke="#FF6228" stroke-width="6" stroke-linecap="round" stroke-linejoin="round"/>
<path d="M46.6899 39.2443L43.8161 40.1051L45.5378 45.8528L48.4116 44.9919L46.6899 39.2443ZM50.1253 44.4786C51.7125 44.0032 52.6137 42.3311 52.1383 40.744C51.6629 39.1568 49.9908 38.2555 48.4036 38.7309L50.1253 44.4786ZM48.4116 44.9919L50.1253 44.4786L48.4036 38.7309L46.6899 39.2443L48.4116 44.9919Z" fill="#FFDED0"/>
<path d="M15.5104 6.87725L15.5488 13.1945L32.4535 9.07964L29.0644 3.30203C28.1661 1.77057 26.3658 1.01454 24.6434 1.44546L18.5395 2.97255C16.7504 3.42017 15.4992 5.03301 15.5104 6.87725Z" fill="#4A4A4A"/>
<path d="M13.3204 13.5218L34.8304 7.87922" stroke="#4A4A4A" stroke-width="2" stroke-linecap="round"/>
<path d="M47.0794 29.0257C47.2436 28.9162 47.4366 28.8578 47.6341 28.8578H59.0285C60.0179 28.8578 60.4065 30.141 59.5832 30.6898L56.5832 32.6898C56.419 32.7994 56.2259 32.8578 56.0285 32.8578H44.6341C43.6447 32.8578 43.2561 31.5746 44.0794 31.0257L47.0794 29.0257Z" fill="#C9C9C9"/>
<path d="M47.0794 30.7078C47.2436 30.5983 47.4366 30.5399 47.6341 30.5399H59.0285C60.0179 30.5399 60.4065 31.8231 59.5832 32.3719L56.5832 34.3719C56.419 34.4814 56.2259 34.5399 56.0285 34.5399H44.6341C43.6447 34.5399 43.2561 33.2566 44.0794 32.7078L47.0794 30.7078Z" fill="#C9C9C9"/>
<path d="M47.0794 32.7078C47.2436 32.5983 47.4366 32.5399 47.6341 32.5399H59.0285C60.0179 32.5399 60.4065 33.8231 59.5832 34.3719L56.5832 36.3719C56.419 36.4814 56.2259 36.5399 56.0285 36.5399H44.6341C43.6447 36.5399 43.2561 35.2566 44.0794 34.7078L47.0794 32.7078Z" fill="#C9C9C9"/>
<path d="M47.2964 31.6333L50.7436 28.8642H55.8029L52.8832 31.6333V36.5399H47.2964V31.6333Z" fill="white"/>
</svg>
