<svg width="79" height="38" viewBox="0 0 79 38" fill="none" xmlns="http://www.w3.org/2000/svg">
<rect x="0.75" y="0.75" width="77.5" height="36.5" rx="18.25" fill="#FF6228"/>
<rect x="0.75" y="0.75" width="77.5" height="36.5" rx="18.25" stroke="#FF6228" stroke-width="1.5"/>
<path d="M18.8906 13.1719C21.8828 13.1797 24.0625 14.6562 24.0625 16.8906C24.0625 18.9844 22.2344 20.3828 19.625 20.5938V23.3438H25.3281V24.5781H12.5156V23.3438H18.1562V20.5938C15.5625 20.3828 13.7266 18.9844 13.7344 16.8906C13.7266 14.6562 15.9141 13.1797 18.8906 13.1719ZM15.1719 16.8906C15.1719 18.4609 16.7344 19.4375 18.8906 19.4531C21.0625 19.4375 22.6172 18.4609 22.625 16.8906C22.6172 15.375 21.0625 14.375 18.8906 14.3906C16.7344 14.375 15.1719 15.375 15.1719 16.8906ZM37.6644 12.3281V26.3281H36.1644V12.3281H37.6644ZM25.9925 21.7031C26.5706 21.7031 27.1878 21.6953 27.8363 21.6875V14.9844H26.3675V13.7656H34.3363V14.9844H32.8831V21.5C33.6097 21.4453 34.3284 21.375 35.0238 21.2969L35.1019 22.3906C32.0706 22.8828 28.7425 22.9297 26.1644 22.9375L25.9925 21.7031ZM29.2738 21.6641C29.9769 21.6484 30.7034 21.6172 31.43 21.5859V14.9844H29.2738V21.6641ZM46.6413 14.3125C46.6413 16.5938 49.0709 18.75 51.7663 19.2344L51.0788 20.4688C48.8366 19.9844 46.7819 18.5156 45.8756 16.5469C44.9538 18.5078 42.8991 19.9688 40.6569 20.4688L40.0006 19.2344C42.6569 18.7344 45.0709 16.5938 45.0788 14.3125V13.25H46.6413V14.3125ZM39.5319 24.4844V23.25H52.3444V24.4844H39.5319ZM58.9931 13.1562V14.3281H55.0556V15.625H58.4463V16.7656H55.0556V18.1875C56.7822 18.1797 58.0713 18.1328 59.5869 17.8438L59.7275 19C58.0009 19.2969 56.6103 19.3672 54.5713 19.375H53.665V13.1562H58.9931ZM55.5869 21.6094V20.4375H64.9775V23.8125H57.0869V25.0312H65.5088V26.1875H55.6181V22.7188H63.5244V21.6094H55.5869ZM59.0869 16.6094V15.4219H60.8213V12.5781H62.2275V19.7344H60.8213V16.6094H59.0869ZM63.5713 19.8594V12.3438H64.9775V19.8594H63.5713Z" fill="white"/>
</svg>
