<svg width="21" height="20" viewBox="0 0 21 20" fill="none" xmlns="http://www.w3.org/2000/svg">
<rect x="2.1665" y="1.66699" width="16.6667" height="16.6667" rx="5" fill="#FFD2B9"/>
<path d="M12.9998 18.9587H7.99984C3.47484 18.9587 1.5415 17.0253 1.5415 12.5003V7.50033C1.5415 2.97533 3.47484 1.04199 7.99984 1.04199H12.9998C17.5248 1.04199 19.4582 2.97533 19.4582 7.50033V12.5003C19.4582 17.0253 17.5248 18.9587 12.9998 18.9587ZM7.99984 2.29199C4.15817 2.29199 2.7915 3.65866 2.7915 7.50033V12.5003C2.7915 16.342 4.15817 17.7087 7.99984 17.7087H12.9998C16.8415 17.7087 18.2082 16.342 18.2082 12.5003V7.50033C18.2082 3.65866 16.8415 2.29199 12.9998 2.29199H7.99984Z" fill="#FF6228"/>
<path d="M9.3167 12.9827C9.15003 12.9827 8.9917 12.916 8.87503 12.7993L6.5167 10.441C6.27503 10.1993 6.27503 9.79935 6.5167 9.55768C6.75837 9.31602 7.15837 9.31602 7.40003 9.55768L9.3167 11.4743L13.6 7.19102C13.8417 6.94935 14.2417 6.94935 14.4834 7.19102C14.725 7.43268 14.725 7.83268 14.4834 8.07435L9.75837 12.7993C9.6417 12.916 9.48337 12.9827 9.3167 12.9827Z" fill="#FF6228"/>
</svg>
