<svg width="16" height="16" viewBox="0 0 16 16" fill="none" xmlns="http://www.w3.org/2000/svg">
<g id="vuesax/bold/empty-wallet">
<g id="empty-wallet">
<path id="Vector" d="M9.89984 2.63385V5.16719H8.89984V2.63385C8.89984 2.45385 8.73984 2.36719 8.63317 2.36719C8.59984 2.36719 8.5665 2.37385 8.53317 2.38719L3.2465 4.38052C2.89317 4.51385 2.6665 4.84719 2.6665 5.22719V5.67385C2.05984 6.12719 1.6665 6.85385 1.6665 7.67385V5.22719C1.6665 4.43385 2.15317 3.72719 2.89317 3.44719L8.1865 1.44719C8.33317 1.39385 8.4865 1.36719 8.63317 1.36719C9.29984 1.36719 9.89984 1.90719 9.89984 2.63385Z" fill="#FF6228"/>
<path id="Vector_2" d="M14.3336 9.66732V10.334C14.3336 10.514 14.1936 10.6607 14.0069 10.6673H13.0336C12.6803 10.6673 12.3603 10.4073 12.3336 10.0607C12.3136 9.85398 12.3936 9.66065 12.5269 9.52732C12.6469 9.40065 12.8136 9.33398 12.9936 9.33398H14.0003C14.1936 9.34065 14.3336 9.48732 14.3336 9.66732Z" fill="#FF6228"/>
<path id="Vector_3" d="M12.9865 8.63268H13.6665C14.0332 8.63268 14.3332 8.33268 14.3332 7.96602V7.67268C14.3332 6.29268 13.2065 5.16602 11.8265 5.16602H4.17317C3.6065 5.16602 3.0865 5.35268 2.6665 5.67268C2.05984 6.12602 1.6665 6.85268 1.6665 7.67268V12.1593C1.6665 13.5393 2.79317 14.666 4.17317 14.666H11.8265C13.2065 14.666 14.3332 13.5393 14.3332 12.1593V12.0327C14.3332 11.666 14.0332 11.366 13.6665 11.366H13.0865C12.4465 11.366 11.8332 10.9727 11.6665 10.3527C11.5265 9.84602 11.6932 9.35935 12.0265 9.03268C12.2732 8.77935 12.6132 8.63268 12.9865 8.63268ZM9.33317 8.49935H4.6665C4.39317 8.49935 4.1665 8.27268 4.1665 7.99935C4.1665 7.72602 4.39317 7.49935 4.6665 7.49935H9.33317C9.6065 7.49935 9.83317 7.72602 9.83317 7.99935C9.83317 8.27268 9.6065 8.49935 9.33317 8.49935Z" fill="#FF6228"/>
</g>
</g>
</svg>
