<svg width="295" height="116" viewBox="0 0 295 116" fill="none" xmlns="http://www.w3.org/2000/svg">
<path fill-rule="evenodd" clip-rule="evenodd" d="M276.277 68.2622C286.221 68.2622 294.283 76.3239 294.283 86.2685C294.283 96.2131 286.221 104.275 276.277 104.275H274.111C274.861 107.242 276.985 110.931 280.482 113.851C280.975 114.263 280.391 115.641 279.772 115.471C274.089 113.909 270.222 111.897 264.479 104.275H165.061C155.117 104.275 147.055 96.2131 147.055 86.2685C147.055 76.3239 155.117 68.2622 165.061 68.2622H276.277Z" fill="#EEEEEE"/>
<path d="M169.338 83.6726C169.277 83.6726 169.217 83.6665 169.157 83.6545C169.096 83.6545 169.03 83.6485 168.958 83.6364C168.813 83.5882 168.693 83.4857 168.596 83.3289C168.548 83.2324 168.524 83.0998 168.524 82.931C168.524 82.7622 168.578 82.4848 168.686 82.0989C168.795 81.7131 168.97 81.1403 169.211 80.3806C168.946 80.4771 168.638 80.5916 168.289 80.7243C167.951 80.8569 167.601 80.9896 167.239 81.1222C167.107 81.1704 166.974 81.1644 166.842 81.1041C166.697 81.0318 166.594 80.9232 166.534 80.7785C166.486 80.6459 166.498 80.5132 166.57 80.3806C166.631 80.2359 166.733 80.1334 166.878 80.0731C167.396 79.8802 167.879 79.6993 168.325 79.5305C168.783 79.3617 169.157 79.223 169.446 79.1145C169.736 79.0059 169.88 78.9517 169.88 78.9517C170.001 78.9034 170.115 78.8974 170.224 78.9336C170.381 78.9698 170.495 79.0602 170.568 79.2049C170.628 79.3134 170.646 79.4099 170.622 79.4943C170.61 79.5787 170.592 79.6691 170.568 79.7656C170.544 79.8138 170.525 79.8681 170.513 79.9284C170.501 79.9766 170.483 80.0369 170.459 80.1093C170.375 80.3143 170.284 80.5675 170.188 80.869C170.103 81.1584 170.013 81.4538 169.916 81.7553C169.856 81.9241 169.808 82.0688 169.772 82.1894C169.736 82.31 169.705 82.4185 169.681 82.515C169.91 82.4667 170.242 82.3281 170.676 82.0989C171.05 81.8939 171.448 81.6588 171.87 81.3935C172.304 81.1162 172.744 80.8268 173.19 80.5253C173.287 80.465 173.383 80.4047 173.48 80.3444C173.588 80.2841 173.685 80.2178 173.769 80.1455C173.902 80.061 174.04 80.0369 174.185 80.0731C174.342 80.0972 174.463 80.1756 174.547 80.3082C174.631 80.4288 174.655 80.5615 174.619 80.7062C174.595 80.8509 174.517 80.9654 174.384 81.0498C174.288 81.1222 174.185 81.1945 174.077 81.2669C173.98 81.3272 173.878 81.3935 173.769 81.4659C173.311 81.7673 172.865 82.0567 172.431 82.3341C171.997 82.6114 171.587 82.8526 171.201 83.0576C170.417 83.4676 169.796 83.6726 169.338 83.6726ZM175.192 83.6364C175.107 83.6364 175.023 83.6243 174.939 83.6002C174.854 83.5882 174.77 83.5761 174.685 83.5641C174.468 83.5038 174.317 83.3771 174.233 83.1842C174.125 82.943 174.125 82.6536 174.233 82.316C174.354 81.9663 174.547 81.5201 174.812 80.9775C174.86 80.881 174.908 80.7725 174.957 80.6519C175.017 80.5313 175.071 80.4168 175.119 80.3082C174.963 80.3685 174.794 80.471 174.613 80.6157C174.444 80.7484 174.269 80.8871 174.088 81.0318C173.968 81.1162 173.835 81.1523 173.69 81.1403C173.534 81.1162 173.407 81.0498 173.311 80.9413C173.226 80.8207 173.196 80.6881 173.22 80.5434C173.232 80.3987 173.293 80.2721 173.401 80.1635C173.57 80.043 173.745 79.9103 173.926 79.7656C174.119 79.6209 174.311 79.5003 174.504 79.4039C174.999 79.1506 175.451 79.0843 175.861 79.2049C176.054 79.2411 176.199 79.3617 176.295 79.5666C176.392 79.7596 176.386 80.0008 176.277 80.2902C176.181 80.5796 176.012 80.9715 175.771 81.4659C175.71 81.6106 175.644 81.7553 175.572 81.9C175.511 82.0447 175.451 82.1833 175.391 82.316C175.379 82.3642 175.361 82.4064 175.336 82.4426C175.324 82.4788 175.312 82.515 175.3 82.5511C175.553 82.515 175.921 82.3883 176.404 82.1713C176.898 81.9422 177.561 81.496 178.393 80.8328C178.839 80.4831 179.243 80.1455 179.605 79.8199C179.967 79.4822 180.256 79.2049 180.473 78.9878C180.69 78.7708 180.799 78.6623 180.799 78.6623C180.944 78.4934 181.119 78.4392 181.324 78.4995C181.42 78.5115 181.498 78.5537 181.559 78.6261C181.619 78.6864 181.667 78.7467 181.703 78.807C181.788 78.9758 181.794 79.1747 181.721 79.4039C181.661 79.6209 181.529 79.9766 181.324 80.471C181.251 80.6278 181.179 80.7846 181.106 80.9413C181.046 81.0981 180.986 81.2428 180.926 81.3754C180.914 81.4237 180.901 81.4659 180.889 81.502C180.889 81.5262 180.883 81.5503 180.871 81.5744C181.1 81.5382 181.342 81.4417 181.595 81.285C181.86 81.1162 182.113 80.9293 182.355 80.7243C182.608 80.5193 182.819 80.3444 182.988 80.1997C183.108 80.0912 183.241 80.043 183.386 80.055C183.53 80.0671 183.657 80.1274 183.765 80.2359C183.862 80.3565 183.904 80.4891 183.892 80.6338C183.892 80.7785 183.832 80.9051 183.711 81.0137C183.337 81.3393 182.951 81.6467 182.553 81.9361C182.168 82.2256 181.776 82.4426 181.378 82.5873C180.992 82.72 180.6 82.738 180.202 82.6416C180.009 82.5572 179.87 82.4366 179.786 82.2798C179.714 82.111 179.69 81.9241 179.714 81.7191C179.75 81.5141 179.822 81.2609 179.931 80.9594C179.798 81.08 179.659 81.1945 179.515 81.3031C179.382 81.4116 179.237 81.5322 179.081 81.6648C177.417 82.9792 176.12 83.6364 175.192 83.6364ZM189.359 82.4245C189.274 82.4245 189.196 82.4125 189.123 82.3883C188.894 82.3401 188.732 82.2014 188.635 81.9723C188.563 81.7673 188.581 81.5382 188.689 81.285C188.81 81.0318 188.967 80.7484 189.16 80.4349C189.232 80.3263 189.298 80.2178 189.359 80.1093C189.431 79.9887 189.491 79.8802 189.539 79.7837C189.564 79.7475 189.582 79.7174 189.594 79.6933C189.606 79.6571 189.618 79.6269 189.63 79.6028C189.268 79.5425 188.846 79.5305 188.364 79.5666C187.893 79.5908 187.363 79.6812 186.772 79.838C186.254 79.9706 185.693 80.1455 185.09 80.3625C184.499 80.5675 183.872 80.8147 183.209 81.1041C183.076 81.1523 182.943 81.1523 182.811 81.1041C182.678 81.0559 182.582 80.9654 182.521 80.8328C182.449 80.7001 182.443 80.5615 182.503 80.4168C182.564 80.26 182.66 80.1575 182.793 80.1093C183.468 79.8078 184.113 79.5486 184.728 79.3315C185.355 79.1024 185.946 78.9215 186.501 78.7889C187.984 78.4151 189.196 78.3548 190.136 78.608C190.414 78.6803 190.607 78.8492 190.715 79.1145C190.824 79.3797 190.8 79.6752 190.643 80.0008C190.486 80.3263 190.299 80.664 190.082 81.0137C190.07 81.0378 190.052 81.0679 190.028 81.1041C190.004 81.1403 189.98 81.1825 189.955 81.2307C190.233 81.1704 190.643 81.0498 191.185 80.869C191.728 80.6881 192.476 80.4228 193.428 80.0731C193.561 80.0249 193.694 80.0369 193.826 80.1093C193.971 80.1696 194.067 80.2721 194.116 80.4168C194.176 80.5494 194.176 80.6881 194.116 80.8328C194.055 80.9654 193.947 81.0619 193.79 81.1222C193.235 81.3151 192.729 81.49 192.271 81.6467C191.812 81.8035 191.403 81.9361 191.041 82.0447C190.558 82.1894 190.191 82.2919 189.937 82.3522C189.684 82.4004 189.491 82.4245 189.359 82.4245ZM195.705 82.0628C195.645 82.0628 195.596 82.0567 195.56 82.0447C195.367 81.9964 195.229 81.9241 195.144 81.8276C195.072 81.7191 195.024 81.6347 195 81.5744C194.915 81.3091 194.945 81.0378 195.09 80.7604C195.235 80.471 195.422 80.1696 195.651 79.8561C195.723 79.7596 195.789 79.6571 195.85 79.5486C195.922 79.428 195.982 79.3255 196.031 79.2411C196.043 79.229 196.061 79.2049 196.085 79.1687C196.012 79.1928 195.922 79.229 195.814 79.2772C195.717 79.3255 195.603 79.3978 195.47 79.4943C195.253 79.6269 195.024 79.8018 194.783 80.0188C194.541 80.2238 194.294 80.4409 194.041 80.67C193.981 80.7182 193.914 80.7725 193.842 80.8328C193.782 80.8931 193.721 80.9534 193.661 81.0137C193.553 81.1101 193.426 81.1584 193.281 81.1584C193.124 81.1463 192.998 81.08 192.901 80.9594C192.793 80.8509 192.745 80.7243 192.757 80.5796C192.769 80.4228 192.829 80.2962 192.938 80.1997C192.998 80.1394 193.064 80.0791 193.137 80.0188C193.197 79.9586 193.257 79.9043 193.317 79.8561C193.703 79.5064 194.083 79.1868 194.457 78.8974C194.831 78.5959 195.199 78.3668 195.56 78.2101C195.922 78.0533 196.272 78.0232 196.609 78.1196C196.814 78.1679 196.959 78.2523 197.043 78.3729C197.14 78.4814 197.194 78.5778 197.206 78.6623C197.315 78.9275 197.291 79.2109 197.134 79.5124C196.977 79.8018 196.778 80.1213 196.537 80.471C196.513 80.4952 196.483 80.5374 196.447 80.5977C196.422 80.6459 196.392 80.6941 196.356 80.7424C196.537 80.67 196.772 80.5796 197.062 80.471C197.351 80.3625 197.701 80.2299 198.111 80.0731C198.267 80.0249 198.412 80.0369 198.545 80.1093C198.677 80.1696 198.768 80.2721 198.816 80.4168C198.876 80.5494 198.87 80.6881 198.798 80.8328C198.738 80.9654 198.641 81.0619 198.509 81.1222C198.123 81.2548 197.773 81.3754 197.46 81.484C197.146 81.5925 196.881 81.6889 196.664 81.7734C196.543 81.8216 196.435 81.8638 196.338 81.9C196.254 81.9241 196.175 81.9482 196.103 81.9723C196.019 81.9964 195.946 82.0206 195.886 82.0447C195.826 82.0567 195.765 82.0628 195.705 82.0628ZM204.268 82.4245C204.183 82.4245 204.105 82.4125 204.032 82.3883C203.803 82.3401 203.641 82.2014 203.544 81.9723C203.472 81.7673 203.49 81.5382 203.598 81.285C203.719 81.0318 203.876 80.7484 204.069 80.4349C204.141 80.3263 204.207 80.2178 204.268 80.1093C204.34 79.9887 204.4 79.8802 204.448 79.7837C204.473 79.7475 204.491 79.7174 204.503 79.6933C204.515 79.6571 204.527 79.6269 204.539 79.6028C204.177 79.5425 203.755 79.5305 203.273 79.5666C202.802 79.5908 202.272 79.6812 201.681 79.838C201.163 79.9706 200.602 80.1455 199.999 80.3625C199.408 80.5675 198.781 80.8147 198.118 81.1041C197.985 81.1523 197.852 81.1523 197.72 81.1041C197.587 81.0559 197.491 80.9654 197.43 80.8328C197.358 80.7001 197.352 80.5615 197.412 80.4168C197.473 80.26 197.569 80.1575 197.702 80.1093C198.377 79.8078 199.022 79.5486 199.637 79.3315C200.264 79.1024 200.855 78.9215 201.41 78.7889C202.893 78.4151 204.105 78.3548 205.045 78.608C205.323 78.6803 205.516 78.8492 205.624 79.1145C205.733 79.3797 205.709 79.6752 205.552 80.0008C205.395 80.3263 205.208 80.664 204.991 81.0137C204.979 81.0378 204.961 81.0679 204.937 81.1041C204.913 81.1403 204.889 81.1825 204.864 81.2307C205.142 81.1704 205.552 81.0498 206.094 80.869C206.637 80.6881 207.385 80.4228 208.337 80.0731C208.47 80.0249 208.603 80.0369 208.735 80.1093C208.88 80.1696 208.976 80.2721 209.025 80.4168C209.085 80.5494 209.085 80.6881 209.025 80.8328C208.964 80.9654 208.856 81.0619 208.699 81.1222C208.144 81.3151 207.638 81.49 207.18 81.6467C206.722 81.8035 206.312 81.9361 205.95 82.0447C205.467 82.1894 205.1 82.2919 204.846 82.3522C204.593 82.4004 204.4 82.4245 204.268 82.4245ZM210.614 82.0628C210.554 82.0628 210.505 82.0567 210.469 82.0447C210.276 81.9964 210.138 81.9241 210.053 81.8276C209.981 81.7191 209.933 81.6347 209.909 81.5744C209.824 81.3091 209.854 81.0378 209.999 80.7604C210.144 80.471 210.331 80.1696 210.56 79.8561C210.632 79.7596 210.698 79.6571 210.759 79.5486C210.831 79.428 210.891 79.3255 210.94 79.2411C210.952 79.229 210.97 79.2049 210.994 79.1687C210.921 79.1928 210.831 79.229 210.723 79.2772C210.626 79.3255 210.512 79.3978 210.379 79.4943C210.162 79.6269 209.933 79.8018 209.692 80.0188C209.45 80.2238 209.203 80.4409 208.95 80.67C208.89 80.7182 208.823 80.7725 208.751 80.8328C208.691 80.8931 208.63 80.9534 208.57 81.0137C208.462 81.1101 208.335 81.1584 208.19 81.1584C208.033 81.1463 207.907 81.08 207.81 80.9594C207.702 80.8509 207.654 80.7243 207.666 80.5796C207.678 80.4228 207.738 80.2962 207.847 80.1997C207.907 80.1394 207.973 80.0791 208.046 80.0188C208.106 79.9586 208.166 79.9043 208.226 79.8561C208.612 79.5064 208.992 79.1868 209.366 78.8974C209.74 78.5959 210.108 78.3668 210.469 78.2101C210.831 78.0533 211.181 78.0232 211.518 78.1196C211.723 78.1679 211.868 78.2523 211.953 78.3729C212.049 78.4814 212.103 78.5778 212.115 78.6623C212.224 78.9275 212.2 79.2109 212.043 79.5124C211.886 79.8018 211.687 80.1213 211.446 80.471C211.422 80.4952 211.392 80.5374 211.356 80.5977C211.331 80.6459 211.301 80.6941 211.265 80.7424C211.446 80.67 211.681 80.5796 211.971 80.471C212.26 80.3625 212.61 80.2299 213.02 80.0731C213.176 80.0249 213.321 80.0369 213.454 80.1093C213.586 80.1696 213.677 80.2721 213.725 80.4168C213.785 80.5494 213.779 80.6881 213.707 80.8328C213.647 80.9654 213.55 81.0619 213.418 81.1222C213.032 81.2548 212.682 81.3754 212.369 81.484C212.055 81.5925 211.79 81.6889 211.573 81.7734C211.452 81.8216 211.344 81.8638 211.247 81.9C211.163 81.9241 211.084 81.9482 211.012 81.9723C210.928 81.9964 210.855 82.0206 210.795 82.0447C210.735 82.0567 210.674 82.0628 210.614 82.0628ZM215.233 82.0628C215.173 82.0628 215.125 82.0567 215.089 82.0447C214.896 81.9964 214.757 81.9241 214.673 81.8276C214.6 81.7191 214.552 81.6347 214.528 81.5744C214.444 81.3091 214.474 81.0378 214.618 80.7604C214.763 80.471 214.95 80.1696 215.179 79.8561C215.252 79.7596 215.318 79.6571 215.378 79.5486C215.451 79.428 215.511 79.3255 215.559 79.2411C215.571 79.229 215.589 79.2049 215.613 79.1687C215.541 79.1928 215.451 79.229 215.342 79.2772C215.246 79.3255 215.131 79.3978 214.998 79.4943C214.781 79.6269 214.552 79.8018 214.311 80.0188C214.07 80.2238 213.823 80.4409 213.569 80.67C213.509 80.7182 213.443 80.7725 213.37 80.8328C213.31 80.8931 213.25 80.9534 213.19 81.0137C213.081 81.1101 212.954 81.1584 212.81 81.1584C212.653 81.1463 212.526 81.08 212.43 80.9594C212.321 80.8509 212.273 80.7243 212.285 80.5796C212.297 80.4228 212.357 80.2962 212.466 80.1997C212.526 80.1394 212.593 80.0791 212.665 80.0188C212.725 79.9586 212.786 79.9043 212.846 79.8561C213.232 79.5064 213.612 79.1868 213.985 78.8974C214.359 78.5959 214.727 78.3668 215.089 78.2101C215.451 78.0533 215.8 78.0232 216.138 78.1196C216.343 78.1679 216.488 78.2523 216.572 78.3729C216.668 78.4814 216.723 78.5778 216.735 78.6623C216.843 78.9275 216.819 79.2109 216.662 79.5124C216.506 79.8018 216.307 80.1213 216.065 80.471C216.041 80.4952 216.011 80.5374 215.975 80.5977C215.951 80.6459 215.921 80.6941 215.885 80.7424C216.065 80.67 216.301 80.5796 216.59 80.471C216.879 80.3625 217.229 80.2299 217.639 80.0731C217.796 80.0249 217.941 80.0369 218.073 80.1093C218.206 80.1696 218.296 80.2721 218.345 80.4168C218.405 80.5494 218.399 80.6881 218.326 80.8328C218.266 80.9654 218.17 81.0619 218.037 81.1222C217.651 81.2548 217.301 81.3754 216.988 81.484C216.674 81.5925 216.409 81.6889 216.192 81.7734C216.072 81.8216 215.963 81.8638 215.867 81.9C215.782 81.9241 215.704 81.9482 215.631 81.9723C215.547 81.9964 215.475 82.0206 215.414 82.0447C215.354 82.0567 215.294 82.0628 215.233 82.0628ZM219.726 83.6726C219.666 83.6726 219.606 83.6665 219.545 83.6545C219.485 83.6545 219.419 83.6485 219.346 83.6364C219.202 83.5882 219.081 83.4857 218.985 83.3289C218.936 83.2324 218.912 83.0998 218.912 82.931C218.912 82.7622 218.967 82.4848 219.075 82.0989C219.184 81.7131 219.359 81.1403 219.6 80.3806C219.334 80.4771 219.027 80.5916 218.677 80.7243C218.34 80.8569 217.99 80.9896 217.628 81.1222C217.495 81.1704 217.363 81.1644 217.23 81.1041C217.085 81.0318 216.983 80.9232 216.923 80.7785C216.874 80.6459 216.887 80.5132 216.959 80.3806C217.019 80.2359 217.122 80.1334 217.266 80.0731C217.785 79.8802 218.267 79.6993 218.713 79.5305C219.172 79.3617 219.545 79.223 219.835 79.1145C220.124 79.0059 220.269 78.9517 220.269 78.9517C220.39 78.9034 220.504 78.8974 220.613 78.9336C220.769 78.9698 220.884 79.0602 220.956 79.2049C221.017 79.3134 221.035 79.4099 221.011 79.4943C220.998 79.5787 220.98 79.6691 220.956 79.7656C220.932 79.8138 220.914 79.8681 220.902 79.9284C220.89 79.9766 220.872 80.0369 220.848 80.1093C220.763 80.3143 220.673 80.5675 220.576 80.869C220.492 81.1584 220.402 81.4538 220.305 81.7553C220.245 81.9241 220.197 82.0688 220.16 82.1894C220.124 82.31 220.094 82.4185 220.07 82.515C220.299 82.4667 220.631 82.3281 221.065 82.0989C221.439 81.8939 221.837 81.6588 222.259 81.3935C222.693 81.1162 223.133 80.8268 223.579 80.5253C223.675 80.465 223.772 80.4047 223.868 80.3444C223.977 80.2841 224.073 80.2178 224.158 80.1455C224.29 80.061 224.429 80.0369 224.574 80.0731C224.731 80.0972 224.851 80.1756 224.936 80.3082C225.02 80.4288 225.044 80.5615 225.008 80.7062C224.984 80.8509 224.905 80.9654 224.773 81.0498C224.676 81.1222 224.574 81.1945 224.465 81.2669C224.369 81.3272 224.266 81.3935 224.158 81.4659C223.7 81.7673 223.253 82.0567 222.819 82.3341C222.385 82.6114 221.975 82.8526 221.589 83.0576C220.806 83.4676 220.185 83.6726 219.726 83.6726ZM226.412 83.6726C226.352 83.6726 226.292 83.6665 226.232 83.6545C226.171 83.6545 226.105 83.6485 226.033 83.6364C225.888 83.5882 225.767 83.4857 225.671 83.3289C225.623 83.2324 225.598 83.0998 225.598 82.931C225.598 82.7622 225.653 82.4848 225.761 82.0989C225.87 81.7131 226.045 81.1403 226.286 80.3806C226.021 80.4771 225.713 80.5916 225.363 80.7243C225.026 80.8569 224.676 80.9896 224.314 81.1222C224.182 81.1704 224.049 81.1644 223.916 81.1041C223.772 81.0318 223.669 80.9232 223.609 80.7785C223.561 80.6459 223.573 80.5132 223.645 80.3806C223.705 80.2359 223.808 80.1334 223.952 80.0731C224.471 79.8802 224.953 79.6993 225.4 79.5305C225.858 79.3617 226.232 79.223 226.521 79.1145C226.81 79.0059 226.955 78.9517 226.955 78.9517C227.076 78.9034 227.19 78.8974 227.299 78.9336C227.455 78.9698 227.57 79.0602 227.642 79.2049C227.703 79.3134 227.721 79.4099 227.697 79.4943C227.685 79.5787 227.667 79.6691 227.642 79.7656C227.618 79.8138 227.6 79.8681 227.588 79.9284C227.576 79.9766 227.558 80.0369 227.534 80.1093C227.449 80.3143 227.359 80.5675 227.263 80.869C227.178 81.1584 227.088 81.4538 226.991 81.7553C226.931 81.9241 226.883 82.0688 226.847 82.1894C226.81 82.31 226.78 82.4185 226.756 82.515C226.985 82.4667 227.317 82.3281 227.751 82.0989C228.125 81.8939 228.523 81.6588 228.945 81.3935C229.379 81.1162 229.819 80.8268 230.265 80.5253C230.362 80.465 230.458 80.4047 230.555 80.3444C230.663 80.2841 230.76 80.2178 230.844 80.1455C230.977 80.061 231.115 80.0369 231.26 80.0731C231.417 80.0972 231.537 80.1756 231.622 80.3082C231.706 80.4288 231.73 80.5615 231.694 80.7062C231.67 80.8509 231.592 80.9654 231.459 81.0498C231.362 81.1222 231.26 81.1945 231.151 81.2669C231.055 81.3272 230.952 81.3935 230.844 81.4659C230.386 81.7673 229.94 82.0567 229.505 82.3341C229.071 82.6114 228.661 82.8526 228.275 83.0576C227.492 83.4676 226.871 83.6726 226.412 83.6726ZM237.168 82.4245C237.084 82.4245 237.006 82.4125 236.933 82.3883C236.704 82.3401 236.541 82.2014 236.445 81.9723C236.372 81.7673 236.391 81.5382 236.499 81.285C236.62 81.0318 236.776 80.7484 236.969 80.4349C237.042 80.3263 237.108 80.2178 237.168 80.1093C237.241 79.9887 237.301 79.8802 237.349 79.7837C237.373 79.7475 237.391 79.7174 237.403 79.6933C237.416 79.6571 237.428 79.6269 237.44 79.6028C237.078 79.5425 236.656 79.5305 236.173 79.5666C235.703 79.5908 235.173 79.6812 234.582 79.838C234.063 79.9706 233.503 80.1455 232.9 80.3625C232.309 80.5675 231.682 80.8147 231.018 81.1041C230.886 81.1523 230.753 81.1523 230.621 81.1041C230.488 81.0559 230.391 80.9654 230.331 80.8328C230.259 80.7001 230.253 80.5615 230.313 80.4168C230.373 80.26 230.47 80.1575 230.602 80.1093C231.278 79.8078 231.923 79.5486 232.538 79.3315C233.165 79.1024 233.756 78.9215 234.31 78.7889C235.794 78.4151 237.006 78.3548 237.946 78.608C238.223 78.6803 238.416 78.8492 238.525 79.1145C238.633 79.3797 238.609 79.6752 238.453 80.0008C238.296 80.3263 238.109 80.664 237.892 81.0137C237.88 81.0378 237.862 81.0679 237.838 81.1041C237.813 81.1403 237.789 81.1825 237.765 81.2307C238.043 81.1704 238.453 81.0498 238.995 80.869C239.538 80.6881 240.285 80.4228 241.238 80.0731C241.371 80.0249 241.503 80.0369 241.636 80.1093C241.781 80.1696 241.877 80.2721 241.925 80.4168C241.986 80.5494 241.986 80.6881 241.925 80.8328C241.865 80.9654 241.757 81.0619 241.6 81.1222C241.045 81.3151 240.539 81.49 240.08 81.6467C239.622 81.8035 239.212 81.9361 238.85 82.0447C238.368 82.1894 238 82.2919 237.747 82.3522C237.494 82.4004 237.301 82.4245 237.168 82.4245ZM245.233 82.6054C245.088 82.6054 244.968 82.5632 244.871 82.4788C244.678 82.322 244.624 82.1231 244.709 81.8819C244.709 81.8698 244.751 81.7251 244.835 81.4478C244.932 81.1704 245.04 80.8569 245.161 80.5072C245.221 80.3022 245.275 80.1274 245.323 79.9827C245.372 79.8259 245.414 79.6872 245.45 79.5666C245.125 79.6872 244.727 79.838 244.256 80.0188C243.786 80.1877 243.292 80.3685 242.773 80.5615C242.267 80.7544 241.772 80.9413 241.29 81.1222C241.157 81.1704 241.025 81.1644 240.892 81.1041C240.747 81.0318 240.645 80.9232 240.584 80.7785C240.536 80.6459 240.548 80.5132 240.621 80.3806C240.681 80.2359 240.783 80.1334 240.928 80.0731C241.471 79.8802 242.032 79.6812 242.61 79.4762C243.189 79.2592 243.726 79.0602 244.22 78.8793C244.715 78.6864 245.119 78.5296 245.432 78.409C245.746 78.2884 245.902 78.2282 245.902 78.2282C245.963 78.2161 246.023 78.2101 246.083 78.2101C246.143 78.198 246.198 78.204 246.246 78.2282C246.415 78.2523 246.535 78.3487 246.608 78.5176C246.668 78.614 246.692 78.7406 246.68 78.8974C246.68 79.0421 246.65 79.2531 246.59 79.5305C246.553 79.6872 246.505 79.8621 246.445 80.055C246.397 80.2359 246.33 80.4469 246.246 80.6881C246.234 80.7363 246.222 80.7785 246.21 80.8147C246.198 80.8509 246.186 80.8931 246.174 80.9413C246.656 80.676 247.247 80.3987 247.946 80.1093C248.079 80.049 248.212 80.049 248.344 80.1093C248.489 80.1575 248.585 80.248 248.634 80.3806C248.706 80.5132 248.712 80.6519 248.652 80.7966C248.591 80.9413 248.495 81.0438 248.362 81.1041C247.82 81.3453 247.331 81.5744 246.897 81.7914C246.475 82.0085 246.137 82.1833 245.884 82.316C245.631 82.4486 245.504 82.515 245.504 82.515C245.432 82.5753 245.342 82.6054 245.233 82.6054ZM254.126 82.4245C254.042 82.4245 253.964 82.4125 253.891 82.3883C253.662 82.3401 253.499 82.2014 253.403 81.9723C253.33 81.7673 253.349 81.5382 253.457 81.285C253.578 81.0318 253.734 80.7484 253.927 80.4349C254 80.3263 254.066 80.2178 254.126 80.1093C254.199 79.9887 254.259 79.8802 254.307 79.7837C254.331 79.7475 254.349 79.7174 254.361 79.6933C254.374 79.6571 254.386 79.6269 254.398 79.6028C254.036 79.5425 253.614 79.5305 253.131 79.5666C252.661 79.5908 252.131 79.6812 251.54 79.838C251.021 79.9706 250.461 80.1455 249.858 80.3625C249.267 80.5675 248.64 80.8147 247.976 81.1041C247.844 81.1523 247.711 81.1523 247.579 81.1041C247.446 81.0559 247.349 80.9654 247.289 80.8328C247.217 80.7001 247.211 80.5615 247.271 80.4168C247.331 80.26 247.428 80.1575 247.56 80.1093C248.236 79.8078 248.881 79.5486 249.496 79.3315C250.123 79.1024 250.714 78.9215 251.268 78.7889C252.752 78.4151 253.964 78.3548 254.904 78.608C255.181 78.6803 255.374 78.8492 255.483 79.1145C255.591 79.3797 255.567 79.6752 255.411 80.0008C255.254 80.3263 255.067 80.664 254.85 81.0137C254.838 81.0378 254.82 81.0679 254.796 81.1041C254.771 81.1403 254.747 81.1825 254.723 81.2307C255.001 81.1704 255.411 81.0498 255.953 80.869C256.496 80.6881 257.243 80.4228 258.196 80.0731C258.329 80.0249 258.461 80.0369 258.594 80.1093C258.739 80.1696 258.835 80.2721 258.883 80.4168C258.944 80.5494 258.944 80.6881 258.883 80.8328C258.823 80.9654 258.715 81.0619 258.558 81.1222C258.003 81.3151 257.497 81.49 257.038 81.6467C256.58 81.8035 256.17 81.9361 255.808 82.0447C255.326 82.1894 254.958 82.2919 254.705 82.3522C254.452 82.4004 254.259 82.4245 254.126 82.4245ZM262.191 82.6054C262.046 82.6054 261.926 82.5632 261.829 82.4788C261.636 82.322 261.582 82.1231 261.667 81.8819C261.667 81.8698 261.709 81.7251 261.793 81.4478C261.89 81.1704 261.998 80.8569 262.119 80.5072C262.179 80.3022 262.233 80.1274 262.282 79.9827C262.33 79.8259 262.372 79.6872 262.408 79.5666C262.083 79.6872 261.685 79.838 261.214 80.0188C260.744 80.1877 260.25 80.3685 259.731 80.5615C259.225 80.7544 258.73 80.9413 258.248 81.1222C258.115 81.1704 257.983 81.1644 257.85 81.1041C257.705 81.0318 257.603 80.9232 257.543 80.7785C257.494 80.6459 257.506 80.5132 257.579 80.3806C257.639 80.2359 257.741 80.1334 257.886 80.0731C258.429 79.8802 258.99 79.6812 259.568 79.4762C260.147 79.2592 260.684 79.0602 261.178 78.8793C261.673 78.6864 262.077 78.5296 262.39 78.409C262.704 78.2884 262.86 78.2282 262.86 78.2282C262.921 78.2161 262.981 78.2101 263.041 78.2101C263.101 78.198 263.156 78.204 263.204 78.2282C263.373 78.2523 263.493 78.3487 263.566 78.5176C263.626 78.614 263.65 78.7406 263.638 78.8974C263.638 79.0421 263.608 79.2531 263.548 79.5305C263.511 79.6872 263.463 79.8621 263.403 80.055C263.355 80.2359 263.288 80.4469 263.204 80.6881C263.192 80.7363 263.18 80.7785 263.168 80.8147C263.156 80.8509 263.144 80.8931 263.132 80.9413C263.614 80.676 264.205 80.3987 264.904 80.1093C265.037 80.049 265.17 80.049 265.302 80.1093C265.447 80.1575 265.543 80.248 265.592 80.3806C265.664 80.5132 265.67 80.6519 265.61 80.7966C265.549 80.9413 265.453 81.0438 265.32 81.1041C264.778 81.3453 264.289 81.5744 263.855 81.7914C263.433 82.0085 263.095 82.1833 262.842 82.316C262.589 82.4486 262.462 82.515 262.462 82.515C262.39 82.5753 262.3 82.6054 262.191 82.6054Z" fill="#4A4A4A"/>
<path d="M169.464 93.7139C169.404 93.7139 169.356 93.7079 169.32 93.6959C169.127 93.6476 168.988 93.5753 168.904 93.4788C168.831 93.3703 168.783 93.2859 168.759 93.2256C168.674 92.9603 168.705 92.689 168.849 92.4116C168.994 92.1222 169.181 91.8208 169.41 91.5072C169.482 91.4108 169.549 91.3083 169.609 91.1997C169.681 91.0792 169.742 90.9767 169.79 90.8923C169.802 90.8802 169.82 90.8561 169.844 90.8199C169.772 90.844 169.681 90.8802 169.573 90.9284C169.476 90.9767 169.362 91.049 169.229 91.1455C169.012 91.2781 168.783 91.453 168.542 91.67C168.301 91.875 168.053 92.0921 167.8 92.3212C167.74 92.3694 167.674 92.4237 167.601 92.484C167.541 92.5443 167.481 92.6046 167.42 92.6649C167.312 92.7613 167.185 92.8096 167.041 92.8096C166.884 92.7975 166.757 92.7312 166.661 92.6106C166.552 92.5021 166.504 92.3755 166.516 92.2307C166.528 92.074 166.588 91.9474 166.697 91.8509C166.757 91.7906 166.823 91.7303 166.896 91.67C166.956 91.6097 167.016 91.5555 167.077 91.5072C167.463 91.1575 167.842 90.838 168.216 90.5486C168.59 90.2471 168.958 90.018 169.32 89.8612C169.681 89.7045 170.031 89.6743 170.369 89.7708C170.574 89.819 170.718 89.9035 170.803 90.024C170.899 90.1326 170.953 90.229 170.966 90.3134C171.074 90.5787 171.05 90.8621 170.893 91.1636C170.736 91.453 170.537 91.7725 170.296 92.1222C170.272 92.1463 170.242 92.1885 170.206 92.2488C170.182 92.2971 170.152 92.3453 170.115 92.3935C170.296 92.3212 170.531 92.2307 170.821 92.1222C171.11 92.0137 171.46 91.8811 171.87 91.7243C172.027 91.6761 172.171 91.6881 172.304 91.7605C172.437 91.8208 172.527 91.9233 172.575 92.068C172.636 92.2006 172.63 92.3393 172.557 92.484C172.497 92.6166 172.401 92.7131 172.268 92.7734C171.882 92.906 171.532 93.0266 171.219 93.1351C170.905 93.2437 170.64 93.3401 170.423 93.4245C170.302 93.4728 170.194 93.515 170.097 93.5512C170.013 93.5753 169.935 93.5994 169.862 93.6235C169.778 93.6476 169.705 93.6717 169.645 93.6959C169.585 93.7079 169.525 93.7139 169.464 93.7139ZM173.125 95.2876C173.041 95.2876 172.956 95.2755 172.872 95.2514C172.787 95.2394 172.703 95.2273 172.619 95.2152C172.402 95.1549 172.251 95.0283 172.166 94.8354C172.058 94.5942 172.058 94.3048 172.166 93.9672C172.287 93.6175 172.48 93.1713 172.745 92.6287C172.793 92.5322 172.842 92.4237 172.89 92.3031C172.95 92.1825 173.004 92.068 173.053 91.9594C172.896 92.0197 172.727 92.1222 172.546 92.2669C172.377 92.3996 172.203 92.5382 172.022 92.6829C171.901 92.7674 171.768 92.8035 171.624 92.7915C171.467 92.7674 171.34 92.701 171.244 92.5925C171.16 92.4719 171.129 92.3393 171.154 92.1946C171.166 92.0499 171.226 91.9233 171.334 91.8147C171.503 91.6941 171.678 91.5615 171.859 91.4168C172.052 91.2721 172.245 91.1515 172.438 91.055C172.932 90.8018 173.384 90.7355 173.794 90.8561C173.987 90.8923 174.132 91.0128 174.228 91.2178C174.325 91.4108 174.319 91.6519 174.21 91.9413C174.114 92.2307 173.945 92.6227 173.704 93.1171C173.644 93.2618 173.577 93.4065 173.505 93.5512C173.445 93.6959 173.384 93.8345 173.324 93.9672C173.312 94.0154 173.294 94.0576 173.27 94.0938C173.258 94.13 173.246 94.1661 173.234 94.2023C173.487 94.1661 173.855 94.0395 174.337 93.8225C174.831 93.5934 175.495 93.1472 176.327 92.484C176.773 92.1343 177.177 91.7966 177.538 91.4711C177.9 91.1334 178.19 90.8561 178.407 90.639C178.624 90.422 178.732 90.3134 178.732 90.3134C178.877 90.1446 179.052 90.0904 179.257 90.1507C179.353 90.1627 179.432 90.2049 179.492 90.2773C179.552 90.3376 179.601 90.3979 179.637 90.4581C179.721 90.627 179.727 90.8259 179.655 91.055C179.594 91.2721 179.462 91.6278 179.257 92.1222C179.184 92.279 179.112 92.4357 179.04 92.5925C178.979 92.7493 178.919 92.894 178.859 93.0266C178.847 93.0748 178.835 93.1171 178.823 93.1532C178.823 93.1773 178.817 93.2015 178.805 93.2256C179.034 93.1894 179.275 93.0929 179.528 92.9362C179.793 92.7674 180.047 92.5804 180.288 92.3755C180.541 92.1705 180.752 91.9956 180.921 91.8509C181.041 91.7424 181.174 91.6941 181.319 91.7062C181.464 91.7183 181.59 91.7786 181.699 91.8871C181.795 92.0077 181.837 92.1403 181.825 92.285C181.825 92.4297 181.765 92.5563 181.644 92.6649C181.271 92.9904 180.885 93.2979 180.487 93.5873C180.101 93.8767 179.709 94.0938 179.311 94.2385C178.925 94.3711 178.533 94.3892 178.135 94.2928C177.942 94.2083 177.804 94.0878 177.719 93.931C177.647 93.7622 177.623 93.5753 177.647 93.3703C177.683 93.1653 177.756 92.9121 177.864 92.6106C177.731 92.7312 177.593 92.8457 177.448 92.9543C177.315 93.0628 177.171 93.1834 177.014 93.316C175.35 94.6304 174.054 95.2876 173.125 95.2876ZM187.292 94.0757C187.208 94.0757 187.129 94.0636 187.057 94.0395C186.828 93.9913 186.665 93.8526 186.568 93.6235C186.496 93.4185 186.514 93.1894 186.623 92.9362C186.743 92.6829 186.9 92.3996 187.093 92.086C187.165 91.9775 187.232 91.869 187.292 91.7605C187.364 91.6399 187.425 91.5314 187.473 91.4349C187.497 91.3987 187.515 91.3686 187.527 91.3444C187.539 91.3083 187.551 91.2781 187.563 91.254C187.201 91.1937 186.779 91.1817 186.297 91.2178C185.827 91.2419 185.296 91.3324 184.705 91.4891C184.187 91.6218 183.626 91.7966 183.023 92.0137C182.432 92.2187 181.805 92.4659 181.142 92.7553C181.009 92.8035 180.877 92.8035 180.744 92.7553C180.611 92.7071 180.515 92.6166 180.455 92.484C180.382 92.3513 180.376 92.2127 180.437 92.068C180.497 91.9112 180.593 91.8087 180.726 91.7605C181.401 91.459 182.046 91.1997 182.661 90.9827C183.288 90.7536 183.879 90.5727 184.434 90.4401C185.917 90.0662 187.129 90.0059 188.07 90.2592C188.347 90.3315 188.54 90.5003 188.648 90.7656C188.757 91.0309 188.733 91.3264 188.576 91.6519C188.419 91.9775 188.232 92.3152 188.015 92.6649C188.003 92.689 187.985 92.7191 187.961 92.7553C187.937 92.7915 187.913 92.8337 187.889 92.8819C188.166 92.8216 188.576 92.701 189.119 92.5202C189.661 92.3393 190.409 92.074 191.362 91.7243C191.494 91.6761 191.627 91.6881 191.76 91.7605C191.904 91.8208 192.001 91.9233 192.049 92.068C192.109 92.2006 192.109 92.3393 192.049 92.484C191.989 92.6166 191.88 92.7131 191.723 92.7734C191.169 92.9663 190.662 93.1412 190.204 93.2979C189.746 93.4547 189.336 93.5873 188.974 93.6959C188.492 93.8406 188.124 93.9431 187.871 94.0034C187.617 94.0516 187.425 94.0757 187.292 94.0757ZM193.638 93.7139C193.578 93.7139 193.53 93.7079 193.494 93.6959C193.301 93.6476 193.162 93.5753 193.078 93.4788C193.005 93.3703 192.957 93.2859 192.933 93.2256C192.848 92.9603 192.879 92.689 193.023 92.4116C193.168 92.1222 193.355 91.8208 193.584 91.5072C193.656 91.4108 193.723 91.3083 193.783 91.1997C193.855 91.0792 193.916 90.9767 193.964 90.8923C193.976 90.8802 193.994 90.8561 194.018 90.8199C193.946 90.844 193.855 90.8802 193.747 90.9284C193.65 90.9767 193.536 91.049 193.403 91.1455C193.186 91.2781 192.957 91.453 192.716 91.67C192.475 91.875 192.227 92.0921 191.974 92.3212C191.914 92.3694 191.848 92.4237 191.775 92.484C191.715 92.5443 191.655 92.6046 191.594 92.6649C191.486 92.7613 191.359 92.8096 191.215 92.8096C191.058 92.7975 190.931 92.7312 190.835 92.6106C190.726 92.5021 190.678 92.3755 190.69 92.2307C190.702 92.074 190.762 91.9474 190.871 91.8509C190.931 91.7906 190.998 91.7303 191.07 91.67C191.13 91.6097 191.19 91.5555 191.251 91.5072C191.637 91.1575 192.016 90.838 192.39 90.5486C192.764 90.2471 193.132 90.018 193.494 89.8612C193.855 89.7045 194.205 89.6743 194.543 89.7708C194.748 89.819 194.892 89.9035 194.977 90.024C195.073 90.1326 195.128 90.229 195.14 90.3134C195.248 90.5787 195.224 90.8621 195.067 91.1636C194.911 91.453 194.712 91.7725 194.47 92.1222C194.446 92.1463 194.416 92.1885 194.38 92.2488C194.356 92.2971 194.326 92.3453 194.289 92.3935C194.47 92.3212 194.706 92.2307 194.995 92.1222C195.284 92.0137 195.634 91.8811 196.044 91.7243C196.201 91.6761 196.345 91.6881 196.478 91.7605C196.611 91.8208 196.701 91.9233 196.749 92.068C196.81 92.2006 196.804 92.3393 196.731 92.484C196.671 92.6166 196.575 92.7131 196.442 92.7734C196.056 92.906 195.706 93.0266 195.393 93.1351C195.079 93.2437 194.814 93.3401 194.597 93.4245C194.476 93.4728 194.368 93.515 194.271 93.5512C194.187 93.5753 194.109 93.5994 194.036 93.6235C193.952 93.6476 193.879 93.6717 193.819 93.6959C193.759 93.7079 193.699 93.7139 193.638 93.7139ZM197.299 95.2876C197.215 95.2876 197.13 95.2755 197.046 95.2514C196.961 95.2394 196.877 95.2273 196.793 95.2152C196.576 95.1549 196.425 95.0283 196.34 94.8354C196.232 94.5942 196.232 94.3048 196.34 93.9672C196.461 93.6175 196.654 93.1713 196.919 92.6287C196.968 92.5322 197.016 92.4237 197.064 92.3031C197.124 92.1825 197.179 92.068 197.227 91.9594C197.07 92.0197 196.901 92.1222 196.72 92.2669C196.551 92.3996 196.377 92.5382 196.196 92.6829C196.075 92.7674 195.943 92.8035 195.798 92.7915C195.641 92.7674 195.514 92.701 195.418 92.5925C195.334 92.4719 195.303 92.3393 195.328 92.1946C195.34 92.0499 195.4 91.9233 195.508 91.8147C195.677 91.6941 195.852 91.5615 196.033 91.4168C196.226 91.2721 196.419 91.1515 196.612 91.055C197.106 90.8018 197.558 90.7355 197.968 90.8561C198.161 90.8923 198.306 91.0128 198.402 91.2178C198.499 91.4108 198.493 91.6519 198.384 91.9413C198.288 92.2307 198.119 92.6227 197.878 93.1171C197.818 93.2618 197.751 93.4065 197.679 93.5512C197.619 93.6959 197.558 93.8345 197.498 93.9672C197.486 94.0154 197.468 94.0576 197.444 94.0938C197.432 94.13 197.42 94.1661 197.408 94.2023C197.661 94.1661 198.029 94.0395 198.511 93.8225C199.005 93.5934 199.669 93.1472 200.501 92.484C200.947 92.1343 201.351 91.7966 201.713 91.4711C202.074 91.1334 202.364 90.8561 202.581 90.639C202.798 90.422 202.906 90.3134 202.906 90.3134C203.051 90.1446 203.226 90.0904 203.431 90.1507C203.527 90.1627 203.606 90.2049 203.666 90.2773C203.726 90.3376 203.775 90.3979 203.811 90.4581C203.895 90.627 203.901 90.8259 203.829 91.055C203.769 91.2721 203.636 91.6278 203.431 92.1222C203.359 92.279 203.286 92.4357 203.214 92.5925C203.154 92.7493 203.093 92.894 203.033 93.0266C203.021 93.0748 203.009 93.1171 202.997 93.1532C202.997 93.1773 202.991 93.2015 202.979 93.2256C203.208 93.1894 203.449 93.0929 203.702 92.9362C203.967 92.7674 204.221 92.5804 204.462 92.3755C204.715 92.1705 204.926 91.9956 205.095 91.8509C205.216 91.7424 205.348 91.6941 205.493 91.7062C205.638 91.7183 205.764 91.7786 205.873 91.8871C205.969 92.0077 206.011 92.1403 205.999 92.285C205.999 92.4297 205.939 92.5563 205.818 92.6649C205.445 92.9904 205.059 93.2979 204.661 93.5873C204.275 93.8767 203.883 94.0938 203.485 94.2385C203.099 94.3711 202.707 94.3892 202.309 94.2928C202.117 94.2083 201.978 94.0878 201.893 93.931C201.821 93.7622 201.797 93.5753 201.821 93.3703C201.857 93.1653 201.93 92.9121 202.038 92.6106C201.905 92.7312 201.767 92.8457 201.622 92.9543C201.489 93.0628 201.345 93.1834 201.188 93.316C199.524 94.6304 198.228 95.2876 197.299 95.2876ZM211.466 94.0757C211.382 94.0757 211.303 94.0636 211.231 94.0395C211.002 93.9913 210.839 93.8526 210.742 93.6235C210.67 93.4185 210.688 93.1894 210.797 92.9362C210.917 92.6829 211.074 92.3996 211.267 92.086C211.339 91.9775 211.406 91.869 211.466 91.7605C211.538 91.6399 211.599 91.5314 211.647 91.4349C211.671 91.3987 211.689 91.3686 211.701 91.3444C211.713 91.3083 211.725 91.2781 211.737 91.254C211.376 91.1937 210.953 91.1817 210.471 91.2178C210.001 91.2419 209.47 91.3324 208.879 91.4891C208.361 91.6218 207.8 91.7966 207.197 92.0137C206.606 92.2187 205.979 92.4659 205.316 92.7553C205.183 92.8035 205.051 92.8035 204.918 92.7553C204.786 92.7071 204.689 92.6166 204.629 92.484C204.556 92.3513 204.55 92.2127 204.611 92.068C204.671 91.9112 204.767 91.8087 204.9 91.7605C205.575 91.459 206.221 91.1997 206.835 90.9827C207.463 90.7536 208.053 90.5727 208.608 90.4401C210.091 90.0662 211.303 90.0059 212.244 90.2592C212.521 90.3315 212.714 90.5003 212.823 90.7656C212.931 91.0309 212.907 91.3264 212.75 91.6519C212.593 91.9775 212.407 92.3152 212.189 92.6649C212.177 92.689 212.159 92.7191 212.135 92.7553C212.111 92.7915 212.087 92.8337 212.063 92.8819C212.34 92.8216 212.75 92.701 213.293 92.5202C213.835 92.3393 214.583 92.074 215.536 91.7243C215.668 91.6761 215.801 91.6881 215.934 91.7605C216.078 91.8208 216.175 91.9233 216.223 92.068C216.283 92.2006 216.283 92.3393 216.223 92.484C216.163 92.6166 216.054 92.7131 215.897 92.7734C215.343 92.9663 214.836 93.1412 214.378 93.2979C213.92 93.4547 213.51 93.5873 213.148 93.6959C212.666 93.8406 212.298 93.9431 212.045 94.0034C211.792 94.0516 211.599 94.0757 211.466 94.0757ZM221.756 94.0757C221.671 94.0757 221.593 94.0636 221.52 94.0395C221.291 93.9913 221.128 93.8526 221.032 93.6235C220.96 93.4185 220.978 93.1894 221.086 92.9362C221.207 92.6829 221.364 92.3996 221.557 92.086C221.629 91.9775 221.695 91.869 221.756 91.7605C221.828 91.6399 221.888 91.5314 221.936 91.4349C221.961 91.3987 221.979 91.3686 221.991 91.3444C222.003 91.3083 222.015 91.2781 222.027 91.254C221.665 91.1937 221.243 91.1817 220.761 91.2178C220.29 91.2419 219.76 91.3324 219.169 91.4891C218.65 91.6218 218.09 91.7966 217.487 92.0137C216.896 92.2187 216.269 92.4659 215.606 92.7553C215.473 92.8035 215.34 92.8035 215.208 92.7553C215.075 92.7071 214.979 92.6166 214.918 92.484C214.846 92.3513 214.84 92.2127 214.9 92.068C214.961 91.9112 215.057 91.8087 215.19 91.7605C215.865 91.459 216.51 91.1997 217.125 90.9827C217.752 90.7536 218.343 90.5727 218.898 90.4401C220.381 90.0662 221.593 90.0059 222.533 90.2592C222.811 90.3315 223.004 90.5003 223.112 90.7656C223.221 91.0309 223.197 91.3264 223.04 91.6519C222.883 91.9775 222.696 92.3152 222.479 92.6649C222.467 92.689 222.449 92.7191 222.425 92.7553C222.401 92.7915 222.377 92.8337 222.352 92.8819C222.63 92.8216 223.04 92.701 223.582 92.5202C224.125 92.3393 224.873 92.074 225.825 91.7243C225.958 91.6761 226.091 91.6881 226.223 91.7605C226.368 91.8208 226.464 91.9233 226.513 92.068C226.573 92.2006 226.573 92.3393 226.513 92.484C226.452 92.6166 226.344 92.7131 226.187 92.7734C225.632 92.9663 225.126 93.1412 224.668 93.2979C224.209 93.4547 223.799 93.5873 223.438 93.6959C222.955 93.8406 222.588 93.9431 222.334 94.0034C222.081 94.0516 221.888 94.0757 221.756 94.0757ZM232.045 94.0757C231.961 94.0757 231.882 94.0636 231.81 94.0395C231.581 93.9913 231.418 93.8526 231.322 93.6235C231.249 93.4185 231.267 93.1894 231.376 92.9362C231.496 92.6829 231.653 92.3996 231.846 92.086C231.918 91.9775 231.985 91.869 232.045 91.7605C232.117 91.6399 232.178 91.5314 232.226 91.4349C232.25 91.3987 232.268 91.3686 232.28 91.3444C232.292 91.3083 232.304 91.2781 232.316 91.254C231.955 91.1937 231.533 91.1817 231.05 91.2178C230.58 91.2419 230.049 91.3324 229.459 91.4891C228.94 91.6218 228.379 91.7966 227.776 92.0137C227.185 92.2187 226.558 92.4659 225.895 92.7553C225.763 92.8035 225.63 92.8035 225.497 92.7553C225.365 92.7071 225.268 92.6166 225.208 92.484C225.136 92.3513 225.13 92.2127 225.19 92.068C225.25 91.9112 225.347 91.8087 225.479 91.7605C226.154 91.459 226.8 91.1997 227.415 90.9827C228.042 90.7536 228.633 90.5727 229.187 90.4401C230.67 90.0662 231.882 90.0059 232.823 90.2592C233.1 90.3315 233.293 90.5003 233.402 90.7656C233.51 91.0309 233.486 91.3264 233.329 91.6519C233.173 91.9775 232.986 92.3152 232.769 92.6649C232.757 92.689 232.738 92.7191 232.714 92.7553C232.69 92.7915 232.666 92.8337 232.642 92.8819C232.919 92.8216 233.329 92.701 233.872 92.5202C234.415 92.3393 235.162 92.074 236.115 91.7243C236.247 91.6761 236.38 91.6881 236.513 91.7605C236.657 91.8208 236.754 91.9233 236.802 92.068C236.862 92.2006 236.862 92.3393 236.802 92.484C236.742 92.6166 236.633 92.7131 236.477 92.7734C235.922 92.9663 235.415 93.1412 234.957 93.2979C234.499 93.4547 234.089 93.5873 233.727 93.6959C233.245 93.8406 232.877 93.9431 232.624 94.0034C232.371 94.0516 232.178 94.0757 232.045 94.0757ZM240.11 94.2566C239.965 94.2566 239.845 94.2144 239.748 94.13C239.555 93.9732 239.501 93.7742 239.585 93.5331C239.585 93.521 239.627 93.3763 239.712 93.099C239.808 92.8216 239.917 92.5081 240.037 92.1584C240.098 91.9534 240.152 91.7786 240.2 91.6339C240.249 91.4771 240.291 91.3384 240.327 91.2178C240.001 91.3384 239.603 91.4891 239.133 91.67C238.663 91.8388 238.168 92.0197 237.65 92.2127C237.143 92.4056 236.649 92.5925 236.167 92.7734C236.034 92.8216 235.901 92.8156 235.769 92.7553C235.624 92.6829 235.522 92.5744 235.461 92.4297C235.413 92.2971 235.425 92.1644 235.497 92.0318C235.558 91.8871 235.66 91.7846 235.805 91.7243C236.348 91.5314 236.908 91.3324 237.487 91.1274C238.066 90.9103 238.603 90.7114 239.097 90.5305C239.591 90.3376 239.995 90.1808 240.309 90.0602C240.622 89.9396 240.779 89.8793 240.779 89.8793C240.839 89.8673 240.9 89.8612 240.96 89.8612C241.02 89.8492 241.075 89.8552 241.123 89.8793C241.292 89.9035 241.412 89.9999 241.484 90.1687C241.545 90.2652 241.569 90.3918 241.557 90.5486C241.557 90.6933 241.527 90.9043 241.466 91.1817C241.43 91.3384 241.382 91.5133 241.322 91.7062C241.273 91.8871 241.207 92.0981 241.123 92.3393C241.111 92.3875 241.099 92.4297 241.087 92.4659C241.075 92.5021 241.062 92.5443 241.05 92.5925C241.533 92.3272 242.124 92.0499 242.823 91.7605C242.956 91.7002 243.088 91.7002 243.221 91.7605C243.366 91.8087 243.462 91.8991 243.51 92.0318C243.583 92.1644 243.589 92.3031 243.528 92.4478C243.468 92.5925 243.372 92.695 243.239 92.7553C242.696 92.9965 242.208 93.2256 241.774 93.4426C241.352 93.6597 241.014 93.8345 240.761 93.9672C240.508 94.0998 240.381 94.1661 240.381 94.1661C240.309 94.2264 240.218 94.2566 240.11 94.2566ZM246.778 94.2566C246.634 94.2566 246.513 94.2144 246.417 94.13C246.224 93.9732 246.169 93.7742 246.254 93.5331C246.254 93.521 246.296 93.3763 246.38 93.099C246.477 92.8216 246.585 92.5081 246.706 92.1584C246.766 91.9534 246.82 91.7786 246.869 91.6339C246.917 91.4771 246.959 91.3384 246.995 91.2178C246.67 91.3384 246.272 91.4891 245.802 91.67C245.331 91.8388 244.837 92.0197 244.318 92.2127C243.812 92.4056 243.317 92.5925 242.835 92.7734C242.703 92.8216 242.57 92.8156 242.437 92.7553C242.293 92.6829 242.19 92.5744 242.13 92.4297C242.081 92.2971 242.094 92.1644 242.166 92.0318C242.226 91.8871 242.329 91.7846 242.473 91.7243C243.016 91.5314 243.577 91.3324 244.156 91.1274C244.734 90.9103 245.271 90.7114 245.765 90.5305C246.26 90.3376 246.664 90.1808 246.977 90.0602C247.291 89.9396 247.448 89.8793 247.448 89.8793C247.508 89.8673 247.568 89.8612 247.628 89.8612C247.689 89.8492 247.743 89.8552 247.791 89.8793C247.96 89.9035 248.081 89.9999 248.153 90.1687C248.213 90.2652 248.237 90.3918 248.225 90.5486C248.225 90.6933 248.195 90.9043 248.135 91.1817C248.099 91.3384 248.05 91.5133 247.99 91.7062C247.942 91.8871 247.876 92.0981 247.791 92.3393C247.779 92.3875 247.767 92.4297 247.755 92.4659C247.743 92.5021 247.731 92.5443 247.719 92.5925C248.201 92.3272 248.792 92.0499 249.491 91.7605C249.624 91.7002 249.757 91.7002 249.889 91.7605C250.034 91.8087 250.131 91.8991 250.179 92.0318C250.251 92.1644 250.257 92.3031 250.197 92.4478C250.137 92.5925 250.04 92.695 249.907 92.7553C249.365 92.9965 248.876 93.2256 248.442 93.4426C248.02 93.6597 247.683 93.8345 247.429 93.9672C247.176 94.0998 247.05 94.1661 247.05 94.1661C246.977 94.2264 246.887 94.2566 246.778 94.2566ZM250.77 95.2876C250.685 95.2876 250.601 95.2755 250.517 95.2514C250.432 95.2394 250.348 95.2273 250.263 95.2152C250.046 95.1549 249.896 95.0283 249.811 94.8354C249.703 94.5942 249.703 94.3048 249.811 93.9672C249.932 93.6175 250.125 93.1713 250.39 92.6287C250.438 92.5322 250.486 92.4237 250.535 92.3031C250.595 92.1825 250.649 92.068 250.697 91.9594C250.541 92.0197 250.372 92.1222 250.191 92.2669C250.022 92.3996 249.847 92.5382 249.666 92.6829C249.546 92.7674 249.413 92.8035 249.268 92.7915C249.112 92.7674 248.985 92.701 248.889 92.5925C248.804 92.4719 248.774 92.3393 248.798 92.1946C248.81 92.0499 248.871 91.9233 248.979 91.8147C249.148 91.6941 249.323 91.5615 249.504 91.4168C249.697 91.2721 249.889 91.1515 250.082 91.055C250.577 90.8018 251.029 90.7355 251.439 90.8561C251.632 90.8923 251.777 91.0128 251.873 91.2178C251.97 91.4108 251.964 91.6519 251.855 91.9413C251.759 92.2307 251.59 92.6227 251.349 93.1171C251.288 93.2618 251.222 93.4065 251.15 93.5512C251.089 93.6959 251.029 93.8345 250.969 93.9672C250.957 94.0154 250.939 94.0576 250.914 94.0938C250.902 94.13 250.89 94.1661 250.878 94.2023C251.132 94.1661 251.499 94.0395 251.982 93.8225C252.476 93.5934 253.139 93.1472 253.971 92.484C254.417 92.1343 254.821 91.7966 255.183 91.4711C255.545 91.1334 255.834 90.8561 256.051 90.639C256.268 90.422 256.377 90.3134 256.377 90.3134C256.522 90.1446 256.697 90.0904 256.902 90.1507C256.998 90.1627 257.076 90.2049 257.137 90.2773C257.197 90.3376 257.245 90.3979 257.281 90.4581C257.366 90.627 257.372 90.8259 257.299 91.055C257.239 91.2721 257.107 91.6278 256.902 92.1222C256.829 92.279 256.757 92.4357 256.684 92.5925C256.624 92.7493 256.564 92.894 256.504 93.0266C256.492 93.0748 256.479 93.1171 256.467 93.1532C256.467 93.1773 256.461 93.2015 256.449 93.2256C256.678 93.1894 256.92 93.0929 257.173 92.9362C257.438 92.7674 257.691 92.5804 257.933 92.3755C258.186 92.1705 258.397 91.9956 258.566 91.8509C258.686 91.7424 258.819 91.6941 258.964 91.7062C259.108 91.7183 259.235 91.7786 259.343 91.8871C259.44 92.0077 259.482 92.1403 259.47 92.285C259.47 92.4297 259.41 92.5563 259.289 92.6649C258.915 92.9904 258.529 93.2979 258.131 93.5873C257.746 93.8767 257.354 94.0938 256.956 94.2385C256.57 94.3711 256.178 94.3892 255.78 94.2928C255.587 94.2083 255.448 94.0878 255.364 93.931C255.292 93.7622 255.268 93.5753 255.292 93.3703C255.328 93.1653 255.4 92.9121 255.509 92.6106C255.376 92.7312 255.237 92.8457 255.093 92.9543C254.96 93.0628 254.815 93.1834 254.659 93.316C252.995 94.6304 251.698 95.2876 250.77 95.2876ZM260.993 93.7139C260.933 93.7139 260.885 93.7079 260.849 93.6959C260.656 93.6476 260.517 93.5753 260.433 93.4788C260.36 93.3703 260.312 93.2859 260.288 93.2256C260.204 92.9603 260.234 92.689 260.378 92.4116C260.523 92.1222 260.71 91.8208 260.939 91.5072C261.012 91.4108 261.078 91.3083 261.138 91.1997C261.211 91.0792 261.271 90.9767 261.319 90.8923C261.331 90.8802 261.349 90.8561 261.373 90.8199C261.301 90.844 261.211 90.8802 261.102 90.9284C261.006 90.9767 260.891 91.049 260.758 91.1455C260.541 91.2781 260.312 91.453 260.071 91.67C259.83 91.875 259.583 92.0921 259.329 92.3212C259.269 92.3694 259.203 92.4237 259.13 92.484C259.07 92.5443 259.01 92.6046 258.95 92.6649C258.841 92.7613 258.714 92.8096 258.57 92.8096C258.413 92.7975 258.286 92.7312 258.19 92.6106C258.081 92.5021 258.033 92.3755 258.045 92.2307C258.057 92.074 258.118 91.9474 258.226 91.8509C258.286 91.7906 258.353 91.7303 258.425 91.67C258.485 91.6097 258.546 91.5555 258.606 91.5072C258.992 91.1575 259.372 90.838 259.745 90.5486C260.119 90.2471 260.487 90.018 260.849 89.8612C261.211 89.7045 261.56 89.6743 261.898 89.7708C262.103 89.819 262.248 89.9035 262.332 90.024C262.428 90.1326 262.483 90.229 262.495 90.3134C262.603 90.5787 262.579 90.8621 262.422 91.1636C262.266 91.453 262.067 91.7725 261.825 92.1222C261.801 92.1463 261.771 92.1885 261.735 92.2488C261.711 92.2971 261.681 92.3453 261.645 92.3935C261.825 92.3212 262.061 92.2307 262.35 92.1222C262.639 92.0137 262.989 91.8811 263.399 91.7243C263.556 91.6761 263.701 91.6881 263.833 91.7605C263.966 91.8208 264.056 91.9233 264.105 92.068C264.165 92.2006 264.159 92.3393 264.086 92.484C264.026 92.6166 263.93 92.7131 263.797 92.7734C263.411 92.906 263.061 93.0266 262.748 93.1351C262.434 93.2437 262.169 93.3401 261.952 93.4245C261.832 93.4728 261.723 93.515 261.627 93.5512C261.542 93.5753 261.464 93.5994 261.391 93.6235C261.307 93.6476 261.235 93.6717 261.174 93.6959C261.114 93.7079 261.054 93.7139 260.993 93.7139ZM269.556 94.0757C269.472 94.0757 269.393 94.0636 269.321 94.0395C269.092 93.9913 268.929 93.8526 268.833 93.6235C268.76 93.4185 268.778 93.1894 268.887 92.9362C269.007 92.6829 269.164 92.3996 269.357 92.086C269.429 91.9775 269.496 91.869 269.556 91.7605C269.628 91.6399 269.689 91.5314 269.737 91.4349C269.761 91.3987 269.779 91.3686 269.791 91.3444C269.803 91.3083 269.815 91.2781 269.827 91.254C269.466 91.1937 269.044 91.1817 268.561 91.2178C268.091 91.2419 267.56 91.3324 266.969 91.4891C266.451 91.6218 265.89 91.7966 265.287 92.0137C264.696 92.2187 264.069 92.4659 263.406 92.7553C263.274 92.8035 263.141 92.8035 263.008 92.7553C262.876 92.7071 262.779 92.6166 262.719 92.484C262.647 92.3513 262.64 92.2127 262.701 92.068C262.761 91.9112 262.858 91.8087 262.99 91.7605C263.665 91.459 264.311 91.1997 264.926 90.9827C265.553 90.7536 266.143 90.5727 266.698 90.4401C268.181 90.0662 269.393 90.0059 270.334 90.2592C270.611 90.3315 270.804 90.5003 270.913 90.7656C271.021 91.0309 270.997 91.3264 270.84 91.6519C270.684 91.9775 270.497 92.3152 270.28 92.6649C270.268 92.689 270.249 92.7191 270.225 92.7553C270.201 92.7915 270.177 92.8337 270.153 92.8819C270.43 92.8216 270.84 92.701 271.383 92.5202C271.926 92.3393 272.673 92.074 273.626 91.7243C273.758 91.6761 273.891 91.6881 274.024 91.7605C274.168 91.8208 274.265 91.9233 274.313 92.068C274.373 92.2006 274.373 92.3393 274.313 92.484C274.253 92.6166 274.144 92.7131 273.988 92.7734C273.433 92.9663 272.926 93.1412 272.468 93.2979C272.01 93.4547 271.6 93.5873 271.238 93.6959C270.756 93.8406 270.388 93.9431 270.135 94.0034C269.882 94.0516 269.689 94.0757 269.556 94.0757Z" fill="#4A4A4A"/>
<path fill-rule="evenodd" clip-rule="evenodd" d="M131.696 14.4884C121.751 14.4884 113.689 22.5501 113.689 32.4947C113.689 42.4393 121.751 50.501 131.696 50.501H135.742C134.942 53.4623 132.68 57.1433 128.956 60.0606C128.448 60.4586 129.012 61.8715 129.637 61.7113C135.74 60.1478 139.877 58.1467 146.032 50.501H202.662C212.606 50.501 220.668 42.4393 220.668 32.4947C220.668 22.5501 212.606 14.4884 202.662 14.4884H131.696Z" fill="#FF6228"/>
<path d="M127.456 31.2908C127.371 31.2908 127.287 31.2788 127.203 31.2546C127.118 31.2426 127.034 31.2305 126.949 31.2185C126.732 31.1582 126.582 31.0316 126.497 30.8386C126.389 30.5975 126.389 30.3081 126.497 29.9704C126.618 29.6207 126.811 29.1745 127.076 28.6319C127.124 28.5354 127.172 28.4269 127.221 28.3063C127.281 28.1857 127.335 28.0712 127.383 27.9627C127.227 28.023 127.058 28.1255 126.877 28.2702C126.708 28.4028 126.533 28.5415 126.352 28.6862C126.232 28.7706 126.099 28.8068 125.955 28.7947C125.798 28.7706 125.671 28.7043 125.575 28.5957C125.49 28.4752 125.46 28.3425 125.484 28.1978C125.496 28.0531 125.557 27.9265 125.665 27.818C125.834 27.6974 126.009 27.5647 126.19 27.42C126.383 27.2753 126.576 27.1547 126.768 27.0583C127.263 26.805 127.715 26.7387 128.125 26.8593C128.318 26.8955 128.463 27.0161 128.559 27.2211C128.656 27.414 128.65 27.6552 128.541 27.9446C128.445 28.234 128.276 28.6259 128.035 29.1203C127.974 29.265 127.908 29.4097 127.836 29.5544C127.775 29.6991 127.715 29.8378 127.655 29.9704C127.643 30.0186 127.625 30.0609 127.601 30.097C127.588 30.1332 127.576 30.1694 127.564 30.2056C127.818 30.1694 128.185 30.0428 128.668 29.8257C129.162 29.5966 129.825 29.1504 130.657 28.4872C131.104 28.1375 131.507 27.7999 131.869 27.4743C132.231 27.1367 132.52 26.8593 132.737 26.6423C132.955 26.4252 133.063 26.3167 133.063 26.3167C133.208 26.1479 133.383 26.0936 133.588 26.1539C133.684 26.1659 133.762 26.2082 133.823 26.2805C133.883 26.3408 133.931 26.4011 133.967 26.4614C134.052 26.6302 134.058 26.8292 133.986 27.0583C133.925 27.2753 133.793 27.6311 133.588 28.1255C133.515 28.2822 133.443 28.439 133.371 28.5957C133.31 28.7525 133.25 28.8972 133.19 29.0298C133.178 29.0781 133.166 29.1203 133.153 29.1565C133.153 29.1806 133.147 29.2047 133.135 29.2288C133.364 29.1926 133.606 29.0962 133.859 28.9394C134.124 28.7706 134.377 28.5837 134.619 28.3787C134.872 28.1737 135.083 27.9988 135.252 27.8541C135.372 27.7456 135.505 27.6974 135.65 27.7094C135.794 27.7215 135.921 27.7818 136.029 27.8903C136.126 28.0109 136.168 28.1435 136.156 28.2882C136.156 28.4329 136.096 28.5596 135.975 28.6681C135.601 28.9937 135.215 29.3012 134.818 29.5906C134.432 29.88 134.04 30.097 133.642 30.2417C133.256 30.3744 132.864 30.3925 132.466 30.296C132.273 30.2116 132.135 30.091 132.05 29.9342C131.978 29.7654 131.954 29.5785 131.978 29.3735C132.014 29.1685 132.086 28.9153 132.195 28.6138C132.062 28.7344 131.923 28.849 131.779 28.9575C131.646 29.066 131.501 29.1866 131.345 29.3193C129.681 30.6336 128.384 31.2908 127.456 31.2908ZM136.721 31.2908C136.636 31.2908 136.552 31.2788 136.468 31.2546C136.383 31.2426 136.299 31.2305 136.214 31.2185C135.997 31.1582 135.847 31.0316 135.762 30.8386C135.654 30.5975 135.654 30.3081 135.762 29.9704C135.883 29.6207 136.076 29.1745 136.341 28.6319C136.389 28.5354 136.437 28.4269 136.486 28.3063C136.546 28.1857 136.6 28.0712 136.649 27.9627C136.492 28.023 136.323 28.1255 136.142 28.2702C135.973 28.4028 135.798 28.5415 135.618 28.6862C135.497 28.7706 135.364 28.8068 135.22 28.7947C135.063 28.7706 134.936 28.7043 134.84 28.5957C134.755 28.4752 134.725 28.3425 134.749 28.1978C134.761 28.0531 134.822 27.9265 134.93 27.818C135.099 27.6974 135.274 27.5647 135.455 27.42C135.648 27.2753 135.841 27.1547 136.034 27.0583C136.528 26.805 136.98 26.7387 137.39 26.8593C137.583 26.8955 137.728 27.0161 137.824 27.2211C137.921 27.414 137.915 27.6552 137.806 27.9446C137.71 28.234 137.541 28.6259 137.3 29.1203C137.239 29.265 137.173 29.4097 137.101 29.5544C137.04 29.6991 136.98 29.8378 136.92 29.9704C136.908 30.0186 136.89 30.0609 136.866 30.097C136.854 30.1332 136.841 30.1694 136.829 30.2056C137.083 30.1694 137.45 30.0428 137.933 29.8257C138.427 29.5966 139.09 29.1504 139.922 28.4872C140.369 28.1375 140.773 27.7999 141.134 27.4743C141.496 27.1367 141.785 26.8593 142.002 26.6423C142.22 26.4252 142.328 26.3167 142.328 26.3167C142.473 26.1479 142.648 26.0936 142.853 26.1539C142.949 26.1659 143.027 26.2082 143.088 26.2805C143.148 26.3408 143.196 26.4011 143.232 26.4614C143.317 26.6302 143.323 26.8292 143.251 27.0583C143.19 27.2753 143.058 27.6311 142.853 28.1255C142.78 28.2822 142.708 28.439 142.636 28.5957C142.575 28.7525 142.515 28.8972 142.455 29.0298C142.443 29.0781 142.431 29.1203 142.419 29.1565C142.419 29.1806 142.412 29.2047 142.4 29.2288C142.63 29.1926 142.871 29.0962 143.124 28.9394C143.389 28.7706 143.642 28.5837 143.884 28.3787C144.137 28.1737 144.348 27.9988 144.517 27.8541C144.637 27.7456 144.77 27.6974 144.915 27.7094C145.059 27.7215 145.186 27.7818 145.294 27.8903C145.391 28.0109 145.433 28.1435 145.421 28.2882C145.421 28.4329 145.361 28.5596 145.24 28.6681C144.866 28.9937 144.481 29.3012 144.083 29.5906C143.697 29.88 143.305 30.097 142.907 30.2417C142.521 30.3744 142.129 30.3925 141.731 30.296C141.538 30.2116 141.4 30.091 141.315 29.9342C141.243 29.7654 141.219 29.5785 141.243 29.3735C141.279 29.1685 141.351 28.9153 141.46 28.6138C141.327 28.7344 141.189 28.849 141.044 28.9575C140.911 29.066 140.766 29.1866 140.61 29.3193C138.946 30.6336 137.649 31.2908 136.721 31.2908ZM146.945 29.7172C146.884 29.7172 146.836 29.7112 146.8 29.6991C146.607 29.6509 146.468 29.5785 146.384 29.482C146.311 29.3735 146.263 29.2891 146.239 29.2288C146.155 28.9635 146.185 28.6922 146.33 28.4149C146.474 28.1255 146.661 27.824 146.89 27.5105C146.963 27.414 147.029 27.3115 147.089 27.203C147.162 27.0824 147.222 26.9799 147.27 26.8955C147.282 26.8834 147.3 26.8593 147.324 26.8231C147.252 26.8473 147.162 26.8834 147.053 26.9317C146.957 26.9799 146.842 27.0522 146.709 27.1487C146.492 27.2814 146.263 27.4562 146.022 27.6733C145.781 27.8783 145.534 28.0953 145.28 28.3244C145.22 28.3727 145.154 28.4269 145.082 28.4872C145.021 28.5475 144.961 28.6078 144.901 28.6681C144.792 28.7646 144.666 28.8128 144.521 28.8128C144.364 28.8007 144.237 28.7344 144.141 28.6138C144.032 28.5053 143.984 28.3787 143.996 28.234C144.008 28.0772 144.069 27.9506 144.177 27.8541C144.237 27.7938 144.304 27.7336 144.376 27.6733C144.436 27.613 144.497 27.5587 144.557 27.5105C144.943 27.1608 145.323 26.8412 145.697 26.5518C146.07 26.2504 146.438 26.0212 146.8 25.8645C147.162 25.7077 147.511 25.6776 147.849 25.774C148.054 25.8223 148.199 25.9067 148.283 26.0273C148.38 26.1358 148.434 26.2323 148.446 26.3167C148.554 26.582 148.53 26.8653 148.373 27.1668C148.217 27.4562 148.018 27.7758 147.777 28.1255C147.752 28.1496 147.722 28.1918 147.686 28.2521C147.662 28.3003 147.632 28.3485 147.596 28.3968C147.777 28.3244 148.012 28.234 148.301 28.1255C148.591 28.0169 148.94 27.8843 149.35 27.7275C149.507 27.6793 149.652 27.6913 149.784 27.7637C149.917 27.824 150.007 27.9265 150.056 28.0712C150.116 28.2038 150.11 28.3425 150.038 28.4872C149.977 28.6199 149.881 28.7163 149.748 28.7766C149.362 28.9093 149.013 29.0298 148.699 29.1384C148.386 29.2469 148.12 29.3434 147.903 29.4278C147.783 29.476 147.674 29.5182 147.578 29.5544C147.493 29.5785 147.415 29.6026 147.342 29.6267C147.258 29.6509 147.186 29.675 147.125 29.6991C147.065 29.7112 147.005 29.7172 146.945 29.7172ZM155.507 30.0789C155.423 30.0789 155.344 30.0669 155.272 30.0428C155.043 29.9945 154.88 29.8559 154.784 29.6267C154.711 29.4217 154.729 29.1926 154.838 28.9394C154.958 28.6862 155.115 28.4028 155.308 28.0893C155.381 27.9808 155.447 27.8722 155.507 27.7637C155.58 27.6431 155.64 27.5346 155.688 27.4381C155.712 27.4019 155.73 27.3718 155.742 27.3477C155.754 27.3115 155.766 27.2814 155.778 27.2572C155.417 27.1969 154.995 27.1849 154.512 27.2211C154.042 27.2452 153.511 27.3356 152.921 27.4924C152.402 27.625 151.841 27.7999 151.238 28.0169C150.648 28.2219 150.021 28.4691 149.357 28.7585C149.225 28.8068 149.092 28.8068 148.959 28.7585C148.827 28.7103 148.73 28.6199 148.67 28.4872C148.598 28.3546 148.592 28.2159 148.652 28.0712C148.712 27.9144 148.809 27.8119 148.941 27.7637C149.617 27.4622 150.262 27.203 150.877 26.9859C151.504 26.7568 152.095 26.5759 152.649 26.4433C154.132 26.0695 155.344 26.0092 156.285 26.2624C156.562 26.3348 156.755 26.5036 156.864 26.7689C156.972 27.0342 156.948 27.3296 156.791 27.6552C156.635 27.9808 156.448 28.3184 156.231 28.6681C156.219 28.6922 156.201 28.7224 156.176 28.7585C156.152 28.7947 156.128 28.8369 156.104 28.8851C156.381 28.8249 156.791 28.7043 157.334 28.5234C157.877 28.3425 158.624 28.0772 159.577 27.7275C159.71 27.6793 159.842 27.6913 159.975 27.7637C160.12 27.824 160.216 27.9265 160.264 28.0712C160.325 28.2038 160.325 28.3425 160.264 28.4872C160.204 28.6199 160.095 28.7163 159.939 28.7766C159.384 28.9696 158.878 29.1444 158.419 29.3012C157.961 29.4579 157.551 29.5906 157.189 29.6991C156.707 29.8438 156.339 29.9463 156.086 30.0066C155.833 30.0548 155.64 30.0789 155.507 30.0789ZM161.854 29.7172C161.793 29.7172 161.745 29.7112 161.709 29.6991C161.516 29.6509 161.377 29.5785 161.293 29.482C161.22 29.3735 161.172 29.2891 161.148 29.2288C161.064 28.9635 161.094 28.6922 161.239 28.4149C161.383 28.1255 161.57 27.824 161.799 27.5105C161.872 27.414 161.938 27.3115 161.998 27.203C162.071 27.0824 162.131 26.9799 162.179 26.8955C162.191 26.8834 162.209 26.8593 162.233 26.8231C162.161 26.8473 162.071 26.8834 161.962 26.9317C161.866 26.9799 161.751 27.0522 161.618 27.1487C161.401 27.2814 161.172 27.4562 160.931 27.6733C160.69 27.8783 160.443 28.0953 160.189 28.3244C160.129 28.3727 160.063 28.4269 159.991 28.4872C159.93 28.5475 159.87 28.6078 159.81 28.6681C159.701 28.7646 159.575 28.8128 159.43 28.8128C159.273 28.8007 159.146 28.7344 159.05 28.6138C158.941 28.5053 158.893 28.3787 158.905 28.234C158.917 28.0772 158.978 27.9506 159.086 27.8541C159.146 27.7938 159.213 27.7336 159.285 27.6733C159.345 27.613 159.406 27.5587 159.466 27.5105C159.852 27.1608 160.232 26.8412 160.606 26.5518C160.979 26.2504 161.347 26.0212 161.709 25.8645C162.071 25.7077 162.42 25.6776 162.758 25.774C162.963 25.8223 163.108 25.9067 163.192 26.0273C163.289 26.1358 163.343 26.2323 163.355 26.3167C163.463 26.582 163.439 26.8653 163.283 27.1668C163.126 27.4562 162.927 27.7758 162.686 28.1255C162.661 28.1496 162.631 28.1918 162.595 28.2521C162.571 28.3003 162.541 28.3485 162.505 28.3968C162.686 28.3244 162.921 28.234 163.21 28.1255C163.5 28.0169 163.849 27.8843 164.259 27.7275C164.416 27.6793 164.561 27.6913 164.693 27.7637C164.826 27.824 164.916 27.9265 164.965 28.0712C165.025 28.2038 165.019 28.3425 164.947 28.4872C164.886 28.6199 164.79 28.7163 164.657 28.7766C164.271 28.9093 163.922 29.0298 163.608 29.1384C163.295 29.2469 163.029 29.3434 162.812 29.4278C162.692 29.476 162.583 29.5182 162.487 29.5544C162.402 29.5785 162.324 29.6026 162.252 29.6267C162.167 29.6509 162.095 29.675 162.034 29.6991C161.974 29.7112 161.914 29.7172 161.854 29.7172ZM165.514 31.2908C165.43 31.2908 165.346 31.2788 165.261 31.2546C165.177 31.2426 165.092 31.2305 165.008 31.2185C164.791 31.1582 164.64 31.0316 164.556 30.8386C164.447 30.5975 164.447 30.3081 164.556 29.9704C164.676 29.6207 164.869 29.1745 165.135 28.6319C165.183 28.5354 165.231 28.4269 165.279 28.3063C165.34 28.1857 165.394 28.0712 165.442 27.9627C165.285 28.023 165.116 28.1255 164.936 28.2702C164.767 28.4028 164.592 28.5415 164.411 28.6862C164.29 28.7706 164.158 28.8068 164.013 28.7947C163.856 28.7706 163.73 28.7043 163.633 28.5957C163.549 28.4752 163.519 28.3425 163.543 28.1978C163.555 28.0531 163.615 27.9265 163.724 27.818C163.892 27.6974 164.067 27.5647 164.248 27.42C164.441 27.2753 164.634 27.1547 164.827 27.0583C165.321 26.805 165.774 26.7387 166.184 26.8593C166.377 26.8955 166.521 27.0161 166.618 27.2211C166.714 27.414 166.708 27.6552 166.6 27.9446C166.503 28.234 166.334 28.6259 166.093 29.1203C166.033 29.265 165.967 29.4097 165.894 29.5544C165.834 29.6991 165.774 29.8378 165.713 29.9704C165.701 30.0186 165.683 30.0609 165.659 30.097C165.647 30.1332 165.635 30.1694 165.623 30.2056C165.876 30.1694 166.244 30.0428 166.726 29.8257C167.221 29.5966 167.884 29.1504 168.716 28.4872C169.162 28.1375 169.566 27.7999 169.928 27.4743C170.29 27.1367 170.579 26.8593 170.796 26.6423C171.013 26.4252 171.122 26.3167 171.122 26.3167C171.266 26.1479 171.441 26.0936 171.646 26.1539C171.743 26.1659 171.821 26.2082 171.881 26.2805C171.942 26.3408 171.99 26.4011 172.026 26.4614C172.11 26.6302 172.116 26.8292 172.044 27.0583C171.984 27.2753 171.851 27.6311 171.646 28.1255C171.574 28.2822 171.501 28.439 171.429 28.5957C171.369 28.7525 171.308 28.8972 171.248 29.0298C171.236 29.0781 171.224 29.1203 171.212 29.1565C171.212 29.1806 171.206 29.2047 171.194 29.2288C171.423 29.1926 171.664 29.0962 171.917 28.9394C172.183 28.7706 172.436 28.5837 172.677 28.3787C172.93 28.1737 173.141 27.9988 173.31 27.8541C173.431 27.7456 173.563 27.6974 173.708 27.7094C173.853 27.7215 173.979 27.7818 174.088 27.8903C174.184 28.0109 174.227 28.1435 174.215 28.2882C174.215 28.4329 174.154 28.5596 174.034 28.6681C173.66 28.9937 173.274 29.3012 172.876 29.5906C172.49 29.88 172.098 30.097 171.7 30.2417C171.315 30.3744 170.923 30.3925 170.525 30.296C170.332 30.2116 170.193 30.091 170.109 29.9342C170.036 29.7654 170.012 29.5785 170.036 29.3735C170.072 29.1685 170.145 28.9153 170.253 28.6138C170.121 28.7344 169.982 28.849 169.837 28.9575C169.705 29.066 169.56 29.1866 169.403 29.3193C167.739 30.6336 166.443 31.2908 165.514 31.2908ZM127.456 42.2908C127.371 42.2908 127.287 42.2788 127.203 42.2546C127.118 42.2426 127.034 42.2305 126.949 42.2185C126.732 42.1582 126.582 42.0316 126.497 41.8386C126.389 41.5975 126.389 41.3081 126.497 40.9704C126.618 40.6207 126.811 40.1745 127.076 39.6319C127.124 39.5354 127.172 39.4269 127.221 39.3063C127.281 39.1857 127.335 39.0712 127.383 38.9627C127.227 39.023 127.058 39.1255 126.877 39.2702C126.708 39.4028 126.533 39.5415 126.352 39.6862C126.232 39.7706 126.099 39.8068 125.955 39.7947C125.798 39.7706 125.671 39.7043 125.575 39.5957C125.49 39.4752 125.46 39.3425 125.484 39.1978C125.496 39.0531 125.557 38.9265 125.665 38.818C125.834 38.6974 126.009 38.5647 126.19 38.42C126.383 38.2753 126.576 38.1547 126.768 38.0583C127.263 37.805 127.715 37.7387 128.125 37.8593C128.318 37.8955 128.463 38.0161 128.559 38.2211C128.656 38.414 128.65 38.6552 128.541 38.9446C128.445 39.234 128.276 39.6259 128.035 40.1203C127.974 40.265 127.908 40.4097 127.836 40.5544C127.775 40.6991 127.715 40.8378 127.655 40.9704C127.643 41.0186 127.625 41.0609 127.601 41.097C127.588 41.1332 127.576 41.1694 127.564 41.2056C127.818 41.1694 128.185 41.0428 128.668 40.8257C129.162 40.5966 129.825 40.1504 130.657 39.4872C131.104 39.1375 131.507 38.7999 131.869 38.4743C132.231 38.1367 132.52 37.8593 132.737 37.6423C132.955 37.4252 133.063 37.3167 133.063 37.3167C133.208 37.1479 133.383 37.0936 133.588 37.1539C133.684 37.1659 133.762 37.2082 133.823 37.2805C133.883 37.3408 133.931 37.4011 133.967 37.4614C134.052 37.6302 134.058 37.8292 133.986 38.0583C133.925 38.2753 133.793 38.6311 133.588 39.1255C133.515 39.2822 133.443 39.439 133.371 39.5957C133.31 39.7525 133.25 39.8972 133.19 40.0298C133.178 40.0781 133.166 40.1203 133.153 40.1565C133.153 40.1806 133.147 40.2047 133.135 40.2288C133.364 40.1926 133.606 40.0962 133.859 39.9394C134.124 39.7706 134.377 39.5837 134.619 39.3787C134.872 39.1737 135.083 38.9988 135.252 38.8541C135.372 38.7456 135.505 38.6974 135.65 38.7094C135.794 38.7215 135.921 38.7818 136.029 38.8903C136.126 39.0109 136.168 39.1435 136.156 39.2882C136.156 39.4329 136.096 39.5596 135.975 39.6681C135.601 39.9937 135.215 40.3012 134.818 40.5906C134.432 40.88 134.04 41.097 133.642 41.2417C133.256 41.3744 132.864 41.3925 132.466 41.296C132.273 41.2116 132.135 41.091 132.05 40.9342C131.978 40.7654 131.954 40.5785 131.978 40.3735C132.014 40.1685 132.086 39.9153 132.195 39.6138C132.062 39.7344 131.923 39.849 131.779 39.9575C131.646 40.066 131.501 40.1866 131.345 40.3193C129.681 41.6336 128.384 42.2908 127.456 42.2908ZM137.68 40.7172C137.619 40.7172 137.571 40.7112 137.535 40.6991C137.342 40.6509 137.203 40.5785 137.119 40.482C137.046 40.3735 136.998 40.2891 136.974 40.2288C136.89 39.9635 136.92 39.6922 137.065 39.4149C137.209 39.1255 137.396 38.824 137.625 38.5105C137.698 38.414 137.764 38.3115 137.824 38.203C137.897 38.0824 137.957 37.9799 138.005 37.8955C138.017 37.8834 138.035 37.8593 138.059 37.8231C137.987 37.8473 137.897 37.8834 137.788 37.9317C137.692 37.9799 137.577 38.0522 137.444 38.1487C137.227 38.2814 136.998 38.4562 136.757 38.6733C136.516 38.8783 136.269 39.0953 136.015 39.3244C135.955 39.3727 135.889 39.4269 135.816 39.4872C135.756 39.5475 135.696 39.6078 135.636 39.6681C135.527 39.7646 135.4 39.8128 135.256 39.8128C135.099 39.8007 134.972 39.7344 134.876 39.6138C134.767 39.5053 134.719 39.3787 134.731 39.234C134.743 39.0772 134.804 38.9506 134.912 38.8541C134.972 38.7938 135.039 38.7336 135.111 38.6733C135.171 38.613 135.232 38.5587 135.292 38.5105C135.678 38.1608 136.058 37.8412 136.431 37.5518C136.805 37.2504 137.173 37.0212 137.535 36.8645C137.897 36.7077 138.246 36.6776 138.584 36.774C138.789 36.8223 138.934 36.9067 139.018 37.0273C139.114 37.1358 139.169 37.2323 139.181 37.3167C139.289 37.582 139.265 37.8653 139.108 38.1668C138.952 38.4562 138.753 38.7758 138.512 39.1255C138.487 39.1496 138.457 39.1918 138.421 39.2521C138.397 39.3003 138.367 39.3485 138.331 39.3968C138.512 39.3244 138.747 39.234 139.036 39.1255C139.326 39.0169 139.675 38.8843 140.085 38.7275C140.242 38.6793 140.387 38.6913 140.519 38.7637C140.652 38.824 140.742 38.9265 140.791 39.0712C140.851 39.2038 140.845 39.3425 140.773 39.4872C140.712 39.6199 140.616 39.7163 140.483 39.7766C140.097 39.9093 139.748 40.0298 139.434 40.1384C139.121 40.2469 138.855 40.3434 138.638 40.4278C138.518 40.476 138.409 40.5182 138.313 40.5544C138.228 40.5785 138.15 40.6026 138.077 40.6267C137.993 40.6509 137.921 40.675 137.86 40.6991C137.8 40.7112 137.74 40.7172 137.68 40.7172ZM141.34 42.2908C141.256 42.2908 141.171 42.2788 141.087 42.2546C141.003 42.2426 140.918 42.2305 140.834 42.2185C140.617 42.1582 140.466 42.0316 140.382 41.8386C140.273 41.5975 140.273 41.3081 140.382 40.9704C140.502 40.6207 140.695 40.1745 140.96 39.6319C141.009 39.5354 141.057 39.4269 141.105 39.3063C141.165 39.1857 141.22 39.0712 141.268 38.9627C141.111 39.023 140.942 39.1255 140.762 39.2702C140.593 39.4028 140.418 39.5415 140.237 39.6862C140.116 39.7706 139.984 39.8068 139.839 39.7947C139.682 39.7706 139.556 39.7043 139.459 39.5957C139.375 39.4752 139.345 39.3425 139.369 39.1978C139.381 39.0531 139.441 38.9265 139.55 38.818C139.718 38.6974 139.893 38.5647 140.074 38.42C140.267 38.2753 140.46 38.1547 140.653 38.0583C141.147 37.805 141.6 37.7387 142.01 37.8593C142.203 37.8955 142.347 38.0161 142.444 38.2211C142.54 38.414 142.534 38.6552 142.426 38.9446C142.329 39.234 142.16 39.6259 141.919 40.1203C141.859 40.265 141.793 40.4097 141.72 40.5544C141.66 40.6991 141.6 40.8378 141.539 40.9704C141.527 41.0186 141.509 41.0609 141.485 41.097C141.473 41.1332 141.461 41.1694 141.449 41.2056C141.702 41.1694 142.07 41.0428 142.552 40.8257C143.047 40.5966 143.71 40.1504 144.542 39.4872C144.988 39.1375 145.392 38.7999 145.754 38.4743C146.115 38.1367 146.405 37.8593 146.622 37.6423C146.839 37.4252 146.948 37.3167 146.948 37.3167C147.092 37.1479 147.267 37.0936 147.472 37.1539C147.569 37.1659 147.647 37.2082 147.707 37.2805C147.768 37.3408 147.816 37.4011 147.852 37.4614C147.936 37.6302 147.942 37.8292 147.87 38.0583C147.81 38.2753 147.677 38.6311 147.472 39.1255C147.4 39.2822 147.327 39.439 147.255 39.5957C147.195 39.7525 147.134 39.8972 147.074 40.0298C147.062 40.0781 147.05 40.1203 147.038 40.1565C147.038 40.1806 147.032 40.2047 147.02 40.2288C147.249 40.1926 147.49 40.0962 147.743 39.9394C148.009 39.7706 148.262 39.5837 148.503 39.3787C148.756 39.1737 148.967 38.9988 149.136 38.8541C149.257 38.7456 149.389 38.6974 149.534 38.7094C149.679 38.7215 149.805 38.7818 149.914 38.8903C150.01 39.0109 150.053 39.1435 150.041 39.2882C150.041 39.4329 149.98 39.5596 149.86 39.6681C149.486 39.9937 149.1 40.3012 148.702 40.5906C148.316 40.88 147.924 41.097 147.526 41.2417C147.14 41.3744 146.749 41.3925 146.351 41.296C146.158 41.2116 146.019 41.091 145.935 40.9342C145.862 40.7654 145.838 40.5785 145.862 40.3735C145.898 40.1685 145.971 39.9153 146.079 39.6138C145.947 39.7344 145.808 39.849 145.663 39.9575C145.531 40.066 145.386 40.1866 145.229 40.3193C143.565 41.6336 142.269 42.2908 141.34 42.2908ZM155.507 41.0789C155.423 41.0789 155.344 41.0669 155.272 41.0428C155.043 40.9945 154.88 40.8559 154.784 40.6267C154.711 40.4217 154.729 40.1926 154.838 39.9394C154.958 39.6862 155.115 39.4028 155.308 39.0893C155.381 38.9808 155.447 38.8722 155.507 38.7637C155.58 38.6431 155.64 38.5346 155.688 38.4381C155.712 38.4019 155.73 38.3718 155.742 38.3477C155.754 38.3115 155.766 38.2814 155.778 38.2572C155.417 38.1969 154.995 38.1849 154.512 38.2211C154.042 38.2452 153.511 38.3356 152.921 38.4924C152.402 38.625 151.841 38.7999 151.238 39.0169C150.648 39.2219 150.021 39.4691 149.357 39.7585C149.225 39.8068 149.092 39.8068 148.959 39.7585C148.827 39.7103 148.73 39.6199 148.67 39.4872C148.598 39.3546 148.592 39.2159 148.652 39.0712C148.712 38.9144 148.809 38.8119 148.941 38.7637C149.617 38.4622 150.262 38.203 150.877 37.9859C151.504 37.7568 152.095 37.5759 152.649 37.4433C154.132 37.0695 155.344 37.0092 156.285 37.2624C156.562 37.3348 156.755 37.5036 156.864 37.7689C156.972 38.0342 156.948 38.3296 156.791 38.6552C156.635 38.9808 156.448 39.3184 156.231 39.6681C156.219 39.6922 156.201 39.7224 156.176 39.7585C156.152 39.7947 156.128 39.8369 156.104 39.8851C156.381 39.8249 156.791 39.7043 157.334 39.5234C157.877 39.3425 158.624 39.0772 159.577 38.7275C159.71 38.6793 159.842 38.6913 159.975 38.7637C160.12 38.824 160.216 38.9265 160.264 39.0712C160.325 39.2038 160.325 39.3425 160.264 39.4872C160.204 39.6199 160.095 39.7163 159.939 39.7766C159.384 39.9696 158.878 40.1444 158.419 40.3012C157.961 40.4579 157.551 40.5906 157.189 40.6991C156.707 40.8438 156.339 40.9463 156.086 41.0066C155.833 41.0548 155.64 41.0789 155.507 41.0789ZM161.854 40.7172C161.793 40.7172 161.745 40.7112 161.709 40.6991C161.516 40.6509 161.377 40.5785 161.293 40.482C161.22 40.3735 161.172 40.2891 161.148 40.2288C161.064 39.9635 161.094 39.6922 161.239 39.4149C161.383 39.1255 161.57 38.824 161.799 38.5105C161.872 38.414 161.938 38.3115 161.998 38.203C162.071 38.0824 162.131 37.9799 162.179 37.8955C162.191 37.8834 162.209 37.8593 162.233 37.8231C162.161 37.8473 162.071 37.8834 161.962 37.9317C161.866 37.9799 161.751 38.0522 161.618 38.1487C161.401 38.2814 161.172 38.4562 160.931 38.6733C160.69 38.8783 160.443 39.0953 160.189 39.3244C160.129 39.3727 160.063 39.4269 159.991 39.4872C159.93 39.5475 159.87 39.6078 159.81 39.6681C159.701 39.7646 159.575 39.8128 159.43 39.8128C159.273 39.8007 159.146 39.7344 159.05 39.6138C158.941 39.5053 158.893 39.3787 158.905 39.234C158.917 39.0772 158.978 38.9506 159.086 38.8541C159.146 38.7938 159.213 38.7336 159.285 38.6733C159.345 38.613 159.406 38.5587 159.466 38.5105C159.852 38.1608 160.232 37.8412 160.606 37.5518C160.979 37.2504 161.347 37.0212 161.709 36.8645C162.071 36.7077 162.42 36.6776 162.758 36.774C162.963 36.8223 163.108 36.9067 163.192 37.0273C163.289 37.1358 163.343 37.2323 163.355 37.3167C163.463 37.582 163.439 37.8653 163.283 38.1668C163.126 38.4562 162.927 38.7758 162.686 39.1255C162.661 39.1496 162.631 39.1918 162.595 39.2521C162.571 39.3003 162.541 39.3485 162.505 39.3968C162.686 39.3244 162.921 39.234 163.21 39.1255C163.5 39.0169 163.849 38.8843 164.259 38.7275C164.416 38.6793 164.561 38.6913 164.693 38.7637C164.826 38.824 164.916 38.9265 164.965 39.0712C165.025 39.2038 165.019 39.3425 164.947 39.4872C164.886 39.6199 164.79 39.7163 164.657 39.7766C164.271 39.9093 163.922 40.0298 163.608 40.1384C163.295 40.2469 163.029 40.3434 162.812 40.4278C162.692 40.476 162.583 40.5182 162.487 40.5544C162.402 40.5785 162.324 40.6026 162.252 40.6267C162.167 40.6509 162.095 40.675 162.034 40.6991C161.974 40.7112 161.914 40.7172 161.854 40.7172ZM165.514 42.2908C165.43 42.2908 165.346 42.2788 165.261 42.2546C165.177 42.2426 165.092 42.2305 165.008 42.2185C164.791 42.1582 164.64 42.0316 164.556 41.8386C164.447 41.5975 164.447 41.3081 164.556 40.9704C164.676 40.6207 164.869 40.1745 165.135 39.6319C165.183 39.5354 165.231 39.4269 165.279 39.3063C165.34 39.1857 165.394 39.0712 165.442 38.9627C165.285 39.023 165.116 39.1255 164.936 39.2702C164.767 39.4028 164.592 39.5415 164.411 39.6862C164.29 39.7706 164.158 39.8068 164.013 39.7947C163.856 39.7706 163.73 39.7043 163.633 39.5957C163.549 39.4752 163.519 39.3425 163.543 39.1978C163.555 39.0531 163.615 38.9265 163.724 38.818C163.892 38.6974 164.067 38.5647 164.248 38.42C164.441 38.2753 164.634 38.1547 164.827 38.0583C165.321 37.805 165.774 37.7387 166.184 37.8593C166.377 37.8955 166.521 38.0161 166.618 38.2211C166.714 38.414 166.708 38.6552 166.6 38.9446C166.503 39.234 166.334 39.6259 166.093 40.1203C166.033 40.265 165.967 40.4097 165.894 40.5544C165.834 40.6991 165.774 40.8378 165.713 40.9704C165.701 41.0186 165.683 41.0609 165.659 41.097C165.647 41.1332 165.635 41.1694 165.623 41.2056C165.876 41.1694 166.244 41.0428 166.726 40.8257C167.221 40.5966 167.884 40.1504 168.716 39.4872C169.162 39.1375 169.566 38.7999 169.928 38.4743C170.29 38.1367 170.579 37.8593 170.796 37.6423C171.013 37.4252 171.122 37.3167 171.122 37.3167C171.266 37.1479 171.441 37.0936 171.646 37.1539C171.743 37.1659 171.821 37.2082 171.881 37.2805C171.942 37.3408 171.99 37.4011 172.026 37.4614C172.11 37.6302 172.116 37.8292 172.044 38.0583C171.984 38.2753 171.851 38.6311 171.646 39.1255C171.574 39.2822 171.501 39.439 171.429 39.5957C171.369 39.7525 171.308 39.8972 171.248 40.0298C171.236 40.0781 171.224 40.1203 171.212 40.1565C171.212 40.1806 171.206 40.2047 171.194 40.2288C171.423 40.1926 171.664 40.0962 171.917 39.9394C172.183 39.7706 172.436 39.5837 172.677 39.3787C172.93 39.1737 173.141 38.9988 173.31 38.8541C173.431 38.7456 173.563 38.6974 173.708 38.7094C173.853 38.7215 173.979 38.7818 174.088 38.8903C174.184 39.0109 174.227 39.1435 174.215 39.2882C174.215 39.4329 174.154 39.5596 174.034 39.6681C173.66 39.9937 173.274 40.3012 172.876 40.5906C172.49 40.88 172.098 41.097 171.7 41.2417C171.315 41.3744 170.923 41.3925 170.525 41.296C170.332 41.2116 170.193 41.091 170.109 40.9342C170.036 40.7654 170.012 40.5785 170.036 40.3735C170.072 40.1685 170.145 39.9153 170.253 39.6138C170.121 39.7344 169.982 39.849 169.837 39.9575C169.705 40.066 169.56 40.1866 169.403 40.3193C167.739 41.6336 166.443 42.2908 165.514 42.2908ZM179.681 41.0789C179.597 41.0789 179.518 41.0669 179.446 41.0428C179.217 40.9945 179.054 40.8559 178.958 40.6267C178.885 40.4217 178.903 40.1926 179.012 39.9394C179.133 39.6862 179.289 39.4028 179.482 39.0893C179.555 38.9808 179.621 38.8722 179.681 38.7637C179.754 38.6431 179.814 38.5346 179.862 38.4381C179.886 38.4019 179.904 38.3718 179.916 38.3477C179.928 38.3115 179.94 38.2814 179.953 38.2572C179.591 38.1969 179.169 38.1849 178.686 38.2211C178.216 38.2452 177.686 38.3356 177.095 38.4924C176.576 38.625 176.015 38.7999 175.412 39.0169C174.822 39.2219 174.195 39.4691 173.531 39.7585C173.399 39.8068 173.266 39.8068 173.133 39.7585C173.001 39.7103 172.904 39.6199 172.844 39.4872C172.772 39.3546 172.766 39.2159 172.826 39.0712C172.886 38.9144 172.983 38.8119 173.115 38.7637C173.791 38.4622 174.436 38.203 175.051 37.9859C175.678 37.7568 176.269 37.5759 176.823 37.4433C178.307 37.0695 179.518 37.0092 180.459 37.2624C180.736 37.3348 180.929 37.5036 181.038 37.7689C181.146 38.0342 181.122 38.3296 180.965 38.6552C180.809 38.9808 180.622 39.3184 180.405 39.6681C180.393 39.6922 180.375 39.7224 180.35 39.7585C180.326 39.7947 180.302 39.8369 180.278 39.8851C180.555 39.8249 180.965 39.7043 181.508 39.5234C182.051 39.3425 182.798 39.0772 183.751 38.7275C183.884 38.6793 184.016 38.6913 184.149 38.7637C184.294 38.824 184.39 38.9265 184.438 39.0712C184.499 39.2038 184.499 39.3425 184.438 39.4872C184.378 39.6199 184.269 39.7163 184.113 39.7766C183.558 39.9696 183.052 40.1444 182.593 40.3012C182.135 40.4579 181.725 40.5906 181.363 40.6991C180.881 40.8438 180.513 40.9463 180.26 41.0066C180.007 41.0548 179.814 41.0789 179.681 41.0789ZM186.028 40.7172C185.967 40.7172 185.919 40.7112 185.883 40.6991C185.69 40.6509 185.551 40.5785 185.467 40.482C185.395 40.3735 185.346 40.2891 185.322 40.2288C185.238 39.9635 185.268 39.6922 185.413 39.4149C185.557 39.1255 185.744 38.824 185.973 38.5105C186.046 38.414 186.112 38.3115 186.172 38.203C186.245 38.0824 186.305 37.9799 186.353 37.8955C186.365 37.8834 186.383 37.8593 186.407 37.8231C186.335 37.8473 186.245 37.8834 186.136 37.9317C186.04 37.9799 185.925 38.0522 185.792 38.1487C185.575 38.2814 185.346 38.4562 185.105 38.6733C184.864 38.8783 184.617 39.0953 184.364 39.3244C184.303 39.3727 184.237 39.4269 184.165 39.4872C184.104 39.5475 184.044 39.6078 183.984 39.6681C183.875 39.7646 183.749 39.8128 183.604 39.8128C183.447 39.8007 183.32 39.7344 183.224 39.6138C183.115 39.5053 183.067 39.3787 183.079 39.234C183.091 39.0772 183.152 38.9506 183.26 38.8541C183.32 38.7938 183.387 38.7336 183.459 38.6733C183.519 38.613 183.58 38.5587 183.64 38.5105C184.026 38.1608 184.406 37.8412 184.78 37.5518C185.153 37.2504 185.521 37.0212 185.883 36.8645C186.245 36.7077 186.594 36.6776 186.932 36.774C187.137 36.8223 187.282 36.9067 187.366 37.0273C187.463 37.1358 187.517 37.2323 187.529 37.3167C187.637 37.582 187.613 37.8653 187.457 38.1668C187.3 38.4562 187.101 38.7758 186.86 39.1255C186.836 39.1496 186.805 39.1918 186.769 39.2521C186.745 39.3003 186.715 39.3485 186.679 39.3968C186.86 39.3244 187.095 39.234 187.384 39.1255C187.674 39.0169 188.023 38.8843 188.433 38.7275C188.59 38.6793 188.735 38.6913 188.867 38.7637C189 38.824 189.09 38.9265 189.139 39.0712C189.199 39.2038 189.193 39.3425 189.121 39.4872C189.06 39.6199 188.964 39.7163 188.831 39.7766C188.445 39.9093 188.096 40.0298 187.782 40.1384C187.469 40.2469 187.203 40.3434 186.986 40.4278C186.866 40.476 186.757 40.5182 186.661 40.5544C186.576 40.5785 186.498 40.6026 186.426 40.6267C186.341 40.6509 186.269 40.675 186.209 40.6991C186.148 40.7112 186.088 40.7172 186.028 40.7172ZM194.59 41.0789C194.506 41.0789 194.427 41.0669 194.355 41.0428C194.126 40.9945 193.963 40.8559 193.867 40.6267C193.794 40.4217 193.812 40.1926 193.921 39.9394C194.042 39.6862 194.198 39.4028 194.391 39.0893C194.464 38.9808 194.53 38.8722 194.59 38.7637C194.663 38.6431 194.723 38.5346 194.771 38.4381C194.795 38.4019 194.813 38.3718 194.825 38.3477C194.837 38.3115 194.849 38.2814 194.862 38.2572C194.5 38.1969 194.078 38.1849 193.595 38.2211C193.125 38.2452 192.595 38.3356 192.004 38.4924C191.485 38.625 190.924 38.7999 190.321 39.0169C189.731 39.2219 189.104 39.4691 188.44 39.7585C188.308 39.8068 188.175 39.8068 188.042 39.7585C187.91 39.7103 187.813 39.6199 187.753 39.4872C187.681 39.3546 187.675 39.2159 187.735 39.0712C187.795 38.9144 187.892 38.8119 188.024 38.7637C188.7 38.4622 189.345 38.203 189.96 37.9859C190.587 37.7568 191.178 37.5759 191.732 37.4433C193.216 37.0695 194.427 37.0092 195.368 37.2624C195.645 37.3348 195.838 37.5036 195.947 37.7689C196.055 38.0342 196.031 38.3296 195.874 38.6552C195.718 38.9808 195.531 39.3184 195.314 39.6681C195.302 39.6922 195.284 39.7224 195.259 39.7585C195.235 39.7947 195.211 39.8369 195.187 39.8851C195.464 39.8249 195.874 39.7043 196.417 39.5234C196.96 39.3425 197.707 39.0772 198.66 38.7275C198.793 38.6793 198.925 38.6913 199.058 38.7637C199.203 38.824 199.299 38.9265 199.347 39.0712C199.408 39.2038 199.408 39.3425 199.347 39.4872C199.287 39.6199 199.178 39.7163 199.022 39.7766C198.467 39.9696 197.961 40.1444 197.502 40.3012C197.044 40.4579 196.634 40.5906 196.272 40.6991C195.79 40.8438 195.422 40.9463 195.169 41.0066C194.916 41.0548 194.723 41.0789 194.59 41.0789Z" fill="white"/>
<path d="M204.251 29.0259C203.815 28.8083 203.844 28.2098 204.251 27.7202C205.502 26.2241 205.883 26.2784 207.787 26.1696C209.692 26.0608 210.399 27.5298 210.916 28.237C211.433 28.9443 210.589 31.039 210.399 32.0455C210.247 32.8507 207.905 34.0132 206.754 34.4938C206.627 35.1376 206.329 36.4796 206.155 36.6972C205.981 36.9148 205.375 37.0418 205.094 37.078C205.04 36.9692 204.915 36.6863 204.849 36.4252C204.784 36.164 205.203 34.793 205.421 34.1401C205.357 33.995 205.671 33.5144 207.434 32.7528C209.637 31.8006 209.528 30.3317 209.637 29.3796C209.746 28.4275 209.093 27.7202 208.087 27.3393C207.08 26.9584 206.155 27.7202 205.883 27.9106C205.611 28.101 205.584 28.4274 205.421 28.8355C205.258 29.2435 204.687 29.2435 204.251 29.0259Z" fill="white"/>
<path d="M204.251 40.0703C204.006 39.3358 204.523 39.0638 205.421 38.9006C206.139 38.9006 206.409 39.4991 206.454 39.7983L205.421 40.4512C205.112 40.5691 204.447 40.6579 204.251 40.0703Z" fill="white"/>
<circle cx="33.1072" cy="33.7743" r="26.8589" transform="rotate(-15 33.1072 33.7743)" fill="#FFD2B9"/>
<rect x="33.6113" y="42.8673" width="12.9398" height="7.27863" rx="3.63931" fill="#FF6228"/>
<rect x="34.3721" y="38.3959" width="9" height="4" rx="2" transform="rotate(-90 34.3721 38.3959)" fill="#363636"/>
<rect x="48.3721" y="38.3959" width="9" height="4" rx="2" transform="rotate(-90 48.3721 38.3959)" fill="#363636"/>
<path d="M5.22557 82.5866C6.92732 71.9076 16.1377 64.0488 26.9514 64.0488H36.2185C47.0322 64.0488 56.2426 71.9076 57.9444 82.5866L62.958 114.049H0.211914L5.22557 82.5866Z" fill="#FF6228"/>
<path d="M48.9583 78.0488L73.8355 98.766L91.8277 72.0175" stroke="#FF6228" stroke-width="14.706" stroke-linecap="round" stroke-linejoin="round"/>
<path d="M82.4901 72.7218L78.3899 78.8254L90.5972 87.0259L94.6974 80.9222L82.4901 72.7218ZM97.9345 76.1034C100.199 72.7324 99.3021 68.164 95.9311 65.8995C92.5602 63.635 87.9918 64.532 85.7273 67.9029L97.9345 76.1034ZM94.6974 80.9222L97.9345 76.1034L85.7273 67.9029L82.4901 72.7218L94.6974 80.9222Z" fill="#FFDED0"/>
<rect x="79.9873" y="51.0487" width="16" height="26.5022" rx="3" transform="rotate(8.74427 79.9873 51.0487)" fill="#363636"/>
<path fill-rule="evenodd" clip-rule="evenodd" d="M54.3829 17.3816C52.2613 14.6279 49.6051 12.2857 46.5362 10.5139C40.3672 6.95222 33.0359 5.98704 26.1552 7.83071C19.2745 9.67439 13.408 14.1759 9.8463 20.345C8.07449 23.4138 6.94523 26.7703 6.48467 30.2159L54.3829 17.3816Z" fill="#FF6228"/>
<rect x="42.6289" y="15.3545" width="19.5908" height="5" rx="2.5" transform="rotate(-15 42.6289 15.3545)" fill="#FF6228"/>
</svg>
