<svg width="340" height="504" viewBox="0 0 340 504" fill="none" xmlns="http://www.w3.org/2000/svg">
<path d="M119.5 504L7 391.5L287 36.5L346 95.5V504H119.5Z" fill="url(#paint0_linear_1_2140)"/>
<path d="M12 35C12 29.4772 16.4772 25 22 25H281C286.523 25 291 29.4772 291 35V391C291 396.523 286.523 401 281 401H29C19.6112 401 12 393.389 12 384V35Z" fill="#FF6228"/>
<path d="M0 22.873C0 20.1116 2.23858 17.873 5 17.873H269C278.389 17.873 286 25.4842 286 34.873V391C286 393.762 283.761 396 281 396H32C14.3269 396 0 381.673 0 364V22.873Z" fill="#EEEEEE"/>
<path d="M268.801 5.72656L283.498 25.9211L268.801 19.7991V5.72656Z" fill="#EEEEEE"/>
<path d="M0 10C0 4.47716 4.47715 0 10 0H262C267.523 0 272 4.47715 272 10V366C272 371.523 267.523 376 262 376H8.00001C3.58173 376 0 372.418 0 368V10Z" fill="#FF6228"/>
<rect opacity="0.85" x="6" y="9" width="259" height="360" rx="7" fill="url(#paint1_linear_1_2140)"/>
<path d="M12.4947 396.661C1.97364 388.706 0.0195312 374.788 0.0195312 366.629L7.4999 375.5C9.4999 392.7 24.3332 396.333 31.4999 396V401H30.5918C24.235 401 17.5653 400.495 12.4947 396.661Z" fill="#FF6228"/>
<defs>
<linearGradient id="paint0_linear_1_2140" x1="176.5" y1="75" x2="176.5" y2="514.5" gradientUnits="userSpaceOnUse">
<stop offset="0.119792" stop-color="#FFD2B9"/>
<stop offset="0.697917" stop-color="#FFD2B9" stop-opacity="0.455621"/>
<stop offset="1" stop-color="#FFD2B9" stop-opacity="0"/>
</linearGradient>
<linearGradient id="paint1_linear_1_2140" x1="150.528" y1="183.232" x2="218.33" y2="425.754" gradientUnits="userSpaceOnUse">
<stop stop-color="#FFD2B9" stop-opacity="0"/>
<stop offset="1" stop-color="#FFD2B9" stop-opacity="0.33"/>
</linearGradient>
</defs>
</svg>
