<svg width="152" height="108" viewBox="0 0 152 108" fill="none" xmlns="http://www.w3.org/2000/svg">
<ellipse cx="76" cy="97.6567" rx="76" ry="9.5" fill="#FFDED0"/>
<path d="M24.0488 33.0222H78.8415L102.774 8.98828L132.035 33.0222V94.6566C132.035 96.3135 130.692 97.6566 129.035 97.6566H24.0488V33.0222Z" fill="#D9D9D9"/>
<path d="M94.4007 69.5826C94.4166 66.3868 97.0201 63.809 100.216 63.8249L107.708 63.8622C110.904 63.878 113.482 66.4816 113.466 69.6774L113.347 93.7488C113.341 94.8141 112.473 95.6734 111.408 95.6681L96.2003 95.5925C95.135 95.5872 94.2757 94.7193 94.281 93.6541L94.4007 69.5826Z" fill="#363636"/>
<path d="M14.9541 34.2H73.5637V97.6567H17.9541C16.2972 97.6567 14.9541 96.3136 14.9541 94.6567V34.2Z" fill="white"/>
<path d="M70.5872 39.0559L103.642 6.33411L136.088 38.2463" stroke="#FF6228" stroke-width="9" stroke-linecap="round"/>
<path d="M9.82217 43.565H71.0216L103.657 0H46.4174C45.0481 0 43.7387 0.561593 42.7949 1.55368L7.64864 38.4972C5.83118 40.4076 7.18537 43.565 9.82217 43.565Z" fill="#FF6228"/>
<rect width="8.49355" height="9.50157" rx="2" transform="matrix(0.999988 0.00487925 -0.00506396 0.999987 33.447 69.3926)" fill="#363636"/>
<rect width="8.49355" height="9.50157" rx="2" transform="matrix(0.999988 0.00487925 -0.00506396 0.999987 33.4468 57.8496)" fill="#363636"/>
<rect width="8.49355" height="9.50157" rx="2" transform="matrix(0.999988 0.00487925 -0.00506396 0.999987 43.9885 69.3925)" fill="#363636"/>
<rect width="8.49355" height="9.50157" rx="2" transform="matrix(0.999988 0.00487925 -0.00506396 0.999987 43.9883 57.8496)" fill="#363636"/>
</svg>
