<svg width="31" height="31" viewBox="0 0 31 31" fill="none" xmlns="http://www.w3.org/2000/svg">
<circle cx="15.5" cy="15.5" r="15.5" fill="#FFD0B6" fill-opacity="0.35"/>
<path d="M12.8314 21.256C11.9674 21.24 11.6154 20.84 11.6154 20.392C11.6154 19.32 12.1434 18.392 13.3114 17.112C14.2874 16.04 15.4234 14.856 16.4474 13.8C16.7834 13.464 16.7994 13.24 16.7994 12.904C16.7994 12.568 16.3194 11.992 15.2634 11.992C14.3674 11.992 13.6954 12.248 13.2794 12.776C12.9754 13.144 12.5914 13.496 11.8874 13.256C11.4234 13.08 10.9594 12.008 11.9834 11.192C13.1674 10.248 14.1914 9.976 15.5994 9.976C17.0074 9.976 19.2154 10.728 19.2154 12.888C19.2154 13.912 18.6874 14.632 17.9354 15.4C17.0554 16.296 15.6634 17.736 14.8474 18.696C14.6074 18.968 14.7514 19.096 15.1034 19.112C15.8874 19.144 17.1354 19.128 18.4474 19.08C19.1994 19.048 19.7914 19.368 19.7914 20.152C19.7914 20.648 19.4554 21.208 18.3194 21.24C16.8794 21.288 14.4634 21.288 12.8314 21.256Z" fill="white"/>
</svg>
