<svg width="115" height="38" viewBox="0 0 115 38" fill="none" xmlns="http://www.w3.org/2000/svg">
<rect x="0.75" y="0.75" width="113.5" height="36.5" rx="18.25" fill="white"/>
<rect x="0.75" y="0.75" width="113.5" height="36.5" rx="18.25" stroke="#EEEEEE" stroke-width="1.5"/>
<path d="M26.6133 22.1666C26.3933 23.9399 24.94 25.3933 23.1667 25.6133C22.0933 25.7466 21.0933 25.4533 20.3133 24.8799C19.8667 24.5533 19.9733 23.8599 20.5067 23.6999C22.5133 23.0933 24.0933 21.5066 24.7067 19.4999C24.8667 18.9733 25.56 18.8666 25.8867 19.3066C26.4533 20.0933 26.7467 21.0933 26.6133 22.1666Z" fill="#363636"/>
<path d="M18.6599 12.3334C15.7199 12.3334 13.3333 14.72 13.3333 17.66C13.3333 20.6 15.7199 22.9867 18.6599 22.9867C21.5999 22.9867 23.9866 20.6 23.9866 17.66C23.9799 14.72 21.5999 12.3334 18.6599 12.3334ZM18.0333 16.9134L19.6399 17.4734C20.2199 17.68 20.4999 18.0867 20.4999 18.7134C20.4999 19.4334 19.9266 20.0267 19.2266 20.0267H19.1666V20.06C19.1666 20.3334 18.9399 20.56 18.6666 20.56C18.3933 20.56 18.1666 20.3334 18.1666 20.06V20.02C17.4266 19.9867 16.8333 19.3667 16.8333 18.5934C16.8333 18.32 17.0599 18.0934 17.3333 18.0934C17.6066 18.0934 17.8333 18.32 17.8333 18.5934C17.8333 18.8334 18.0066 19.0267 18.2199 19.0267H19.2199C19.3733 19.0267 19.4933 18.8867 19.4933 18.7134C19.4933 18.48 19.4533 18.4667 19.2999 18.4134L17.6933 17.8534C17.1199 17.6534 16.8333 17.2467 16.8333 16.6134C16.8333 15.8934 17.4066 15.3 18.1066 15.3H18.1666V15.2734C18.1666 15 18.3933 14.7734 18.6666 14.7734C18.9399 14.7734 19.1666 15 19.1666 15.2734V15.3134C19.9066 15.3467 20.4999 15.9667 20.4999 16.74C20.4999 17.0134 20.2733 17.24 19.9999 17.24C19.7266 17.24 19.4999 17.0134 19.4999 16.74C19.4999 16.5 19.3266 16.3067 19.1133 16.3067H18.1133C17.9599 16.3067 17.8399 16.4467 17.8399 16.62C17.8333 16.8467 17.8733 16.86 18.0333 16.9134Z" fill="#363636"/>
<path d="M44.3125 20.5625V21.7344H38.5938V26.3281H37.1406V21.7344H31.5V20.5625H44.3125ZM34.5625 12.8906V14.7188H41.2188V12.8906H42.7031V18.9688H33.0938V12.8906H34.5625ZM34.5625 17.7812H41.2188V15.9062H34.5625V17.7812ZM57.805 19.1406V20.3281H45.0238V19.1406H50.6956V17.6562H46.6175V12.9688H56.2269V14.1406H48.0863V16.4688H56.3206V17.6562H52.1331V19.1406H57.805ZM51.3988 21.2344C54.4144 21.2344 56.2269 22.1562 56.2269 23.7812C56.2269 25.4062 54.4144 26.3125 51.3988 26.3281C48.3675 26.3125 46.5394 25.4062 46.5394 23.7812C46.5394 22.1562 48.3675 21.2344 51.3988 21.2344ZM51.3988 22.3906C49.2581 22.3906 48.0394 22.8906 48.0394 23.7812C48.0394 24.6719 49.2581 25.1719 51.3988 25.1562C53.5081 25.1719 54.7425 24.6719 54.7425 23.7812C54.7425 22.8906 53.5081 22.3906 51.3988 22.3906ZM63.3913 14.8906C63.3913 16.7656 64.7038 18.5312 66.8288 19.25L66.0631 20.4219C64.4928 19.8672 63.3288 18.75 62.7038 17.3438C62.0944 18.9141 60.8913 20.1406 59.2506 20.75L58.4225 19.5781C60.6413 18.8125 61.9225 16.9375 61.9225 14.8438V13.1875H63.3913V14.8906ZM69.5319 12.3125V16.5312H71.5631V17.7969H69.5319V22.6406H68.0475V12.3125H69.5319ZM70.1413 24.8281V26.0312H60.6725V21.6406H62.1881V24.8281H70.1413ZM88.4231 20.7344V21.9531H82.7356V26.3281H81.2669V21.9531H75.6106V20.7344H88.4231ZM87.0013 18.25V19.4375H77.2981V12.9531H86.845V14.1406H78.7513V15.5781H86.5325V16.7344H78.7513V18.25H87.0013ZM94.0094 16.4531C94.0094 18.6719 95.4625 21.1406 97.5875 22.1406L96.7438 23.2969C95.1734 22.5391 93.9313 20.9609 93.3063 19.125C92.6578 21.1328 91.3453 22.8594 89.7438 23.6562L88.8688 22.4844C90.9938 21.4688 92.5406 18.8281 92.5406 16.4531V14.9688H89.3844V13.7344H97.0563V14.9688H94.0094V16.4531ZM100.041 12.3281V17.875H102.291V19.125H100.041V26.3281H98.5563V12.3281H100.041Z" fill="#363636"/>
</svg>
