<svg width="31" height="31" viewBox="0 0 31 31" fill="none" xmlns="http://www.w3.org/2000/svg">
<circle cx="15.5" cy="15.5" r="15.5" fill="#EEEEEE"/>
<path d="M17.4711 21.592C17.3644 21.592 17.2471 21.5867 17.1191 21.576C17.0017 21.5653 16.8897 21.512 16.7831 21.416C16.6764 21.3307 16.5857 21.1867 16.5111 20.984C16.4364 20.7707 16.3991 20.472 16.3991 20.088V19.192L12.3511 19.208C12.2231 19.208 12.0897 19.192 11.9511 19.16C11.8124 19.1173 11.6791 19.0533 11.5511 18.968C11.4337 18.8827 11.3324 18.776 11.2471 18.648C11.1724 18.5093 11.1351 18.344 11.1351 18.152C11.1351 17.96 11.1564 17.784 11.1991 17.624C11.2524 17.464 11.3164 17.304 11.3911 17.144C11.4764 16.984 11.5777 16.8133 11.6951 16.632C11.8124 16.44 11.9457 16.2267 12.0951 15.992C12.2337 15.7573 12.4311 15.4427 12.6871 15.048C12.9537 14.6533 13.2417 14.2267 13.5511 13.768C13.8604 13.3093 14.1751 12.8453 14.4951 12.376C14.8257 11.9067 15.1191 11.4853 15.3751 11.112C15.7164 10.6213 16.0257 10.296 16.3031 10.136C16.5911 9.96533 16.9057 9.88 17.2471 9.88C17.5884 9.88 17.8817 10.0507 18.1271 10.392C18.3831 10.7227 18.5111 11.176 18.5111 11.752C18.5111 11.9333 18.5111 12.2213 18.5111 12.616C18.5217 13.0107 18.5271 13.4587 18.5271 13.96C18.5377 14.4507 18.5431 14.9787 18.5431 15.544C18.5537 16.0987 18.5644 16.632 18.5751 17.144H19.7751C19.9884 17.144 20.1644 17.176 20.3031 17.24C20.4417 17.2933 20.5484 17.368 20.6231 17.464C20.7084 17.56 20.7671 17.672 20.7991 17.8C20.8311 17.9173 20.8471 18.04 20.8471 18.168C20.8471 18.2853 20.8257 18.408 20.7831 18.536C20.7404 18.6533 20.6711 18.76 20.5751 18.856C20.4791 18.952 20.3511 19.032 20.1911 19.096C20.0311 19.16 19.8391 19.192 19.6151 19.192H18.5911V19.672C18.5911 20.2907 18.5057 20.7653 18.3351 21.096C18.1644 21.4267 17.8764 21.592 17.4711 21.592ZM14.1111 16.888C14.0684 16.9627 14.0524 17.0267 14.0631 17.08C14.0844 17.1333 14.1484 17.16 14.2551 17.16H16.3991L16.4151 13.544C16.4151 13.4267 16.3937 13.352 16.3511 13.32C16.3191 13.288 16.2657 13.3413 16.1911 13.48C16.1591 13.544 16.0631 13.6987 15.9031 13.944C15.7537 14.1893 15.5777 14.4773 15.3751 14.808C15.1724 15.1387 14.9591 15.4907 14.7351 15.864C14.5111 16.2267 14.3031 16.568 14.1111 16.888Z" fill="white"/>
</svg>
