<svg width="57" height="57" viewBox="0 0 57 57" fill="none" xmlns="http://www.w3.org/2000/svg">
<rect x="11" y="14" width="36" height="33" fill="white"/>
<path d="M28.4997 0.583496C13.1176 0.583496 0.583008 13.1181 0.583008 28.5002C0.583008 43.8822 13.1176 56.4168 28.4997 56.4168C43.8818 56.4168 56.4163 43.8822 56.4163 28.5002C56.4163 13.1181 43.8818 0.583496 28.4997 0.583496ZM41.8438 22.0793L26.0151 37.9081C25.6243 38.2989 25.0938 38.5222 24.5355 38.5222C23.9772 38.5222 23.4468 38.2989 23.0559 37.9081L15.1555 30.0077C14.3459 29.1981 14.3459 27.8581 15.1555 27.0485C15.9651 26.2389 17.3051 26.2389 18.1147 27.0485L24.5355 33.4693L38.8847 19.1202C39.6943 18.3106 41.0343 18.3106 41.8438 19.1202C42.6534 19.9297 42.6534 21.2418 41.8438 22.0793Z" fill="#4A4A4A"/>
</svg>
