<svg width="152" height="128" viewBox="0 0 152 128" fill="none" xmlns="http://www.w3.org/2000/svg">
<ellipse cx="76" cy="118" rx="76" ry="9.5" fill="#FFDED0"/>
<path d="M12 5C12 2.23858 14.2386 1.44749e-08 17 3.23306e-08L85 4.72026e-07C87.7614 4.89882e-07 90 2.23858 90 5L90 92C90 94.7614 87.7614 97 85 97L12 97L12 5Z" fill="#FF6228"/>
<path d="M81 5C81 2.23858 83.2386 -1.05667e-08 86 -2.36013e-08L134 -2.50174e-07C136.761 -2.63209e-07 139 2.23858 139 5L139 97L86 97C83.2386 97 81 94.7614 81 92L81 5Z" fill="#FF6228"/>
<rect width="8.49355" height="9.50157" rx="2" transform="matrix(0.999988 0.00487925 -0.00506396 0.999987 33.231 16.1829)" fill="#363636"/>
<rect width="8.49355" height="9.50157" rx="2" transform="matrix(0.999988 0.00487925 -0.00506396 0.999987 33.4148 52.3657)" fill="#363636"/>
<rect width="8.49355" height="9.50157" rx="2" transform="matrix(0.999988 0.00487925 -0.00506396 0.999987 33.3228 34.2743)" fill="#363636"/>
<rect width="8.49355" height="9.50157" rx="2" transform="matrix(0.999988 0.00487925 -0.00506396 0.999987 33.5061 70.4572)" fill="#363636"/>
<rect width="8.49355" height="9.50157" rx="2" transform="matrix(0.999988 0.00487925 -0.00506396 0.999987 60.2307 16.1829)" fill="#363636"/>
<rect width="8.49355" height="9.50157" rx="2" transform="matrix(0.999988 0.00487925 -0.00506396 0.999987 60.4146 52.3657)" fill="#363636"/>
<rect width="8.49355" height="9.50157" rx="2" transform="matrix(0.999988 0.00487925 -0.00506396 0.999987 60.3225 34.2743)" fill="#363636"/>
<rect width="8.49355" height="9.50157" rx="2" transform="matrix(0.999988 0.00487925 -0.00506396 0.999987 60.5059 70.4572)" fill="#363636"/>
<rect width="8.49355" height="9.50157" rx="2" transform="matrix(0.999988 0.00487925 -0.00506396 0.999987 109.048 16.1829)" fill="#363636"/>
<rect width="8.49355" height="9.50157" rx="2" transform="matrix(0.999988 0.00487925 -0.00506396 0.999987 109.232 52.3657)" fill="#363636"/>
<rect width="8.49355" height="9.50157" rx="2" transform="matrix(0.999988 0.00487925 -0.00506396 0.999987 109.14 34.2743)" fill="#363636"/>
<rect width="8.49355" height="9.50157" rx="2" transform="matrix(0.999988 0.00487925 -0.00506396 0.999987 109.323 70.4572)" fill="#363636"/>
<path d="M50 97H67V118C67 119.105 66.1046 120 65 120H52C50.8954 120 50 119.105 50 118V97Z" fill="#FF6228"/>
<path d="M12 97H29V118C29 119.105 28.1046 120 27 120H14C12.8954 120 12 119.105 12 118V97Z" fill="#FF6228"/>
<path d="M89 97H139V118C139 119.105 138.105 120 137 120H91C89.8954 120 89 119.105 89 118V97Z" fill="#FF6228"/>
<path d="M106.067 102C106.075 100.343 107.425 99.0067 109.082 99.0149L117.93 99.0589C119.587 99.0671 120.924 100.417 120.915 102.074L120.853 114.554C120.851 115.106 120.401 115.551 119.848 115.549L107 115.485C106.448 115.482 106.002 115.032 106.005 114.48L106.067 102Z" fill="#363636"/>
</svg>
