<svg width="18" height="18" viewBox="0 0 18 18" fill="none" xmlns="http://www.w3.org/2000/svg">
<g id="vuesax/bold/location">
<path id="Vector" d="M15.465 6.3375C14.6775 2.8725 11.6549 1.3125 8.99995 1.3125C8.99995 1.3125 8.99995 1.3125 8.99245 1.3125C6.34495 1.3125 3.31495 2.865 2.52745 6.33C1.64995 10.2 4.01995 13.4775 6.16495 15.54C6.95995 16.305 7.97995 16.6875 8.99995 16.6875C10.0199 16.6875 11.0399 16.305 11.8274 15.54C13.9724 13.4775 16.3425 10.2075 15.465 6.3375ZM8.99995 10.095C7.69495 10.095 6.63745 9.0375 6.63745 7.7325C6.63745 6.4275 7.69495 5.37 8.99995 5.37C10.3049 5.37 11.3624 6.4275 11.3624 7.7325C11.3624 9.0375 10.3049 10.095 8.99995 10.095Z" fill="#FF6228"/>
</g>
</svg>
