<svg width="133" height="137" viewBox="0 0 133 137" fill="none" xmlns="http://www.w3.org/2000/svg">
<path d="M92.0828 20.2121C97.1524 22.2051 101.206 23.9272 104.873 26.4039C107.456 28.1453 109.933 29.6546 111.751 31.425C113.57 33.1955 116.492 32.1023 116.269 29.4514C116.124 27.6809 116.444 26.7909 116.444 23.2403C116.444 15.6747 116.066 16.3906 116.134 7.23837C116.163 4.06508 112.883 0.601554 109.71 0.601554C99.8613 0.601554 100.403 0.601554 91.7055 0.601554C84.6333 0.601554 83.6659 0.262941 78.2481 0.0597727C69.0281 -0.27884 67.5963 0.533831 66.9577 10.1601C66.861 11.6307 66.5901 12.3853 66.9771 13.5076C67.3641 14.6298 68.4573 15.3361 69.6376 15.3651C73.3914 15.4522 76.4776 16.3809 79.738 16.913C84.0722 17.629 88.4258 18.7512 92.0925 20.1927L92.0828 20.2121Z" fill="#222222"/>
<g opacity="0.51">
<path d="M67.9255 35.6222C63.7073 38.1763 67.9351 39.8403 67.9351 44.7744C67.9351 49.2248 71.0987 52.0885 75.5491 52.0885C83.6274 52.0885 83.6274 53.6171 91.7058 53.6171C99.7841 53.6171 99.7841 52.6302 107.862 52.6302C112.226 52.6302 115.293 50.2019 115.438 45.8677C110.078 42.7911 110.02 43.0426 103.964 41.7753C97.9072 40.5079 97.7621 41.2335 91.7154 39.9661C85.6688 38.6987 85.0496 40.4595 79.3319 38.1182C73.6142 35.777 73.2272 32.4199 67.9351 35.6222H67.9255Z" fill="#222222"/>
</g>
<path d="M127.919 70.5508C126.951 65.8102 125.578 61.0793 123.614 56.7934C121.65 52.5075 119.483 47.9411 116.58 44.1873C113.678 40.4336 109.789 37.2893 106.093 34.2611C102.397 31.2329 97.8403 29.5979 93.5351 27.4792C89.2299 25.3604 85.2342 23.648 80.5227 22.5548C75.8111 21.4615 71.1092 21.1133 66.2235 21.1133C61.3378 21.1133 56.1232 20.6972 51.3826 21.8485C46.642 22.9998 41.5531 24.422 37.1802 26.6762C32.8072 28.9304 28.8503 32.3068 25.1062 35.5479C21.3621 38.7889 17.7148 42.3395 14.822 46.3931C11.9293 50.4468 9.47196 54.8682 7.59507 59.512C7.57572 59.5604 7.31451 59.4443 7.28548 59.4926C5.5247 62.9949 4.62495 67.4162 3.55107 71.9439C2.60295 75.9492 2.98026 80.3996 2.4675 84.8016C1.95475 89.2035 0.958256 93.0444 0.764763 97.3206C0.57127 101.597 -0.0188845 106.221 0.000464803 110.323C0.0294888 115.064 0.503547 119.592 0.687366 123.365C1.055 131.114 -0.502618 134.781 3.55107 135.671C9.27846 136.929 9.31716 136.019 17.1343 136.019C24.9514 136.019 24.9417 135.797 32.7589 135.797C38.5637 135.797 38.5637 135.497 44.3685 135.497C50.1733 135.497 51.1504 135.748 56.6359 135.758C57.5163 135.758 58.2419 135.023 58.2419 134.142C58.2419 124.98 58.4161 126.441 58.4161 117.734C58.4161 109.027 58.358 109.927 58.8611 101.413C59.0256 98.675 60.5542 96.9433 61.928 95.85C67.0846 91.7383 73.9439 94.9599 74.3406 100.445C74.9307 108.524 74.5631 110.478 74.5631 118.576C74.5631 126.673 74.3115 125.851 74.3115 133.784C74.3115 134.694 75.0565 135.439 75.9659 135.439C82.5156 135.439 81.6836 135.497 87.8077 135.497C93.9317 135.497 93.7479 136.261 99.6978 136.261C107.37 136.261 107.37 135.99 115.042 135.99C122.104 135.99 122.665 136.145 128.702 136.174C129.699 136.174 130.56 135.487 130.753 134.51C131.179 132.391 131.837 128.357 132.04 123.113C132.195 119.253 132.069 114.716 132.06 109.888C132.06 105.679 132.098 101.181 131.876 96.653C131.653 92.1253 131.005 87.8007 130.483 83.4858C129.931 78.9484 128.915 74.6335 127.928 70.5701L127.919 70.5508Z" fill="#FF6228"/>
</svg>
