<svg width="65" height="38" viewBox="0 0 65 38" fill="none" xmlns="http://www.w3.org/2000/svg">
<rect x="0.75" y="0.75" width="63.5" height="36.5" rx="18.25" fill="white"/>
<rect x="0.75" y="0.75" width="63.5" height="36.5" rx="18.25" stroke="#EEEEEE" stroke-width="1.5"/>
<path d="M16.2656 13.375C18.3594 13.3828 19.8516 15.2891 19.8594 18.2812C19.8516 21.3047 18.3594 23.2109 16.2656 23.2031C14.1719 23.2109 12.6797 21.3047 12.6875 18.2812C12.6797 15.2891 14.1719 13.3828 16.2656 13.375ZM14.1094 18.2812C14.1016 20.5078 14.9922 21.875 16.2656 21.875C17.5625 21.875 18.4375 20.5078 18.4375 18.2812C18.4375 16.0859 17.5625 14.7109 16.2656 14.7031C14.9922 14.7109 14.1016 16.0859 14.1094 18.2812ZM21.9375 26.3281V12.3281H23.4219V17.8125H25.6719V19.0625H23.4219V26.3281H21.9375ZM34.0394 13.7656V14.9844H32.6019V21.5078C33.2972 21.4531 33.9769 21.3906 34.6331 21.3125L34.7113 22.3906C31.7816 22.8828 28.4769 22.9297 26.0238 22.9375L25.8519 21.7031C26.4066 21.7031 27.0081 21.6953 27.6331 21.6875V14.9844H26.1956V13.7656H34.0394ZM29.0706 21.6641C29.7581 21.6484 30.4613 21.625 31.1644 21.5938V14.9844H29.0706V21.6641ZM35.4456 26.3281V12.3281H36.93V17.8438H39.18V19.0625H36.93V26.3281H35.4456ZM50.8913 19.7812V20.9688H41.1413V13.4844H50.7506V14.6875H42.6413V16.5781H50.4538V17.75H42.6413V19.7812H50.8913ZM39.5319 24.5625V23.3438H52.3444V24.5625H39.5319Z" fill="#363636"/>
</svg>
