<svg width="69" height="69" viewBox="0 0 69 69" fill="none" xmlns="http://www.w3.org/2000/svg">
<g filter="url(#filter0_d_121_23643)">
<rect x="17" y="16" width="36" height="33" fill="white"/>
<path d="M34.4997 2.58398C19.1176 2.58398 6.58301 15.1186 6.58301 30.5006C6.58301 45.8827 19.1176 58.4173 34.4997 58.4173C49.8818 58.4173 62.4163 45.8827 62.4163 30.5006C62.4163 15.1186 49.8818 2.58398 34.4997 2.58398ZM47.8438 24.0798L32.0151 39.9086C31.6243 40.2994 31.0938 40.5227 30.5355 40.5227C29.9772 40.5227 29.4468 40.2994 29.0559 39.9086L21.1555 32.0082C20.3459 31.1986 20.3459 29.8586 21.1555 29.049C21.9651 28.2394 23.3051 28.2394 24.1147 29.049L30.5355 35.4698L44.8847 21.1207C45.6943 20.3111 47.0343 20.3111 47.8438 21.1207C48.6534 21.9302 48.6534 23.2423 47.8438 24.0798Z" fill="#4A4A4A"/>
</g>
<defs>
<filter id="filter0_d_121_23643" x="0" y="0" width="69" height="69" filterUnits="userSpaceOnUse" color-interpolation-filters="sRGB">
<feFlood flood-opacity="0" result="BackgroundImageFix"/>
<feColorMatrix in="SourceAlpha" type="matrix" values="0 0 0 0 0 0 0 0 0 0 0 0 0 0 0 0 0 0 127 0" result="hardAlpha"/>
<feOffset dy="4"/>
<feGaussianBlur stdDeviation="3"/>
<feComposite in2="hardAlpha" operator="out"/>
<feColorMatrix type="matrix" values="0 0 0 0 0 0 0 0 0 0 0 0 0 0 0 0 0 0 0.13 0"/>
<feBlend mode="normal" in2="BackgroundImageFix" result="effect1_dropShadow_121_23643"/>
<feBlend mode="normal" in="SourceGraphic" in2="effect1_dropShadow_121_23643" result="shape"/>
</filter>
</defs>
</svg>
