<svg width="31" height="31" viewBox="0 0 31 31" fill="none" xmlns="http://www.w3.org/2000/svg">
<circle cx="15.5" cy="15.5" r="15.5" fill="#EEEEEE"/>
<path d="M12.8314 21.256C12.3941 21.2453 12.0794 21.1547 11.8874 20.984C11.7061 20.8133 11.6154 20.616 11.6154 20.392C11.6154 19.8587 11.7488 19.3413 12.0154 18.84C12.2928 18.328 12.7248 17.752 13.3114 17.112C13.8021 16.568 14.3194 16.0133 14.8634 15.448C15.4074 14.8827 15.9354 14.3333 16.4474 13.8C16.6181 13.6293 16.7194 13.48 16.7514 13.352C16.7834 13.224 16.7994 13.0747 16.7994 12.904C16.7994 12.8187 16.7674 12.7227 16.7034 12.616C16.6501 12.5093 16.5594 12.4133 16.4314 12.328C16.3034 12.232 16.1434 12.152 15.9514 12.088C15.7594 12.024 15.5301 11.992 15.2634 11.992C14.3568 11.992 13.6954 12.2533 13.2794 12.776C13.1301 12.9573 12.9488 13.112 12.7354 13.24C12.5221 13.368 12.2394 13.3733 11.8874 13.256C11.7701 13.2133 11.6581 13.1227 11.5514 12.984C11.4554 12.8347 11.3968 12.664 11.3754 12.472C11.3541 12.2693 11.3861 12.056 11.4714 11.832C11.5568 11.608 11.7274 11.3947 11.9834 11.192C12.2821 10.9573 12.5701 10.7653 12.8474 10.616C13.1354 10.456 13.4234 10.328 13.7114 10.232C13.9994 10.136 14.2981 10.072 14.6074 10.04C14.9168 9.99733 15.2474 9.976 15.5994 9.976C15.9514 9.976 16.3354 10.0293 16.7514 10.136C17.1781 10.232 17.5728 10.3973 17.9354 10.632C18.2981 10.856 18.6021 11.1547 18.8474 11.528C19.0928 11.8907 19.2154 12.344 19.2154 12.888C19.2154 13.4 19.0928 13.8533 18.8474 14.248C18.6128 14.632 18.3088 15.016 17.9354 15.4C17.7114 15.624 17.4608 15.88 17.1834 16.168C16.9168 16.4453 16.6448 16.7333 16.3674 17.032C16.0901 17.32 15.8181 17.6133 15.5514 17.912C15.2848 18.2 15.0501 18.4613 14.8474 18.696C14.7301 18.8347 14.6981 18.936 14.7514 19C14.8048 19.064 14.9221 19.1013 15.1034 19.112C15.4981 19.1333 15.9888 19.1387 16.5754 19.128C17.1621 19.1173 17.7861 19.1013 18.4474 19.08C18.8208 19.0587 19.1354 19.1333 19.3914 19.304C19.6581 19.4747 19.7914 19.7573 19.7914 20.152C19.7914 20.28 19.7648 20.408 19.7114 20.536C19.6688 20.6533 19.5888 20.7653 19.4714 20.872C19.3648 20.9787 19.2154 21.064 19.0234 21.128C18.8421 21.192 18.6074 21.2293 18.3194 21.24C17.9568 21.2507 17.5408 21.256 17.0714 21.256C16.6128 21.2667 16.1381 21.272 15.6474 21.272C15.1568 21.272 14.6661 21.272 14.1754 21.272C13.6848 21.272 13.2368 21.2667 12.8314 21.256Z" fill="white"/>
</svg>
