<svg width="31" height="31" viewBox="0 0 31 31" fill="none" xmlns="http://www.w3.org/2000/svg">
<circle cx="15.5" cy="15.5" r="15.5" fill="#EEEEEE"/>
<path d="M15.1406 21.368C14.5006 21.368 13.9033 21.3093 13.3486 21.192C12.794 21.0747 12.3086 20.8773 11.8926 20.6C11.818 20.5467 11.7433 20.4453 11.6686 20.296C11.594 20.136 11.5406 19.9653 11.5086 19.784C11.4766 19.592 11.466 19.4053 11.4766 19.224C11.498 19.032 11.5566 18.872 11.6526 18.744C11.8553 18.488 12.0633 18.344 12.2766 18.312C12.49 18.28 12.698 18.3333 12.9006 18.472C13.1033 18.6107 13.3753 18.76 13.7166 18.92C14.058 19.08 14.5006 19.16 15.0446 19.16C15.3113 19.16 15.578 19.1333 15.8446 19.08C16.1113 19.016 16.346 18.92 16.5486 18.792C16.7513 18.6533 16.9166 18.472 17.0446 18.248C17.1726 18.024 17.2366 17.7467 17.2366 17.416C17.2366 17.256 17.2046 17.0907 17.1406 16.92C17.0873 16.7493 16.9913 16.5947 16.8526 16.456C16.714 16.3173 16.522 16.2053 16.2766 16.12C16.042 16.0347 15.7433 15.992 15.3806 15.992C15.018 15.992 14.7246 15.9973 14.5006 16.008C14.2766 16.0187 14.0846 16.0347 13.9246 16.056C13.7646 16.0667 13.6206 16.0827 13.4926 16.104C13.3753 16.1253 13.2313 16.1467 13.0606 16.168C12.7193 16.2107 12.458 16.168 12.2766 16.04C12.106 15.9013 11.978 15.6933 11.8926 15.416C11.8073 15.1387 11.754 14.8453 11.7326 14.536C11.7113 14.2267 11.7006 13.832 11.7006 13.352C11.7006 13.1173 11.7006 12.872 11.7006 12.616C11.7113 12.36 11.722 12.1093 11.7326 11.864C11.7433 11.6187 11.7486 11.3893 11.7486 11.176C11.7593 10.952 11.7646 10.7653 11.7646 10.616C11.7646 10.36 11.8233 10.1627 11.9406 10.024C12.0686 9.87467 12.314 9.80533 12.6766 9.816C12.922 9.82667 13.1246 9.85867 13.2846 9.912C13.4446 9.95467 13.5673 10.04 13.6526 10.168C14.09 10.168 14.554 10.1627 15.0446 10.152C15.546 10.1307 16.026 10.1147 16.4846 10.104C16.9433 10.0827 17.354 10.072 17.7166 10.072C18.09 10.0613 18.3726 10.0613 18.5646 10.072C18.8526 10.0933 19.05 10.1787 19.1566 10.328C19.274 10.4667 19.3326 10.6267 19.3326 10.808C19.3326 10.9893 19.306 11.1867 19.2526 11.4C19.1993 11.6133 19.1086 11.768 18.9806 11.864C18.8526 11.96 18.6873 12.0453 18.4846 12.12C18.282 12.184 17.962 12.2107 17.5246 12.2C17.3326 12.2 17.0873 12.2 16.7886 12.2C16.49 12.1893 16.17 12.184 15.8286 12.184C15.4873 12.184 15.1353 12.184 14.7726 12.184C14.4206 12.184 14.0953 12.184 13.7966 12.184C13.7966 12.568 13.7913 12.9253 13.7806 13.256C13.7806 13.576 13.7806 13.7733 13.7806 13.848C13.7806 13.9547 13.7913 14.0293 13.8126 14.072C13.8446 14.104 13.9513 14.0987 14.1326 14.056C14.3566 14.0027 14.6286 13.9707 14.9486 13.96C15.2686 13.9387 15.674 13.928 16.1646 13.928C16.5166 13.928 16.8793 13.992 17.2526 14.12C17.6366 14.248 17.9833 14.4507 18.2926 14.728C18.6126 15.0053 18.874 15.3627 19.0766 15.8C19.2793 16.2267 19.3806 16.7387 19.3806 17.336C19.3806 17.912 19.306 18.4453 19.1566 18.936C19.018 19.4267 18.778 19.8533 18.4366 20.216C18.106 20.5787 17.6686 20.8613 17.1246 21.064C16.5913 21.2667 15.93 21.368 15.1406 21.368Z" fill="white"/>
</svg>
