<svg width="52" height="38" viewBox="0 0 52 38" fill="none" xmlns="http://www.w3.org/2000/svg">
<rect x="0.75" y="0.75" width="50.5" height="36.5" rx="18.25" fill="#FF6228"/>
<rect x="0.75" y="0.75" width="50.5" height="36.5" rx="18.25" stroke="#FF6228" stroke-width="1.5"/>
<path d="M24.1875 12.3438V22.5938H22.7031V17.3281H20.0312V16.125H22.7031V12.3438H24.1875ZM12.5312 19.6719C14.6797 18.9453 16.0234 17.1016 16.0156 15.1719V14.625H12.9844V13.4062H20.5312V14.625H17.5312V15.1719C17.5234 16.9141 18.7891 18.6719 20.9062 19.375L20.1406 20.5625C18.5703 20.0156 17.4062 18.8906 16.7969 17.5C16.1875 19.0469 14.9609 20.2812 13.2969 20.875L12.5312 19.6719ZM15.0938 26.0312V21.6719H16.5781V24.8281H24.5625V26.0312H15.0938ZM30.2894 16.1562C30.2894 18.3906 31.2269 20.7734 33.1019 21.9219L32.2738 23.0625C30.9613 22.2734 30.0784 20.875 29.5941 19.2578C29.0863 21.0312 28.1175 22.5469 26.7581 23.375L25.8363 22.2656C27.8128 21.0781 28.8597 18.6016 28.8519 16.2188V13.6094H30.2894V16.1562ZM31.5863 18.4844V17.25H33.7581V12.5938H35.1644V25.6406H33.7581V18.4844H31.5863ZM36.6488 26.3281V12.3281H38.0706V26.3281H36.6488Z" fill="white"/>
</svg>
