<svg width="390" height="224" viewBox="0 0 390 224" fill="none" xmlns="http://www.w3.org/2000/svg">
<mask id="mask0_1184_10202" style="mask-type:alpha" maskUnits="userSpaceOnUse" x="0" y="0" width="390" height="224">
<rect width="390" height="224" fill="#F3F3F3"/>
</mask>
<g mask="url(#mask0_1184_10202)">
<rect x="-2" width="392" height="224" fill="#F3F3F3"/>
<rect x="-12.0914" y="87.6665" width="86.7111" height="108.045" rx="5" transform="rotate(-2.6147 -12.0914 87.6665)" fill="#E6E6E6"/>
<rect x="258.814" y="57.239" width="86.7111" height="144.238" rx="5" transform="rotate(1.98411 258.814 57.239)" fill="#E6E6E6"/>
<rect x="270.655" y="93.958" width="6.85059" height="7.80733" rx="2" transform="rotate(3.10789 270.655 93.958)" fill="#F3F3F3"/>
<rect x="269.339" y="123.66" width="6.85059" height="7.80733" rx="2" transform="rotate(3.10789 269.339 123.66)" fill="#F3F3F3"/>
<rect x="268.023" y="153.362" width="6.85059" height="7.80733" rx="2" transform="rotate(3.10789 268.023 153.362)" fill="#F3F3F3"/>
<rect x="269.997" y="108.809" width="6.85059" height="7.80733" rx="2" transform="rotate(3.10789 269.997 108.809)" fill="#F3F3F3"/>
<rect x="268.681" y="138.511" width="6.85059" height="7.80733" rx="2" transform="rotate(3.10789 268.681 138.511)" fill="#F3F3F3"/>
<rect x="267.364" y="168.214" width="6.85059" height="7.80733" rx="2" transform="rotate(3.10789 267.364 168.214)" fill="#F3F3F3"/>
<rect x="37.42" y="107.849" width="6.85059" height="7.80733" rx="2" transform="rotate(-3.35321 37.42 107.849)" fill="#F3F3F3"/>
<rect x="39.4543" y="137.511" width="6.85059" height="7.80733" rx="2" transform="rotate(-3.35321 39.4543 137.511)" fill="#F3F3F3"/>
<rect x="41.4887" y="167.172" width="6.85059" height="7.80733" rx="2" transform="rotate(-3.35321 41.4887 167.172)" fill="#F3F3F3"/>
<rect x="38.4375" y="122.68" width="6.85059" height="7.80733" rx="2" transform="rotate(-3.35321 38.4375 122.68)" fill="#F3F3F3"/>
<rect x="40.4713" y="152.341" width="6.85059" height="7.80733" rx="2" transform="rotate(-3.35321 40.4713 152.341)" fill="#F3F3F3"/>
<rect x="42.5056" y="182.003" width="6.85059" height="7.80733" rx="2" transform="rotate(-3.35321 42.5056 182.003)" fill="#F3F3F3"/>
<rect x="285.974" y="94.3719" width="6.85059" height="7.80733" rx="2" transform="rotate(3.10789 285.974 94.3719)" fill="#F3F3F3"/>
<rect x="284.658" y="124.074" width="6.85059" height="7.80733" rx="2" transform="rotate(3.10789 284.658 124.074)" fill="#F3F3F3"/>
<rect x="283.341" y="153.776" width="6.85059" height="7.80733" rx="2" transform="rotate(3.10789 283.341 153.776)" fill="#F3F3F3"/>
<rect x="285.316" y="109.223" width="6.85059" height="7.80733" rx="2" transform="rotate(3.10789 285.316 109.223)" fill="#F3F3F3"/>
<rect x="283.999" y="138.925" width="6.85059" height="7.80733" rx="2" transform="rotate(3.10789 283.999 138.925)" fill="#F3F3F3"/>
<rect x="282.683" y="168.628" width="6.85059" height="7.80733" rx="2" transform="rotate(3.10789 282.683 168.628)" fill="#F3F3F3"/>
<rect x="52.6881" y="106.536" width="6.85059" height="7.80733" rx="2" transform="rotate(-3.35321 52.6881 106.536)" fill="#F3F3F3"/>
<rect x="54.7222" y="136.198" width="6.85059" height="7.80733" rx="2" transform="rotate(-3.35321 54.7222 136.198)" fill="#F3F3F3"/>
<rect x="56.7566" y="165.86" width="6.85059" height="7.80733" rx="2" transform="rotate(-3.35321 56.7566 165.86)" fill="#F3F3F3"/>
<rect x="53.7054" y="121.367" width="6.85059" height="7.80733" rx="2" transform="rotate(-3.35321 53.7054 121.367)" fill="#F3F3F3"/>
<rect x="55.7392" y="151.029" width="6.85059" height="7.80733" rx="2" transform="rotate(-3.35321 55.7392 151.029)" fill="#F3F3F3"/>
<rect x="57.7734" y="180.691" width="6.85059" height="7.80733" rx="2" transform="rotate(-3.35321 57.7734 180.691)" fill="#F3F3F3"/>
<rect x="301.293" y="94.7887" width="6.85059" height="7.80733" rx="2" transform="rotate(3.10789 301.293 94.7887)" fill="#F3F3F3"/>
<rect x="299.976" y="124.491" width="6.85059" height="7.80733" rx="2" transform="rotate(3.10789 299.976 124.491)" fill="#F3F3F3"/>
<rect x="298.66" y="154.193" width="6.85059" height="7.80733" rx="2" transform="rotate(3.10789 298.66 154.193)" fill="#F3F3F3"/>
<rect x="300.635" y="109.64" width="6.85059" height="7.80733" rx="2" transform="rotate(3.10789 300.635 109.64)" fill="#F3F3F3"/>
<rect x="299.318" y="139.342" width="6.85059" height="7.80733" rx="2" transform="rotate(3.10789 299.318 139.342)" fill="#F3F3F3"/>
<rect x="298.002" y="169.044" width="6.85059" height="7.80733" rx="2" transform="rotate(3.10789 298.002 169.044)" fill="#F3F3F3"/>
<rect x="332.156" y="110.135" width="86.7111" height="144.238" rx="5" transform="rotate(1.98411 332.156 110.135)" fill="#E6E6E6"/>
<rect x="312.662" y="172.402" width="11.7034" height="30.0947" transform="rotate(4.06754 312.662 172.402)" fill="white"/>
<path d="M307.944 144.893C314.444 135.853 328.181 136.796 333.384 146.64L337.524 154.473C343.017 164.866 334.963 177.253 323.235 176.447L313.923 175.808C302.195 175.002 295.909 161.631 302.772 152.086L307.944 144.893Z" fill="white"/>
<path d="M309.986 115.152C316.486 106.112 330.223 107.055 335.426 116.899L339.566 124.731C345.06 135.125 337.006 147.511 325.277 146.706L315.965 146.066C304.237 145.261 297.952 131.89 304.814 122.345L309.986 115.152Z" fill="white"/>
<rect x="29.0146" y="177.805" width="8.60714" height="22.1329" transform="rotate(-4.10012 29.0146 177.805)" fill="white"/>
<path d="M22.9877 157.732C26.6455 150.72 36.3989 149.997 41.0506 156.393L45.6394 162.703C50.5508 169.456 46.1378 178.977 37.8105 179.595L29.6132 180.202C21.2859 180.82 15.5173 172.053 19.3793 164.649L22.9877 157.732Z" fill="white"/>
<path d="M21.3669 135.868C25.0247 128.856 34.778 128.133 39.4298 134.529L44.0186 140.838C48.9299 147.591 44.517 157.113 36.1896 157.73L27.9924 158.338C19.6651 158.955 13.8965 150.188 17.7585 142.785L21.3669 135.868Z" fill="white"/>
<rect x="355.442" y="177.527" width="9.58033" height="24.6354" transform="rotate(5.26894 355.442 177.527)" fill="white"/>
<path d="M352.323 154.573C357.674 147.451 368.645 148.436 372.641 156.397L376.322 163.728C380.542 172.133 373.892 181.905 364.525 181.064L355.917 180.291C346.549 179.45 341.746 168.65 347.396 161.131L352.323 154.573Z" fill="white"/>
<path d="M354.505 130.267C359.856 123.146 370.827 124.13 374.823 132.091L378.504 139.422C382.724 147.827 376.074 157.599 366.707 156.758L358.099 155.986C348.732 155.145 343.929 144.345 349.578 136.826L354.505 130.267Z" fill="white"/>
<ellipse cx="195" cy="1164.5" rx="1591" ry="980.5" fill="white"/>
</g>
</svg>
