<svg width="36" height="36" viewBox="0 0 36 36" fill="none" xmlns="http://www.w3.org/2000/svg">
<path d="M22.3351 7.6201C21.0301 7.2301 19.5901 6.9751 18.0001 6.9751C10.8151 6.9751 4.99512 12.7951 4.99512 19.9801C4.99512 27.1801 10.8151 33.0001 18.0001 33.0001C25.1851 33.0001 31.0051 27.1801 31.0051 19.9951C31.0051 17.3251 30.1951 14.8351 28.8151 12.7651" stroke="white" stroke-width="1.5" stroke-linecap="round" stroke-linejoin="round"/>
<path d="M24.1954 7.98L19.8604 3" stroke="white" stroke-width="1.5" stroke-linecap="round" stroke-linejoin="round"/>
<path d="M24.1946 7.97998L19.1396 11.67" stroke="white" stroke-width="1.5" stroke-linecap="round" stroke-linejoin="round"/>
<path d="M15.7969 16.5156V25H14.7305V17.6172H14.6836L12.6211 18.9883V17.9219L14.7305 16.5156H15.7969ZM20.8359 25.1172C18.9551 25.1172 17.8652 23.5352 17.8711 20.7578C17.8652 18.0039 18.9668 16.3984 20.8359 16.3984C22.6992 16.3984 23.8008 18.0039 23.8008 20.7578C23.8008 23.5352 22.7168 25.1172 20.8359 25.1172ZM18.8906 20.7578C18.8965 22.9551 19.6055 24.1797 20.8359 24.1797C22.0605 24.1797 22.7754 22.9551 22.7695 20.7578C22.7754 18.5605 22.0547 17.3184 20.8359 17.3125C19.6172 17.3184 18.8965 18.5605 18.8906 20.7578Z" fill="white"/>
</svg>
