<svg width="16" height="16" viewBox="0 0 16 16" fill="none" xmlns="http://www.w3.org/2000/svg">
<g id="vuesax/bold/menu-board">
<g id="menu-board">
<path id="Vector" d="M13.9334 6.56667L14.3268 13.16C14.3401 13.34 14.2534 13.46 14.2068 13.5133C14.1534 13.5733 14.0401 13.6667 13.8534 13.6667H12.0334L13.4734 6.56667H13.9334ZM14.6668 4L14.6601 4.01333C14.6734 4.17333 14.6601 4.34 14.6201 4.50667L9.70675 13.5267C9.54675 14.2 8.94675 14.6667 8.25342 14.6667H13.8534C14.7134 14.6667 15.3934 13.94 15.3268 13.08L14.6668 4Z" fill="#FF6228"/>
<path id="Vector_2" d="M7.63333 1.49229C7.69999 1.22562 7.53333 0.95229 7.26666 0.885623C6.99999 0.825623 6.72666 0.985623 6.65999 1.25229L6.32666 2.63229H7.35333L7.63333 1.49229Z" fill="#FF6228"/>
<path id="Vector_3" d="M12.0334 1.47435C12.0934 1.20101 11.9201 0.941012 11.6468 0.881012C11.3801 0.821012 11.1134 0.994346 11.0534 1.26768L10.7534 2.64768H11.7801L12.0334 1.47435Z" fill="#FF6228"/>
<path id="Vector_4" d="M14.5468 3.55362C14.3268 3.02029 13.8068 2.64029 13.1668 2.64029H11.7802L11.4068 4.36695C11.3535 4.60029 11.1468 4.76029 10.9202 4.76029C10.8868 4.76029 10.8468 4.76029 10.8135 4.74695C10.5468 4.68695 10.3735 4.42029 10.4268 4.15362L10.7535 2.63362H7.3535L6.9335 4.36695C6.88016 4.59362 6.6735 4.74695 6.44683 4.74695C6.40683 4.74695 6.36683 4.74029 6.32683 4.73362C6.06016 4.66695 5.8935 4.40029 5.96016 4.12695L6.32016 2.62695H4.96683C4.3135 2.62695 3.7335 3.05362 3.54016 3.68029L0.733495 12.7136C0.440162 13.6803 1.1535 14.667 2.16016 14.667H10.9202C11.6135 14.667 12.2135 14.2003 12.3735 13.527L14.6202 4.50695C14.6602 4.34029 14.6735 4.17362 14.6602 4.01362C14.6468 3.85362 14.6135 3.69362 14.5468 3.55362ZM9.80016 11.167H4.46683C4.1935 11.167 3.96683 10.9403 3.96683 10.667C3.96683 10.3936 4.1935 10.167 4.46683 10.167H9.80016C10.0735 10.167 10.3002 10.3936 10.3002 10.667C10.3002 10.9403 10.0735 11.167 9.80016 11.167ZM10.4668 8.50029H5.1335C4.86016 8.50029 4.6335 8.27362 4.6335 8.00029C4.6335 7.72695 4.86016 7.50029 5.1335 7.50029H10.4668C10.7402 7.50029 10.9668 7.72695 10.9668 8.00029C10.9668 8.27362 10.7402 8.50029 10.4668 8.50029Z" fill="#FF6228"/>
</g>
</g>
</svg>
