<svg width="18" height="18" viewBox="0 0 18 18" fill="none" xmlns="http://www.w3.org/2000/svg">
<path d="M15.675 7.3875L16.1175 14.805C16.1325 15.0075 16.035 15.1425 15.9825 15.2025C15.9225 15.27 15.795 15.375 15.585 15.375H13.5375L15.1575 7.3875H15.675ZM16.5 4.5L16.4925 4.515C16.5075 4.695 16.4925 4.8825 16.4475 5.07L10.92 15.2175C10.74 15.975 10.065 16.5 9.28503 16.5H15.585C16.5525 16.5 17.3175 15.6825 17.2425 14.715L16.5 4.5Z" fill="#FF6228"/>
<path d="M8.58743 1.68005C8.66243 1.38005 8.47493 1.07255 8.17493 0.997547C7.87493 0.930047 7.56743 1.11005 7.49243 1.41005L7.11743 2.96255H8.27243L8.58743 1.68005Z" fill="#FF6228"/>
<path d="M13.5375 1.65754C13.605 1.35004 13.41 1.05754 13.1025 0.99004C12.8025 0.92254 12.5025 1.11754 12.435 1.42504L12.0975 2.97754H13.2525L13.5375 1.65754Z" fill="#FF6228"/>
<path d="M16.3651 3.99746C16.1176 3.39746 15.5326 2.96996 14.8126 2.96996H13.2526L12.8326 4.91246C12.7726 5.17496 12.5401 5.35496 12.2851 5.35496C12.2476 5.35496 12.2026 5.35496 12.1651 5.33996C11.8651 5.27246 11.6701 4.97246 11.7301 4.67246L12.0976 2.96246H8.27256L7.80006 4.91246C7.74006 5.16746 7.50756 5.33996 7.25256 5.33996C7.20756 5.33996 7.16256 5.33246 7.11756 5.32496C6.81756 5.24996 6.63006 4.94996 6.70506 4.64246L7.11006 2.95496H5.58756C4.85256 2.95496 4.20006 3.43496 3.98256 4.13996L0.82506 14.3025C0.49506 15.39 1.29756 16.5 2.43006 16.5H12.2851C13.0651 16.5 13.7401 15.975 13.9201 15.2175L16.4476 5.06996C16.4926 4.88246 16.5076 4.69496 16.4926 4.51496C16.4776 4.33496 16.4401 4.15496 16.3651 3.99746ZM11.0251 12.5625H5.02506C4.71756 12.5625 4.46256 12.3075 4.46256 12C4.46256 11.6925 4.71756 11.4375 5.02506 11.4375H11.0251C11.3326 11.4375 11.5876 11.6925 11.5876 12C11.5876 12.3075 11.3326 12.5625 11.0251 12.5625ZM11.7751 9.56246H5.77506C5.46756 9.56246 5.21256 9.30746 5.21256 8.99996C5.21256 8.69246 5.46756 8.43746 5.77506 8.43746H11.7751C12.0826 8.43746 12.3376 8.69246 12.3376 8.99996C12.3376 9.30746 12.0826 9.56246 11.7751 9.56246Z" fill="#FF6228"/>
</svg>
