<svg width="70" height="100" viewBox="0 0 70 100" fill="none" xmlns="http://www.w3.org/2000/svg">
<ellipse cx="34.7234" cy="91.9143" rx="34.7234" ry="7.24815" fill="#FFDED0"/>
<path d="M48.355 63.5062L47.4184 77.021L43.8854 90.7084" stroke="#363636" stroke-width="6" stroke-linecap="round" stroke-linejoin="round"/>
<path d="M55.2261 63.3473L55.226 76.642L54.2276 91.3002" stroke="#363636" stroke-width="6" stroke-linecap="round" stroke-linejoin="round"/>
<path d="M55.6407 9.2464C55.541 8.65859 55.9367 8.10123 56.5245 8.0015L61.8461 7.09869C62.4339 6.99897 62.9913 7.39464 63.091 7.98246C63.1908 8.57027 62.7951 9.12763 62.2073 9.22735L56.8856 10.1302C56.2978 10.2299 55.7404 9.83421 55.6407 9.2464Z" fill="#FF6228"/>
<circle cx="50.148" cy="12.3682" r="9.17609" transform="rotate(-9.62853 50.148 12.3682)" fill="#FFDED0"/>
<path d="M59.0144 9.76905C58.8128 8.58101 58.3792 7.44429 57.7384 6.42381C57.0975 5.40333 56.2619 4.51907 55.2793 3.82151C54.2968 3.12396 53.1864 2.62677 52.0116 2.35833C50.8369 2.08989 49.6208 2.05547 48.4327 2.25702C47.2447 2.45857 46.108 2.89215 45.0875 3.53301C44.067 4.17386 43.1828 5.00944 42.4852 5.99203C41.7877 6.97463 41.2905 8.08499 41.022 9.25973C40.7536 10.4345 40.7192 11.6506 40.9207 12.8386L49.9675 11.3038L59.0144 9.76905Z" fill="#FF6228"/>
<path d="M44.43 29.4122C44.5734 26.7595 46.7661 24.6821 49.4227 24.6821H53.6531C56.3097 24.6821 58.5025 26.7595 58.6458 29.4122L60.2645 59.3625C60.4192 62.2257 58.1392 64.6323 55.2718 64.6323H47.8041C44.9366 64.6323 42.6566 62.2257 42.8114 59.3624L44.43 29.4122Z" fill="#FF6228"/>
<path d="M48.0424 27.9905L40.3542 42.5483L50.2603 51.2003" stroke="#FF6228" stroke-width="6" stroke-linecap="round" stroke-linejoin="round"/>
<rect x="4.35547" y="81.5604" width="28.1826" height="15.7047" rx="3" transform="rotate(-44.8379 4.35547 81.5604)" fill="#363636"/>
<circle cx="11.4791" cy="94.0722" r="2.77199" fill="#363636"/>
<path d="M29.3607 71.9443L47.3784 53.9265" stroke="#363636" stroke-width="4" stroke-linecap="round" stroke-linejoin="round"/>
<path d="M51.0176 47.7903L48.8352 45.7319L44.7184 50.0967L46.9008 52.1551L51.0176 47.7903ZM48.2022 53.3826C49.4075 54.5194 51.3062 54.4639 52.443 53.2586C53.5799 52.0532 53.5243 50.1546 52.319 49.0177L48.2022 53.3826ZM46.9008 52.1551L48.2022 53.3826L52.319 49.0177L51.0176 47.7903L46.9008 52.1551Z" fill="#FFDED0"/>
</svg>
