<svg width="31" height="31" viewBox="0 0 31 31" fill="none" xmlns="http://www.w3.org/2000/svg">
<circle cx="15.5" cy="15.5" r="15.5" fill="#FFD0B6" fill-opacity="0.5"/>
<path d="M15.7646 21.496C14.4206 21.496 13.1406 21 12.1806 20.072C11.7486 19.656 11.7166 18.68 12.4686 18.216C12.9966 17.88 13.3806 17.88 13.8926 18.472C14.1486 18.728 14.9966 19.288 15.8766 19.288C17.1406 19.288 17.7966 18.776 17.7966 17.816C17.7966 17.192 17.5566 16.792 16.9326 16.584C16.3086 16.376 15.5886 16.328 14.9326 16.264C14.5966 16.232 14.1646 15.848 14.1646 15.384C14.1646 15.064 14.5646 14.616 15.1406 14.424C16.3886 14.008 17.2686 13.672 17.2686 12.872C17.2686 12.184 16.5966 11.8 15.7326 11.8C14.8366 11.8 14.2126 12.008 13.7006 12.808C13.4766 13.128 12.9486 13.32 12.4526 13.064C11.9566 12.808 11.8126 12.168 12.1166 11.672C12.7246 10.68 14.0206 9.848 16.1646 9.848C18.0046 9.848 19.3966 10.728 19.3966 12.536C19.3966 13.656 19.0446 14.232 18.0686 14.888C17.9726 14.952 17.9566 15.016 18.0846 15.08C19.4126 15.72 19.9886 16.488 19.9886 17.96C19.9886 19.528 18.7086 21.496 15.7646 21.496Z" fill="white"/>
</svg>
