<svg width="152" height="173" viewBox="0 0 152 173" fill="none" xmlns="http://www.w3.org/2000/svg">
<ellipse cx="76" cy="163" rx="76" ry="9.5" fill="#FFDED0"/>
<path d="M12 5C12 2.23858 14.2386 2.119e-08 17 4.73293e-08L85 6.91007e-07C87.7614 7.17146e-07 90 2.23858 90 5L90 137C90 139.761 87.7614 142 85 142L12 142L12 5Z" fill="#FF6228"/>
<path d="M81 5C81 2.23858 83.2386 -1.54687e-08 86 -3.45504e-08L134 -3.66234e-07C136.761 -3.85316e-07 139 2.23858 139 5L139 142L86 142C83.2386 142 81 139.761 81 137L81 5Z" fill="#FF6228"/>
<rect width="8.49355" height="9.50157" rx="2" transform="matrix(0.999988 0.00487925 -0.00506396 0.999987 33.231 61.1829)" fill="#363636"/>
<rect width="8.49355" height="9.50157" rx="2" transform="matrix(0.999988 0.00487925 -0.00506396 0.999987 33.231 25)" fill="#363636"/>
<rect width="8.49355" height="9.50157" rx="2" transform="matrix(0.999988 0.00487925 -0.00506396 0.999987 33.4148 97.3657)" fill="#363636"/>
<rect width="8.49355" height="9.50157" rx="2" transform="matrix(0.999988 0.00487925 -0.00506396 0.999987 33.3228 79.2743)" fill="#363636"/>
<rect width="8.49355" height="9.50157" rx="2" transform="matrix(0.999988 0.00487925 -0.00506396 0.999987 33.3228 43.0914)" fill="#363636"/>
<rect width="8.49355" height="9.50157" rx="2" transform="matrix(0.999988 0.00487925 -0.00506396 0.999987 33.5061 115.457)" fill="#363636"/>
<rect width="8.49355" height="9.50157" rx="2" transform="matrix(0.999988 0.00487925 -0.00506396 0.999987 60.2307 61.1829)" fill="#363636"/>
<rect width="8.49355" height="9.50157" rx="2" transform="matrix(0.999988 0.00487925 -0.00506396 0.999987 60.2307 25)" fill="#363636"/>
<rect width="8.49355" height="9.50157" rx="2" transform="matrix(0.999988 0.00487925 -0.00506396 0.999987 60.4146 97.3657)" fill="#363636"/>
<rect width="8.49355" height="9.50157" rx="2" transform="matrix(0.999988 0.00487925 -0.00506396 0.999987 60.3225 79.2743)" fill="#363636"/>
<rect width="8.49355" height="9.50157" rx="2" transform="matrix(0.999988 0.00487925 -0.00506396 0.999987 60.3225 43.0914)" fill="#363636"/>
<rect width="8.49355" height="9.50157" rx="2" transform="matrix(0.999988 0.00487925 -0.00506396 0.999987 60.5059 115.457)" fill="#363636"/>
<rect width="8.49355" height="9.50157" rx="2" transform="matrix(0.999988 0.00487925 -0.00506396 0.999987 109.048 61.1829)" fill="#363636"/>
<rect width="8.49355" height="9.50157" rx="2" transform="matrix(0.999988 0.00487925 -0.00506396 0.999987 109.048 25)" fill="#363636"/>
<rect width="8.49355" height="9.50157" rx="2" transform="matrix(0.999988 0.00487925 -0.00506396 0.999987 109.232 97.3657)" fill="#363636"/>
<rect width="8.49355" height="9.50157" rx="2" transform="matrix(0.999988 0.00487925 -0.00506396 0.999987 109.14 79.2743)" fill="#363636"/>
<rect width="8.49355" height="9.50157" rx="2" transform="matrix(0.999988 0.00487925 -0.00506396 0.999987 109.14 43.0914)" fill="#363636"/>
<rect width="8.49355" height="9.50157" rx="2" transform="matrix(0.999988 0.00487925 -0.00506396 0.999987 109.323 115.457)" fill="#363636"/>
<path d="M50 142H67V163C67 164.105 66.1046 165 65 165H52C50.8954 165 50 164.105 50 163V142Z" fill="#FF6228"/>
<path d="M12 142H29V163C29 164.105 28.1046 165 27 165H14C12.8954 165 12 164.105 12 163V142Z" fill="#FF6228"/>
<path d="M89 142H139V163C139 164.105 138.105 165 137 165H91C89.8954 165 89 164.105 89 163V142Z" fill="#FF6228"/>
<path d="M106.067 147C106.075 145.343 107.425 144.007 109.082 144.015L117.93 144.059C119.587 144.067 120.924 145.417 120.915 147.074L120.853 159.554C120.851 160.106 120.401 160.551 119.848 160.549L107 160.485C106.448 160.482 106.002 160.032 106.005 159.48L106.067 147Z" fill="#363636"/>
</svg>
