<svg width="24" height="24" viewBox="0 0 24 24" fill="none" xmlns="http://www.w3.org/2000/svg">
<g id="vuesax/outline/edit-2">
<g id="edit-2">
<path id="Vector" d="M5.54096 19.5196C4.93096 19.5196 4.36096 19.3096 3.95096 18.9196C3.43096 18.4296 3.18096 17.6896 3.27096 16.8896L3.64096 13.6496C3.71096 13.0396 4.08096 12.2296 4.51096 11.7896L12.721 3.09956C14.771 0.929561 16.911 0.869561 19.081 2.91956C21.251 4.96956 21.311 7.10956 19.261 9.27956L11.051 17.9696C10.631 18.4196 9.85096 18.8396 9.24096 18.9396L6.02096 19.4896C5.85096 19.4996 5.70096 19.5196 5.54096 19.5196ZM15.931 2.90956C15.161 2.90956 14.491 3.38956 13.811 4.10956L5.60096 12.8096C5.40096 13.0196 5.17096 13.5196 5.13096 13.8096L4.76096 17.0496C4.72096 17.3796 4.80096 17.6496 4.98096 17.8196C5.16096 17.9896 5.43096 18.0496 5.76096 17.9996L8.98096 17.4496C9.27096 17.3996 9.75096 17.1396 9.95096 16.9296L18.161 8.23956C19.401 6.91956 19.851 5.69956 18.041 3.99956C17.241 3.22956 16.551 2.90956 15.931 2.90956Z" fill="white"/>
<path id="Vector_2" d="M17.3404 10.9498C17.3204 10.9498 17.2904 10.9498 17.2704 10.9498C14.1504 10.6398 11.6404 8.26985 11.1604 5.16985C11.1004 4.75985 11.3804 4.37985 11.7904 4.30985C12.2004 4.24985 12.5804 4.52985 12.6504 4.93985C13.0304 7.35985 14.9904 9.21985 17.4304 9.45985C17.8404 9.49985 18.1404 9.86985 18.1004 10.2798C18.0504 10.6598 17.7204 10.9498 17.3404 10.9498Z" fill="white"/>
<path id="Vector_3" d="M21 22.75H3C2.59 22.75 2.25 22.41 2.25 22C2.25 21.59 2.59 21.25 3 21.25H21C21.41 21.25 21.75 21.59 21.75 22C21.75 22.41 21.41 22.75 21 22.75Z" fill="white"/>
</g>
</g>
</svg>
