<svg width="31" height="31" viewBox="0 0 31 31" fill="none" xmlns="http://www.w3.org/2000/svg">
<circle cx="15.5" cy="15.5" r="15.5" fill="#EEEEEE"/>
<path d="M15.856 21.464C15.5147 21.464 15.2373 21.352 15.024 21.128C14.8213 20.904 14.7413 20.4773 14.784 19.848C14.8053 19.5173 14.8213 19.1013 14.832 18.6C14.8427 18.088 14.848 17.544 14.848 16.968C14.848 16.3813 14.8373 15.7893 14.816 15.192C14.8053 14.584 14.784 14.008 14.752 13.464C14.7307 13.1973 14.6293 13.1387 14.448 13.288C14.352 13.3733 14.2293 13.464 14.08 13.56C13.9307 13.6453 13.7813 13.7307 13.632 13.816C13.4827 13.9013 13.328 13.9227 13.168 13.88C13.0187 13.8267 12.9067 13.7147 12.832 13.544C12.7573 13.3733 12.7147 13.192 12.704 13C12.704 12.808 12.8 12.5787 12.992 12.312C13.3013 11.8747 13.7173 11.4533 14.24 11.048C14.7627 10.632 15.328 10.3013 15.936 10.056C16.2453 9.928 16.5227 9.96 16.768 10.152C17.024 10.3333 17.1413 10.68 17.12 11.192C17.088 11.96 17.056 12.744 17.024 13.544C17.0027 14.344 16.9813 15.1227 16.96 15.88C16.9493 16.6373 16.944 17.3573 16.944 18.04C16.944 18.712 16.96 19.3147 16.992 19.848C17.0027 20.1253 16.976 20.3653 16.912 20.568C16.8587 20.7707 16.7787 20.936 16.672 21.064C16.5653 21.2027 16.4373 21.304 16.288 21.368C16.1493 21.432 16.0053 21.464 15.856 21.464Z" fill="white"/>
</svg>
