<svg width="20" height="20" viewBox="0 0 20 20" fill="none" xmlns="http://www.w3.org/2000/svg">
<rect x="2" y="1" width="16" height="17" rx="5" fill="white"/>
<path d="M12.4998 18.9584H7.49984C2.97484 18.9584 1.0415 17.025 1.0415 12.5V7.50002C1.0415 2.97502 2.97484 1.04169 7.49984 1.04169H12.4998C17.0248 1.04169 18.9582 2.97502 18.9582 7.50002V12.5C18.9582 17.025 17.0248 18.9584 12.4998 18.9584ZM7.49984 2.29169C3.65817 2.29169 2.2915 3.65835 2.2915 7.50002V12.5C2.2915 16.3417 3.65817 17.7084 7.49984 17.7084H12.4998C16.3415 17.7084 17.7082 16.3417 17.7082 12.5V7.50002C17.7082 3.65835 16.3415 2.29169 12.4998 2.29169H7.49984Z" fill="#C5C5CA"/>
</svg>
