<svg width="20" height="20" viewBox="0 0 20 20" fill="none" xmlns="http://www.w3.org/2000/svg">
<rect x="1.66666" y="1.66669" width="16.6667" height="16.6667" rx="5" fill="#FFD2B9"/>
<path d="M12.5 18.9584H7.49999C2.97499 18.9584 1.04166 17.025 1.04166 12.5V7.50002C1.04166 2.97502 2.97499 1.04169 7.49999 1.04169H12.5C17.025 1.04169 18.9583 2.97502 18.9583 7.50002V12.5C18.9583 17.025 17.025 18.9584 12.5 18.9584ZM7.49999 2.29169C3.65832 2.29169 2.29166 3.65835 2.29166 7.50002V12.5C2.29166 16.3417 3.65832 17.7084 7.49999 17.7084H12.5C16.3417 17.7084 17.7083 16.3417 17.7083 12.5V7.50002C17.7083 3.65835 16.3417 2.29169 12.5 2.29169H7.49999Z" fill="#FF6228"/>
<path d="M8.81661 12.983C8.64994 12.983 8.49161 12.9163 8.37494 12.7997L6.01661 10.4413C5.77494 10.1997 5.77494 9.79965 6.01661 9.55799C6.25827 9.31632 6.65827 9.31632 6.89994 9.55799L8.81661 11.4747L13.0999 7.19132C13.3416 6.94965 13.7416 6.94965 13.9833 7.19132C14.2249 7.43299 14.2249 7.83299 13.9833 8.07465L9.25827 12.7997C9.14161 12.9163 8.98327 12.983 8.81661 12.983Z" fill="#FF6228"/>
</svg>
