<svg width="18" height="18" viewBox="0 0 18 18" fill="none" xmlns="http://www.w3.org/2000/svg">
<g id="vuesax/bold/building-4">
<g id="building-4">
<path id="Vector" d="M8.48995 2.25H3.81745C2.32495 2.25 1.57495 3.0075 1.57495 4.515V16.5H5.62495V13.6875C5.62495 13.38 5.87995 13.125 6.18745 13.125C6.49495 13.125 6.74995 13.3725 6.74995 13.6875V16.5H10.725V4.515C10.725 3.0075 9.98245 2.25 8.48995 2.25ZM8.06245 9.5625H4.34995C4.04245 9.5625 3.78745 9.3075 3.78745 9C3.78745 8.6925 4.04245 8.4375 4.34995 8.4375H8.06245C8.36995 8.4375 8.62495 8.6925 8.62495 9C8.62495 9.3075 8.36995 9.5625 8.06245 9.5625ZM8.06245 6.75H4.34995C4.04245 6.75 3.78745 6.495 3.78745 6.1875C3.78745 5.88 4.04245 5.625 4.34995 5.625H8.06245C8.36995 5.625 8.62495 5.88 8.62495 6.1875C8.62495 6.495 8.36995 6.75 8.06245 6.75Z" fill="#FF6228"/>
<path id="Vector_2" d="M17.25 15.9375H15.5475V13.6875C16.26 13.455 16.7775 12.7875 16.7775 12V10.5C16.7775 9.51747 15.975 8.71497 14.9925 8.71497C14.01 8.71497 13.2075 9.51747 13.2075 10.5V12C13.2075 12.78 13.7175 13.44 14.415 13.68V15.9375H0.75C0.4425 15.9375 0.1875 16.1925 0.1875 16.5C0.1875 16.8075 0.4425 17.0625 0.75 17.0625H14.9475C14.9625 17.0625 14.97 17.07 14.985 17.07C15 17.07 15.0075 17.0625 15.0225 17.0625H17.25C17.5575 17.0625 17.8125 16.8075 17.8125 16.5C17.8125 16.1925 17.5575 15.9375 17.25 15.9375Z" fill="#FF6228"/>
</g>
</g>
</svg>
