<svg width="291" height="65" viewBox="0 0 291 65" fill="none" xmlns="http://www.w3.org/2000/svg">
<path d="M101.394 54.752C100.466 54.752 99.5856 54.432 98.7536 53.792C97.9536 53.152 97.5216 52.208 97.4576 50.96C97.4576 50.576 97.4416 50.096 97.4096 49.52C97.4096 48.944 97.3936 48.304 97.3616 47.6C97.3616 46.896 97.3616 46.16 97.3616 45.392C97.3616 44.624 97.3616 43.872 97.3616 43.136C95.0256 43.136 92.7536 43.104 90.5456 43.04C88.3696 42.976 86.4016 42.864 84.6416 42.704C83.1696 42.576 82.1456 42.224 81.5696 41.648C80.9936 41.04 80.7376 40.272 80.8016 39.344C80.8656 38.416 81.1696 37.664 81.7136 37.088C82.2896 36.48 83.3456 36.208 84.8816 36.272C87.4736 36.368 90.1616 36.432 92.9456 36.464C95.7616 36.496 98.5616 36.512 101.346 36.512C104.162 36.48 106.946 36.432 109.698 36.368C112.45 36.272 115.074 36.16 117.57 36.032C119.202 35.968 120.338 36.272 120.978 36.944C121.65 37.584 121.986 38.4 121.986 39.392C121.986 40.32 121.73 41.04 121.218 41.552C120.738 42.032 119.89 42.336 118.674 42.464C117.266 42.624 115.394 42.752 113.058 42.848C110.754 42.944 108.226 43.024 105.474 43.088C105.442 44.208 105.41 45.36 105.378 46.544C105.378 47.728 105.378 48.784 105.378 49.712C105.378 50.576 105.25 51.312 104.994 51.92C104.77 52.56 104.466 53.088 104.082 53.504C103.73 53.92 103.314 54.224 102.834 54.416C102.354 54.64 101.874 54.752 101.394 54.752ZM84.5456 32.576C84.0976 31.648 84.0336 30.8 84.3536 30.032C84.7056 29.264 85.3456 28.608 86.2736 28.064C86.9136 27.712 87.6496 27.296 88.4816 26.816C89.3456 26.336 90.2416 25.824 91.1696 25.28C92.1296 24.736 93.1056 24.176 94.0976 23.6C95.1216 22.992 96.1296 22.4 97.1216 21.824C95.3936 21.888 93.7776 21.952 92.2736 22.016C90.8016 22.048 89.5696 22.096 88.5776 22.16C87.0416 22.256 86.0016 22.064 85.4576 21.584C84.9456 21.072 84.6736 20.352 84.6416 19.424C84.5776 18.496 84.8176 17.712 85.3616 17.072C85.9056 16.432 86.7376 16.08 87.8576 16.016C88.9456 15.952 90.2096 15.904 91.6496 15.872C93.0896 15.808 94.6256 15.76 96.2576 15.728C97.9216 15.696 99.6176 15.68 101.346 15.68C103.074 15.648 104.754 15.648 106.386 15.68C108.018 15.712 109.554 15.76 110.994 15.824C112.466 15.856 113.746 15.904 114.834 15.968C116.05 16.064 116.914 16.416 117.426 17.024C117.938 17.632 118.162 18.4 118.098 19.328C118.034 20.288 117.634 21.024 116.898 21.536C116.162 22.048 115.09 22.224 113.682 22.064C112.786 21.968 111.666 21.904 110.322 21.872C108.978 21.808 107.522 21.776 105.954 21.776C107.97 22.928 109.97 24.08 111.954 25.232C113.938 26.384 115.586 27.328 116.898 28.064C117.826 28.608 118.45 29.264 118.77 30.032C119.122 30.8 119.074 31.648 118.626 32.576C118.434 32.992 118.194 33.344 117.906 33.632C117.618 33.888 117.266 34.064 116.85 34.16C116.434 34.256 115.954 34.256 115.41 34.16C114.866 34.032 114.226 33.792 113.49 33.44C112.658 33.024 111.762 32.544 110.802 32C109.842 31.456 108.834 30.88 107.778 30.272C106.754 29.664 105.714 29.04 104.658 28.4C103.602 27.76 102.578 27.152 101.586 26.576C100.562 27.152 99.5216 27.76 98.4656 28.4C97.4416 29.04 96.4016 29.664 95.3456 30.272C94.3216 30.88 93.3296 31.456 92.3696 32C91.4096 32.544 90.5136 33.024 89.6816 33.44C88.9456 33.792 88.3056 34.032 87.7616 34.16C87.2176 34.256 86.7376 34.256 86.3216 34.16C85.9376 34.064 85.6016 33.888 85.3136 33.632C85.0256 33.344 84.7696 32.992 84.5456 32.576ZM159.854 54.176C157.902 54.208 155.854 54.24 153.71 54.272C151.598 54.336 149.454 54.384 147.278 54.416C145.102 54.448 142.926 54.432 140.75 54.368C138.606 54.336 136.542 54.24 134.558 54.08C133.886 54.048 133.294 53.968 132.782 53.84C132.27 53.744 131.838 53.568 131.486 53.312C131.134 53.088 130.846 52.752 130.622 52.304C130.43 51.888 130.318 51.344 130.286 50.672C130.254 50.192 130.238 49.568 130.238 48.8C130.27 48 130.302 47.184 130.334 46.352C130.398 45.52 130.462 44.72 130.526 43.952C130.59 43.152 130.67 42.512 130.766 42.032C130.862 41.52 131.198 40.976 131.774 40.4C132.382 39.824 133.246 39.552 134.366 39.584C135.614 39.648 136.526 39.968 137.102 40.544C137.678 41.088 137.966 41.936 137.966 43.088C137.966 43.408 137.966 43.936 137.966 44.672C137.998 45.408 137.982 46.096 137.918 46.736C137.886 47.152 137.966 47.424 138.158 47.552C138.35 47.648 138.59 47.696 138.878 47.696C140.382 47.696 141.982 47.696 143.678 47.696C145.406 47.696 147.134 47.696 148.862 47.696C150.622 47.664 152.334 47.648 153.998 47.648C155.662 47.616 157.198 47.584 158.606 47.552C160.142 47.488 161.358 47.744 162.254 48.32C163.182 48.864 163.662 49.664 163.694 50.72C163.726 52.96 162.446 54.112 159.854 54.176ZM124.958 26.528C124.958 24.896 125.294 23.408 125.966 22.064C126.638 20.688 127.518 19.52 128.606 18.56C129.694 17.568 130.942 16.8 132.35 16.256C133.758 15.712 135.214 15.44 136.718 15.44C138.222 15.44 139.646 15.712 140.99 16.256C142.334 16.768 143.518 17.52 144.542 18.512C145.566 19.472 146.366 20.64 146.942 22.016C147.55 23.36 147.854 24.864 147.854 26.528C147.854 28 147.582 29.376 147.038 30.656C146.494 31.936 145.726 33.056 144.734 34.016C143.742 34.976 142.558 35.728 141.182 36.272C139.838 36.816 138.35 37.088 136.718 37.088C134.83 37.088 133.15 36.816 131.678 36.272C130.206 35.728 128.974 34.976 127.982 34.016C126.99 33.056 126.238 31.936 125.726 30.656C125.214 29.376 124.958 28 124.958 26.528ZM132.014 26.432C132.014 26.912 132.11 27.408 132.302 27.92C132.494 28.4 132.766 28.848 133.118 29.264C133.502 29.648 133.966 29.968 134.51 30.224C135.054 30.48 135.662 30.608 136.334 30.608C137.678 30.608 138.75 30.176 139.55 29.312C140.35 28.448 140.75 27.488 140.75 26.432C140.75 25.248 140.35 24.24 139.55 23.408C138.75 22.576 137.678 22.16 136.334 22.16C134.958 22.16 133.886 22.576 133.118 23.408C132.382 24.208 132.014 25.216 132.014 26.432ZM155.918 18.848C155.758 17.056 155.982 15.776 156.59 15.008C157.198 14.24 158.062 13.824 159.182 13.76C159.758 13.728 160.286 13.792 160.766 13.952C161.246 14.08 161.662 14.352 162.014 14.768C162.398 15.184 162.702 15.744 162.926 16.448C163.15 17.152 163.262 18.064 163.262 19.184C163.262 20.272 163.278 21.664 163.31 23.36C163.342 25.056 163.358 26.816 163.358 28.64C163.358 30.432 163.342 32.176 163.31 33.872C163.31 35.536 163.278 36.896 163.214 37.952C163.15 39.36 162.798 40.416 162.158 41.12C161.518 41.824 160.654 42.176 159.566 42.176C158.478 42.176 157.63 41.808 157.022 41.072C156.414 40.304 156.126 39.104 156.158 37.472C156.158 36.96 156.158 36.24 156.158 35.312C156.19 34.352 156.19 33.296 156.158 32.144C156.158 30.96 156.158 29.712 156.158 28.4C156.158 27.088 156.142 25.84 156.11 24.656C156.11 23.44 156.078 22.32 156.014 21.296C155.982 20.272 155.95 19.456 155.918 18.848ZM170.266 35.408C169.914 35.184 169.594 34.896 169.306 34.544C169.05 34.16 168.89 33.728 168.826 33.248C168.762 32.768 168.826 32.24 169.018 31.664C169.242 31.088 169.658 30.464 170.266 29.792C171.354 28.576 172.634 27.184 174.106 25.616C175.578 24.016 177.002 22.496 178.378 21.056C177.546 21.12 176.73 21.184 175.93 21.248C175.162 21.28 174.362 21.328 173.53 21.392C171.994 21.488 170.954 21.264 170.41 20.72C169.898 20.144 169.626 19.392 169.594 18.464C169.53 17.536 169.77 16.768 170.314 16.16C170.858 15.552 171.69 15.216 172.81 15.152C174.442 15.056 175.978 14.976 177.418 14.912C178.89 14.848 180.33 14.816 181.738 14.816C183.178 14.784 184.634 14.784 186.106 14.816C187.578 14.816 189.13 14.848 190.762 14.912C191.978 14.976 192.826 15.328 193.306 15.968C193.786 16.608 194.026 17.392 194.026 18.32C194.026 19.312 193.642 20.064 192.874 20.576C192.106 21.088 191.018 21.264 189.61 21.104C189.002 21.04 188.394 20.992 187.786 20.96C187.21 20.928 186.618 20.896 186.01 20.864C187.386 22.272 188.666 23.648 189.85 24.992C191.066 26.336 192.234 27.68 193.354 29.024C193.866 29.664 194.218 30.272 194.41 30.848C194.634 31.392 194.746 31.904 194.746 32.384C194.746 32.832 194.65 33.248 194.458 33.632C194.298 33.984 194.074 34.272 193.786 34.496C193.434 34.816 193.034 35.056 192.586 35.216C192.17 35.376 191.706 35.424 191.194 35.36C190.714 35.264 190.202 35.04 189.658 34.688C189.114 34.304 188.538 33.728 187.93 32.96C187.194 32.032 186.362 31.04 185.434 29.984C184.506 28.928 183.45 27.792 182.266 26.576C181.306 27.664 180.282 28.8 179.194 29.984C178.138 31.136 177.05 32.352 175.93 33.632C174.906 34.784 173.93 35.52 173.002 35.84C172.106 36.16 171.194 36.016 170.266 35.408ZM181.546 45.776C181.546 44.336 181.802 43.04 182.314 41.888C182.858 40.736 183.594 39.76 184.522 38.96C185.482 38.16 186.634 37.552 187.978 37.136C189.322 36.72 190.81 36.512 192.442 36.512C193.946 36.512 195.322 36.72 196.57 37.136C197.85 37.552 198.938 38.16 199.834 38.96C200.762 39.76 201.482 40.736 201.994 41.888C202.506 43.008 202.762 44.304 202.762 45.776C202.762 47.088 202.522 48.304 202.042 49.424C201.594 50.544 200.922 51.52 200.026 52.352C199.13 53.184 198.042 53.84 196.762 54.32C195.514 54.8 194.074 55.04 192.442 55.04C190.81 55.04 189.322 54.8 187.978 54.32C186.666 53.84 185.53 53.184 184.57 52.352C183.61 51.52 182.858 50.544 182.314 49.424C181.802 48.304 181.546 47.088 181.546 45.776ZM188.65 45.68C188.65 46.608 188.986 47.376 189.658 47.984C190.33 48.56 191.21 48.848 192.298 48.848C193.418 48.848 194.314 48.56 194.986 47.984C195.69 47.376 196.042 46.608 196.042 45.68C196.042 44.656 195.706 43.872 195.034 43.328C194.362 42.752 193.45 42.464 192.298 42.464C191.21 42.464 190.33 42.736 189.658 43.28C188.986 43.792 188.65 44.592 188.65 45.68ZM197.818 18.896C197.658 17.104 197.882 15.824 198.49 15.056C199.098 14.288 199.962 13.872 201.082 13.808C201.658 13.776 202.186 13.84 202.666 14C203.146 14.128 203.562 14.4 203.914 14.816C204.266 15.232 204.554 15.792 204.778 16.496C205.002 17.2 205.13 18.112 205.162 19.232L205.258 22.256C205.994 22.32 206.698 22.32 207.37 22.256C208.042 22.16 208.698 22.128 209.338 22.16C210.074 22.192 210.634 22.48 211.018 23.024C211.434 23.536 211.642 24.192 211.642 24.992C211.642 25.728 211.466 26.432 211.114 27.104C210.762 27.776 210.202 28.192 209.434 28.352C208.794 28.48 208.106 28.544 207.37 28.544C206.666 28.544 205.946 28.512 205.21 28.448C205.21 29.12 205.194 29.904 205.162 30.8C205.162 31.696 205.146 32.384 205.114 32.864C205.05 34.272 204.698 35.328 204.058 36.032C203.418 36.736 202.554 37.088 201.466 37.088C200.378 37.088 199.53 36.72 198.922 35.984C198.314 35.216 198.026 34.016 198.058 32.384C198.058 31.616 198.058 30.656 198.058 29.504C198.09 28.352 198.09 27.152 198.058 25.904C198.058 24.624 198.026 23.376 197.962 22.16C197.93 20.912 197.882 19.824 197.818 18.896Z" fill="#FF6228"/>
</svg>
