<svg width="31" height="31" viewBox="0 0 31 31" fill="none" xmlns="http://www.w3.org/2000/svg">
<circle cx="15.5" cy="15.5" r="15.5" fill="#FFD0B6" fill-opacity="0.7"/>
<path d="M17.4711 21.592C17.0551 21.592 16.3991 21.64 16.3991 20.088V19.192L12.3511 19.208C11.8551 19.208 11.1351 18.904 11.1351 18.152C11.1351 17.4 11.5191 16.936 12.0951 15.992C12.6551 15.064 14.3351 12.6 15.3751 11.112C16.0631 10.12 16.5591 9.88 17.2471 9.88C17.9351 9.88 18.5111 10.616 18.5111 11.752C18.5111 12.488 18.5431 15.08 18.5751 17.144H19.7751C20.6231 17.144 20.8471 17.672 20.8471 18.168C20.8471 18.648 20.5271 19.192 19.6151 19.192H18.5911V19.672C18.5911 20.904 18.2871 21.592 17.4711 21.592ZM14.1111 16.888C14.0311 17.032 14.0471 17.16 14.2551 17.16H16.3991L16.4151 13.544C16.4151 13.32 16.3351 13.208 16.1911 13.48C16.0471 13.752 14.8631 15.624 14.1111 16.888Z" fill="white"/>
</svg>
